<?xml version="1.0" encoding="UTF-8"?><svg id="_이어_2" xmlns="http://www.w3.org/2000/svg" viewBox="0 0 302.68 116.13"><defs><style>.cls-1{fill:#fff;}</style></defs><g id="_이어_1-2"><path class="cls-1" d="M188.87,101.46h-32.04c-3.89,0-6.87-3.1-6.87-7V21.97c0-3.9,2.98-6.88,6.87-6.88,19.3,.35,56.61-5.31,56.29,22.03,0,12.59-7.69,17.07-10.38,18.04,24.09,5.71,19.71,47.88-13.88,46.3m-2.66-73.66h-22.37v21.79h22.37c17.38,.48,17.64-22.39,0-21.79m3.16,34.36h-25.52v26.47h25.52c19.98,.05,20.05-26.54,0-26.47m68.75,39.31h-21.27c-3.9,0-7-2.93-7-7V21.97c0-3.9,3.1-6.88,7-6.88h21.27c59.52-1.7,59.3,88.05,0,86.38m-.89-73.66h-13.37v60.95h13.37c42.18,2.53,42.37-63.6,0-60.95"/><path class="cls-1" d="M33.38,55.01c-.19,.08-32.81,11.19-32.81,11.19-1.58-10.75,.15-22.42,4.52-31.96-.08,.68,30.11,19.76,28.29,20.77M57.86,0c-11.44,.04-22.08,3.39-31.05,9.13,.4,.24,22.99,24.68,24.26,25.49,1.04-1.33,6.51-34.43,6.8-34.61m-18.28,41.87c-.01-.39-13.08-32.26-13.13-32.51-9.17,5.96-16.54,14.46-21.16,24.47,.58-.27,33.86,9.17,34.29,8.04m43.18,13.14c.21,.08,32.81,11.19,32.81,11.19,1.58-10.76-.15-22.43-4.53-31.96,.08,.68-30.1,19.76-28.29,20.77m-18.03-20.76c1.23,1.24,24.09-25.38,24.61-25.13C80.36,3.39,69.71,.04,58.28,0c0,0,6.14,32.66,6.44,34.25m12.16,7.95c.49-.04,33.69-8.33,33.97-8.37-4.6-10.01-11.99-18.51-21.15-24.47,.23,.56-14.06,32.46-12.81,32.84"/><path class="cls-1" d="M58.07,116.13c29.09,0,53.19-21.41,57.41-49.33l-21.65,3.02c-5.06,12.16-15.01,22.61-29.06,24.91,14.29-6.32,9.24-29.66-6.7-29.13-15.95-.53-21.01,22.81-6.71,29.13-14.07-2.29-23.99-12.76-29.07-24.91L.66,66.8c4.21,27.92,28.31,49.33,57.41,49.33"/></g></svg>