<?xml version="1.0" encoding="utf-8"?>
<!-- Generator: Adobe Illustrator 16.0.0, SVG Export Plug-In . SVG Version: 6.00 Build 0)  -->
<!DOCTYPE svg PUBLIC "-//W3C//DTD SVG 1.1//EN" "http://www.w3.org/Graphics/SVG/1.1/DTD/svg11.dtd">
<svg version="1.1" id="레이어_1" xmlns="http://www.w3.org/2000/svg" xmlns:xlink="http://www.w3.org/1999/xlink" x="0px"
	 y="0px" width="28px" height="28px" viewBox="0 0 28 28" enable-background="new 0 0 28 28" xml:space="preserve">
<g transform="translate(0,-952.36218)" display="none">
	<path display="inline" fill="#FFFFFF" d="M14.112,957.224c-0.182,0.003-0.364,0.066-0.542,0.186l-11.123,8.777
		c-0.284,0.284-0.483,0.893-0.192,1.27c0.294,0.38,0.916,0.43,1.273,0.112l10.583-8.351l10.583,8.351
		c0.357,0.317,0.989,0.278,1.267-0.112c0.251-0.334,0.188-0.986-0.188-1.27l-11.123-8.777
		C14.469,957.28,14.291,957.221,14.112,957.224z M7.087,965.793l-1.756,1.392v8.48c0,0.485,0.391,0.879,0.876,0.879h5.563
		c0.483,0,0.876-0.394,0.876-0.879v-3.513c0-0.827,0.635-1.462,1.465-1.462c0.827,0,1.465,0.635,1.465,1.462v3.513
		c0,0.485,0.391,0.879,0.876,0.879h5.56c0.49,0,0.88-0.394,0.88-0.879v-8.48l-1.756-1.392v8.993H17.33v-2.633
		c0-1.77-1.452-3.222-3.218-3.222c-1.769,0-3.221,1.452-3.221,3.222v2.633H7.087V965.793z"/>
</g>
<g display="none">
	<path display="inline" fill="#FFFFFF" d="M17.915,5.783c-2.068,0-3.369,1.003-4.126,1.913c-0.757-0.91-2.058-1.913-4.125-1.913
		c-3.513,0-5.875,3.257-5.875,6.296c0,4.427,8.502,10.359,9.474,11.021c0.157,0.108,0.341,0.163,0.526,0.163
		s0.369-0.055,0.526-0.163c0.973-0.662,9.474-6.595,9.474-11.021C23.789,9.04,21.427,5.783,17.915,5.783z M13.789,21.189
		c-3.35-2.38-8.13-6.644-8.13-9.11c0-1.858,1.39-4.429,4.005-4.429c2.377,0,3.217,2.055,3.251,2.138
		c0.139,0.36,0.483,0.597,0.867,0.6c0,0,0.003,0,0.009,0c0.381,0,0.727-0.24,0.868-0.593c0.037-0.089,0.876-2.144,3.255-2.144
		c2.613,0,4.004,2.571,4.004,4.429C21.919,14.543,17.139,18.81,13.789,21.189z"/>
</g>
<path display="none" fill="#FFFFFF" d="M25,10.658c0-1.242-0.484-2.396-1.381-3.261c0,0,0,0-0.01-0.007l0,0l0,0l0,0
	c-0.85-0.829-1.963-1.282-3.15-1.282H7.539c-1.184,0-2.3,0.453-3.146,1.282l0,0l0,0l0,0c0,0,0,0-0.007,0.007
	c-0.896,0.866-1.387,2.02-1.387,3.261v6.696c0,1.115,0.409,2.188,1.147,3.018c0,0,0,0.006,0.01,0.006l0,0l0,0
	c0.862,0.965,2.097,1.516,3.383,1.516h12.914c1.287,0,2.523-0.551,3.385-1.516c0,0,0-0.006,0.008-0.006l0,0c0,0,0-0.01,0.006-0.01
	C24.59,19.535,25,18.463,25,17.344V10.658z M17.852,13.949l5.057-4.662c0.23,0.409,0.355,0.883,0.355,1.37v6.696
	c0,0.393-0.092,0.777-0.25,1.129L17.852,13.949z M7.539,7.85h12.914c0.404,0,0.811,0.088,1.166,0.26L14,15.137L6.372,8.104
	C6.734,7.938,7.133,7.85,7.539,7.85z M4.988,18.482c-0.156-0.352-0.254-0.736-0.254-1.129v-6.696c0-0.487,0.129-0.961,0.355-1.37
	l5.051,4.662L4.988,18.482z M7.539,20.158c-0.491,0-0.964-0.143-1.387-0.387l5.278-4.635l1.982,1.82
	c0.088,0.082,0.179,0.135,0.277,0.172c0.098,0.045,0.203,0.059,0.311,0.059c0.21,0,0.426-0.082,0.589-0.23l1.979-1.82l5.281,4.635
	c-0.426,0.244-0.893,0.387-1.391,0.387H7.539L7.539,20.158z"/>
<rect x="0" display="none" fill="#FFFFFF" width="28" height="28"/>
<g>
	<path fill="#FFFFFF" d="M18.182,8.951c-1.63-1.292-3.735-1.74-5.788-1.264c-2.395,0.551-4.314,2.446-4.893,4.841
		c-0.662,2.657,0.262,5.344,2.418,6.998c0.159,0.135,0.265,0.373,0.265,0.634v3.604c0,0.737,0.604,1.344,1.341,1.344h0.84
		c0.238,0.71,0.869,1.21,1.661,1.21c0.786,0,1.42-0.527,1.654-1.21h0.844c0.737,0,1.344-0.606,1.344-1.344v-3.632
		c0-0.232,0.078-0.443,0.233-0.578c1.685-1.288,2.658-3.235,2.658-5.316C20.735,12.159,19.786,10.24,18.182,8.951z M11.791,23.473
		v-1.525h4.421v1.525H11.791z M17.104,18.265c-0.552,0.421-0.892,1.105-0.892,1.866v0.211h-4.421v-0.183
		c0-0.765-0.345-1.474-0.899-1.923c-1.63-1.263-2.34-3.29-1.84-5.34c0.447-1.788,1.896-3.211,3.711-3.631
		c1.578-0.369,3.183-0.027,4.42,0.948c1.236,0.975,1.945,2.419,1.945,4C19.104,15.814,18.367,17.289,17.104,18.265z"/>
	<path fill="#FFFFFF" d="M13.999,5.871c0.448,0,0.813-0.37,0.813-0.816V2.502c0-0.445-0.366-0.817-0.813-0.817
		c-0.449,0-0.817,0.372-0.817,0.817v2.553C13.182,5.501,13.55,5.871,13.999,5.871z"/>
	<path fill="#FFFFFF" d="M8.128,8.29c0.317-0.313,0.317-0.841,0-1.154L6.316,5.316c-0.318-0.313-0.841-0.313-1.158,0
		c-0.317,0.317-0.317,0.844,0,1.157L6.974,8.29c0.155,0.159,0.369,0.237,0.58,0.237C7.763,8.527,7.973,8.448,8.128,8.29z"/>
	<path fill="#FFFFFF" d="M4.869,13.368H2.315c-0.447,0-0.816,0.373-0.816,0.817c0,0.449,0.369,0.816,0.816,0.816h2.554
		c0.447,0,0.813-0.368,0.813-0.816C5.681,13.74,5.316,13.368,4.869,13.368z"/>
	<path fill="#FFFFFF" d="M25.683,13.368H23.13c-0.449,0-0.813,0.373-0.813,0.817c0,0.449,0.363,0.816,0.813,0.816h2.553
		c0.447,0,0.816-0.368,0.816-0.816C26.499,13.74,26.13,13.368,25.683,13.368z"/>
	<path fill="#FFFFFF" d="M22.84,5.344c-0.314-0.317-0.84-0.317-1.156,0l-1.816,1.815c-0.318,0.317-0.318,0.845,0,1.158
		c0.158,0.158,0.369,0.238,0.578,0.238c0.212,0,0.42-0.08,0.58-0.238l1.814-1.816C23.156,6.16,23.156,5.66,22.84,5.344z"/>
</g>
</svg>
