<?xml version="1.0" encoding="utf-8"?>
<!-- Generator: Adobe Illustrator 16.0.0, SVG Export Plug-In . SVG Version: 6.00 Build 0)  -->
<!DOCTYPE svg PUBLIC "-//W3C//DTD SVG 1.1//EN" "http://www.w3.org/Graphics/SVG/1.1/DTD/svg11.dtd">
<svg version="1.1" id="레이어_1" xmlns="http://www.w3.org/2000/svg" xmlns:xlink="http://www.w3.org/1999/xlink" x="0px"
	 y="0px" width="36px" height="28px" viewBox="0 0 36 28" enable-background="new 0 0 36 28" xml:space="preserve">
<path fill="#FFFFFF" d="M2.511,0C1.127,0,0,1.119,0,2.5C0,3.88,1.127,5,2.511,5h30.977C34.872,5,36,3.88,36,2.5
	C36,1.119,34.872,0,33.488,0H2.511z M2.511,11C1.127,11,0,12.119,0,13.5C0,14.88,1.127,16,2.511,16h30.977
	C34.872,16,36,14.88,36,13.5c0-1.382-1.128-2.5-2.512-2.5H2.511z M2.511,23C1.127,23,0,24.119,0,25.5C0,26.88,1.127,28,2.511,28
	h30.977C34.872,28,36,26.88,36,25.5c0-1.381-1.128-2.5-2.512-2.5H2.511z"/>
</svg>
