<?xml version="1.0" encoding="utf-8"?>
<!-- Generator: Adobe Illustrator 16.0.0, SVG Export Plug-In . SVG Version: 6.00 Build 0)  -->
<!DOCTYPE svg PUBLIC "-//W3C//DTD SVG 1.1//EN" "http://www.w3.org/Graphics/SVG/1.1/DTD/svg11.dtd">
<svg version="1.1" id="레이어_1" xmlns="http://www.w3.org/2000/svg" xmlns:xlink="http://www.w3.org/1999/xlink" x="0px"
	 y="0px" width="18px" height="18px" viewBox="0 0 18 18" enable-background="new 0 0 18 18" xml:space="preserve">
<g>
	<path fill="#CCCCCC" d="M9,1c4.411,0,8,3.589,8,8s-3.589,8-8,8s-8-3.589-8-8S4.589,1,9,1 M9,0C4.029,0,0,4.029,0,9s4.029,9,9,9
		s9-4.029,9-9S13.971,0,9,0L9,0z"/>
</g>
<polyline fill="none" stroke="#CCCCCC" stroke-miterlimit="10" points="4.95,7.823 8.209,11 13.05,5.437 "/>
<g display="none">
	<circle display="inline" fill="#CCCCCC" cx="9" cy="9" r="9"/>
	<polyline display="inline" fill="none" stroke="#FFFFFF" stroke-miterlimit="10" points="4.95,7.823 8.209,11 13.05,5.437 	"/>
</g>
<g display="none">
	<circle display="inline" fill="#3BADD8" cx="9" cy="9" r="9"/>
	<polyline display="inline" fill="none" stroke="#FFFFFF" stroke-miterlimit="10" points="4.95,7.824 8.209,11 13.05,5.437 	"/>
</g>
</svg>
