<?xml version="1.0" encoding="utf-8"?>
<!-- Generator: Adobe Illustrator 16.0.0, SVG Export Plug-In . SVG Version: 6.00 Build 0)  -->
<!DOCTYPE svg PUBLIC "-//W3C//DTD SVG 1.1//EN" "http://www.w3.org/Graphics/SVG/1.1/DTD/svg11.dtd">
<svg version="1.1" id="레이어_1" xmlns="http://www.w3.org/2000/svg" xmlns:xlink="http://www.w3.org/1999/xlink" x="0px"
	 y="0px" width="16px" height="16px" viewBox="0 0 16 16" enable-background="new 0 0 16 16" xml:space="preserve">
<g>
	<g>
		<path fill="#010101" d="M8,0C3.587,0,0,3.587,0,8s3.587,8,8,8c4.412,0,8-3.587,8-8S12.412,0,8,0z M8,14.667
			c-3.68,0-6.667-2.987-6.667-6.667C1.333,4.32,4.32,1.333,8,1.333c3.68,0,6.666,2.986,6.666,6.667
			C14.666,11.68,11.68,14.667,8,14.667z"/>
		<path fill="#010101" d="M8,6.467c-0.374,0-0.667,0.293-0.667,0.667v4.533c0,0.373,0.293,0.668,0.667,0.668
			c0.373,0,0.666-0.295,0.666-0.668V7.133C8.666,6.773,8.373,6.467,8,6.467z"/>
		<path fill="#010101" d="M8.014,3.734C7.667,3.707,7.346,4.066,7.333,4.427c0,0.013,0,0.093,0,0.106c0,0.36,0.28,0.626,0.653,0.64
			H8c0.359,0,0.652-0.32,0.666-0.667c0-0.013,0-0.147,0-0.147C8.666,3.974,8.387,3.734,8.014,3.734z"/>
	</g>
</g>
</svg>
