<?xml version="1.0" encoding="utf-8"?>
<!-- Generator: Adobe Illustrator 16.0.0, SVG Export Plug-In . SVG Version: 6.00 Build 0)  -->
<!DOCTYPE svg PUBLIC "-//W3C//DTD SVG 1.1//EN" "http://www.w3.org/Graphics/SVG/1.1/DTD/svg11.dtd">
<svg version="1.1" id="레이어_1" xmlns="http://www.w3.org/2000/svg" xmlns:xlink="http://www.w3.org/1999/xlink" x="0px"
	 y="0px" width="28px" height="28px" viewBox="0 0 28 28" enable-background="new 0 0 28 28" xml:space="preserve">
<g transform="translate(0,-952.36218)">
	<path fill="#FFFFFF" d="M14.112,957.224c-0.182,0.003-0.364,0.066-0.542,0.186l-11.123,8.777c-0.284,0.284-0.483,0.893-0.192,1.27
		c0.294,0.38,0.916,0.43,1.273,0.112l10.583-8.351l10.583,8.351c0.357,0.317,0.989,0.278,1.267-0.112
		c0.251-0.334,0.188-0.986-0.188-1.27l-11.123-8.777C14.469,957.28,14.291,957.221,14.112,957.224z M7.087,965.793l-1.756,1.392
		v8.48c0,0.485,0.391,0.879,0.876,0.879h5.563c0.483,0,0.876-0.394,0.876-0.879v-3.513c0-0.827,0.635-1.462,1.465-1.462
		c0.827,0,1.465,0.635,1.465,1.462v3.513c0,0.485,0.391,0.879,0.876,0.879h5.56c0.49,0,0.88-0.394,0.88-0.879v-8.48l-1.756-1.392
		v8.993H17.33v-2.633c0-1.77-1.452-3.222-3.218-3.222c-1.769,0-3.221,1.452-3.221,3.222v2.633H7.087V965.793z"/>
</g>
</svg>
