<?xml version="1.0" encoding="utf-8"?>
<!-- Generator: Adobe Illustrator 16.0.0, SVG Export Plug-In . SVG Version: 6.00 Build 0)  -->
<!DOCTYPE svg PUBLIC "-//W3C//DTD SVG 1.1//EN" "http://www.w3.org/Graphics/SVG/1.1/DTD/svg11.dtd">
<svg version="1.1" id="레이어_1" xmlns="http://www.w3.org/2000/svg" xmlns:xlink="http://www.w3.org/1999/xlink" x="0px"
	 y="0px" width="28px" height="28px" viewBox="0 0 28 28" enable-background="new 0 0 28 28" xml:space="preserve">
<g display="none" opacity="0.2">
	<g display="inline">
		<rect fill="#010101" width="1" height="1"/>
		<rect x="1" y="1" fill="#010101" width="1" height="1"/>
	</g>
	<g display="inline">
		<rect x="2" fill="#010101" width="1" height="1"/>
		<rect x="3" y="1" fill="#010101" width="1" height="1"/>
	</g>
	<g display="inline">
		<rect x="4" fill="#010101" width="1" height="1"/>
		<rect x="5" y="1" fill="#010101" width="1" height="1"/>
	</g>
	<g display="inline">
		<rect x="6" fill="#010101" width="1" height="1"/>
		<rect x="7" y="1" fill="#010101" width="1" height="1"/>
	</g>
	<g display="inline">
		<rect x="8" fill="#010101" width="1" height="1"/>
		<rect x="9" y="1" fill="#010101" width="1" height="1"/>
	</g>
	<g display="inline">
		<rect x="10" fill="#010101" width="1" height="1"/>
		<rect x="11" y="1" fill="#010101" width="1" height="1"/>
	</g>
	<g display="inline">
		<rect x="12" fill="#010101" width="1" height="1"/>
		<rect x="13" y="1" fill="#010101" width="1" height="1"/>
	</g>
	<g display="inline">
		<rect x="14" fill="#010101" width="1" height="1"/>
		<rect x="15" y="1" fill="#010101" width="1" height="1"/>
	</g>
	<g display="inline">
		<rect x="16" fill="#010101" width="1" height="1"/>
		<rect x="17" y="1" fill="#010101" width="1" height="1"/>
	</g>
	<g display="inline">
		<rect x="18" fill="#010101" width="1" height="1"/>
		<rect x="19" y="1" fill="#010101" width="1" height="1"/>
	</g>
	<g display="inline">
		<rect x="20" fill="#010101" width="1" height="1"/>
		<rect x="21" y="1" fill="#010101" width="1" height="1"/>
	</g>
	<g display="inline">
		<rect x="22" fill="#010101" width="1" height="1"/>
		<rect x="23" y="1" fill="#010101" width="1" height="1"/>
	</g>
	<g display="inline">
		<rect x="24" fill="#010101" width="1" height="1"/>
		<rect x="25" y="1" fill="#010101" width="1" height="1"/>
	</g>
	<g display="inline">
		<rect x="26" fill="#010101" width="1" height="1"/>
		<rect x="27" y="1" fill="#010101" width="1" height="1"/>
	</g>
	<g display="inline">
		<rect y="2" fill="#010101" width="1" height="1"/>
		<rect x="1" y="3" fill="#010101" width="1" height="1"/>
	</g>
	<g display="inline">
		<rect x="2" y="2" fill="#010101" width="1" height="1"/>
		<rect x="3" y="3" fill="#010101" width="1" height="1"/>
	</g>
	<g display="inline">
		<rect x="4" y="2" fill="#010101" width="1" height="1"/>
		<rect x="5" y="3" fill="#010101" width="1" height="1"/>
	</g>
	<g display="inline">
		<rect x="6" y="2" fill="#010101" width="1" height="1"/>
		<rect x="7" y="3" fill="#010101" width="1" height="1"/>
	</g>
	<g display="inline">
		<rect x="8" y="2" fill="#010101" width="1" height="1"/>
		<rect x="9" y="3" fill="#010101" width="1" height="1"/>
	</g>
	<g display="inline">
		<rect x="10" y="2" fill="#010101" width="1" height="1"/>
		<rect x="11" y="3" fill="#010101" width="1" height="1"/>
	</g>
	<g display="inline">
		<rect x="12" y="2" fill="#010101" width="1" height="1"/>
		<rect x="13" y="3" fill="#010101" width="1" height="1"/>
	</g>
	<g display="inline">
		<rect x="14" y="2" fill="#010101" width="1" height="1"/>
		<rect x="15" y="3" fill="#010101" width="1" height="1"/>
	</g>
	<g display="inline">
		<rect x="16" y="2" fill="#010101" width="1" height="1"/>
		<rect x="17" y="3" fill="#010101" width="1" height="1"/>
	</g>
	<g display="inline">
		<rect x="18" y="2" fill="#010101" width="1" height="1"/>
		<rect x="19" y="3" fill="#010101" width="1" height="1"/>
	</g>
	<g display="inline">
		<rect x="20" y="2" fill="#010101" width="1" height="1"/>
		<rect x="21" y="3" fill="#010101" width="1" height="1"/>
	</g>
	<g display="inline">
		<rect x="22" y="2" fill="#010101" width="1" height="1"/>
		<rect x="23" y="3" fill="#010101" width="1" height="1"/>
	</g>
	<g display="inline">
		<rect x="24" y="2" fill="#010101" width="1" height="1"/>
		<rect x="25" y="3" fill="#010101" width="1" height="1"/>
	</g>
	<g display="inline">
		<rect x="26" y="2" fill="#010101" width="1" height="1"/>
		<rect x="27" y="3" fill="#010101" width="1" height="1"/>
	</g>
	<g display="inline">
		<rect y="4" fill="#010101" width="1" height="1"/>
		<rect x="1" y="5" fill="#010101" width="1" height="1"/>
	</g>
	<g display="inline">
		<rect x="2" y="4" fill="#010101" width="1" height="1"/>
		<rect x="3" y="5" fill="#010101" width="1" height="1"/>
	</g>
	<g display="inline">
		<rect x="4" y="4" fill="#010101" width="1" height="1"/>
		<rect x="5" y="5" fill="#010101" width="1" height="1"/>
	</g>
	<g display="inline">
		<rect x="6" y="4" fill="#010101" width="1" height="1"/>
		<rect x="7" y="5" fill="#010101" width="1" height="1"/>
	</g>
	<g display="inline">
		<rect x="8" y="4" fill="#010101" width="1" height="1"/>
		<rect x="9" y="5" fill="#010101" width="1" height="1"/>
	</g>
	<g display="inline">
		<rect x="10" y="4" fill="#010101" width="1" height="1"/>
		<rect x="11" y="5" fill="#010101" width="1" height="1"/>
	</g>
	<g display="inline">
		<rect x="12" y="4" fill="#010101" width="1" height="1"/>
		<rect x="13" y="5" fill="#010101" width="1" height="1"/>
	</g>
	<g display="inline">
		<rect x="14" y="4" fill="#010101" width="1" height="1"/>
		<rect x="15" y="5" fill="#010101" width="1" height="1"/>
	</g>
	<g display="inline">
		<rect x="16" y="4" fill="#010101" width="1" height="1"/>
		<rect x="17" y="5" fill="#010101" width="1" height="1"/>
	</g>
	<g display="inline">
		<rect x="18" y="4" fill="#010101" width="1" height="1"/>
		<rect x="19" y="5" fill="#010101" width="1" height="1"/>
	</g>
	<g display="inline">
		<rect x="20" y="4" fill="#010101" width="1" height="1"/>
		<rect x="21" y="5" fill="#010101" width="1" height="1"/>
	</g>
	<g display="inline">
		<rect x="22" y="4" fill="#010101" width="1" height="1"/>
		<rect x="23" y="5" fill="#010101" width="1" height="1"/>
	</g>
	<g display="inline">
		<rect x="24" y="4" fill="#010101" width="1" height="1"/>
		<rect x="25" y="5" fill="#010101" width="1" height="1"/>
	</g>
	<g display="inline">
		<rect x="26" y="4" fill="#010101" width="1" height="1"/>
		<rect x="27" y="5" fill="#010101" width="1" height="1"/>
	</g>
	<g display="inline">
		<rect y="6" fill="#010101" width="1" height="1"/>
		<rect x="1" y="7" fill="#010101" width="1" height="1"/>
	</g>
	<g display="inline">
		<rect x="2" y="6" fill="#010101" width="1" height="1"/>
		<rect x="3" y="7" fill="#010101" width="1" height="1"/>
	</g>
	<g display="inline">
		<rect x="4" y="6" fill="#010101" width="1" height="1"/>
		<rect x="5" y="7" fill="#010101" width="1" height="1"/>
	</g>
	<g display="inline">
		<rect x="6" y="6" fill="#010101" width="1" height="1"/>
		<rect x="7" y="7" fill="#010101" width="1" height="1"/>
	</g>
	<g display="inline">
		<rect x="8" y="6" fill="#010101" width="1" height="1"/>
		<rect x="9" y="7" fill="#010101" width="1" height="1"/>
	</g>
	<g display="inline">
		<rect x="10" y="6" fill="#010101" width="1" height="1"/>
		<rect x="11" y="7" fill="#010101" width="1" height="1"/>
	</g>
	<g display="inline">
		<rect x="12" y="6" fill="#010101" width="1" height="1"/>
		<rect x="13" y="7" fill="#010101" width="1" height="1"/>
	</g>
	<g display="inline">
		<rect x="14" y="6" fill="#010101" width="1" height="1"/>
		<rect x="15" y="7" fill="#010101" width="1" height="1"/>
	</g>
	<g display="inline">
		<rect x="16" y="6" fill="#010101" width="1" height="1"/>
		<rect x="17" y="7" fill="#010101" width="1" height="1"/>
	</g>
	<g display="inline">
		<rect x="18" y="6" fill="#010101" width="1" height="1"/>
		<rect x="19" y="7" fill="#010101" width="1" height="1"/>
	</g>
	<g display="inline">
		<rect x="20" y="6" fill="#010101" width="1" height="1"/>
		<rect x="21" y="7" fill="#010101" width="1" height="1"/>
	</g>
	<g display="inline">
		<rect x="22" y="6" fill="#010101" width="1" height="1"/>
		<rect x="23" y="7" fill="#010101" width="1" height="1"/>
	</g>
	<g display="inline">
		<rect x="24" y="6" fill="#010101" width="1" height="1"/>
		<rect x="25" y="7" fill="#010101" width="1" height="1"/>
	</g>
	<g display="inline">
		<rect x="26" y="6" fill="#010101" width="1" height="1"/>
		<rect x="27" y="7" fill="#010101" width="1" height="1"/>
	</g>
	<g display="inline">
		<rect y="8" fill="#010101" width="1" height="1"/>
		<rect x="1" y="9" fill="#010101" width="1" height="1"/>
	</g>
	<g display="inline">
		<rect x="2" y="8" fill="#010101" width="1" height="1"/>
		<rect x="3" y="9" fill="#010101" width="1" height="1"/>
	</g>
	<g display="inline">
		<rect x="4" y="8" fill="#010101" width="1" height="1"/>
		<rect x="5" y="9" fill="#010101" width="1" height="1"/>
	</g>
	<g display="inline">
		<rect x="6" y="8" fill="#010101" width="1" height="1"/>
		<rect x="7" y="9" fill="#010101" width="1" height="1"/>
	</g>
	<g display="inline">
		<rect x="8" y="8" fill="#010101" width="1" height="1"/>
		<rect x="9" y="9" fill="#010101" width="1" height="1"/>
	</g>
	<g display="inline">
		<rect x="10" y="8" fill="#010101" width="1" height="1"/>
		<rect x="11" y="9" fill="#010101" width="1" height="1"/>
	</g>
	<g display="inline">
		<rect x="12" y="8" fill="#010101" width="1" height="1"/>
		<rect x="13" y="9" fill="#010101" width="1" height="1"/>
	</g>
	<g display="inline">
		<rect x="14" y="8" fill="#010101" width="1" height="1"/>
		<rect x="15" y="9" fill="#010101" width="1" height="1"/>
	</g>
	<g display="inline">
		<rect x="16" y="8" fill="#010101" width="1" height="1"/>
		<rect x="17" y="9" fill="#010101" width="1" height="1"/>
	</g>
	<g display="inline">
		<rect x="18" y="8" fill="#010101" width="1" height="1"/>
		<rect x="19" y="9" fill="#010101" width="1" height="1"/>
	</g>
	<g display="inline">
		<rect x="20" y="8" fill="#010101" width="1" height="1"/>
		<rect x="21" y="9" fill="#010101" width="1" height="1"/>
	</g>
	<g display="inline">
		<rect x="22" y="8" fill="#010101" width="1" height="1"/>
		<rect x="23" y="9" fill="#010101" width="1" height="1"/>
	</g>
	<g display="inline">
		<rect x="24" y="8" fill="#010101" width="1" height="1"/>
		<rect x="25" y="9" fill="#010101" width="1" height="1"/>
	</g>
	<g display="inline">
		<rect x="26" y="8" fill="#010101" width="1" height="1"/>
		<rect x="27" y="9" fill="#010101" width="1" height="1"/>
	</g>
	<g display="inline">
		<rect y="10" fill="#010101" width="1" height="1"/>
		<rect x="1" y="11" fill="#010101" width="1" height="1"/>
	</g>
	<g display="inline">
		<rect x="2" y="10" fill="#010101" width="1" height="1"/>
		<rect x="3" y="11" fill="#010101" width="1" height="1"/>
	</g>
	<g display="inline">
		<rect x="4" y="10" fill="#010101" width="1" height="1"/>
		<rect x="5" y="11" fill="#010101" width="1" height="1"/>
	</g>
	<g display="inline">
		<rect x="6" y="10" fill="#010101" width="1" height="1"/>
		<rect x="7" y="11" fill="#010101" width="1" height="1"/>
	</g>
	<g display="inline">
		<rect x="8" y="10" fill="#010101" width="1" height="1"/>
		<rect x="9" y="11" fill="#010101" width="1" height="1"/>
	</g>
	<g display="inline">
		<rect x="10" y="10" fill="#010101" width="1" height="1"/>
		<rect x="11" y="11" fill="#010101" width="1" height="1"/>
	</g>
	<g display="inline">
		<rect x="12" y="10" fill="#010101" width="1" height="1"/>
		<rect x="13" y="11" fill="#010101" width="1" height="1"/>
	</g>
	<g display="inline">
		<rect x="14" y="10" fill="#010101" width="1" height="1"/>
		<rect x="15" y="11" fill="#010101" width="1" height="1"/>
	</g>
	<g display="inline">
		<rect x="16" y="10" fill="#010101" width="1" height="1"/>
		<rect x="17" y="11" fill="#010101" width="1" height="1"/>
	</g>
	<g display="inline">
		<rect x="18" y="10" fill="#010101" width="1" height="1"/>
		<rect x="19" y="11" fill="#010101" width="1" height="1"/>
	</g>
	<g display="inline">
		<rect x="20" y="10" fill="#010101" width="1" height="1"/>
		<rect x="21" y="11" fill="#010101" width="1" height="1"/>
	</g>
	<g display="inline">
		<rect x="22" y="10" fill="#010101" width="1" height="1"/>
		<rect x="23" y="11" fill="#010101" width="1" height="1"/>
	</g>
	<g display="inline">
		<rect x="24" y="10" fill="#010101" width="1" height="1"/>
		<rect x="25" y="11" fill="#010101" width="1" height="1"/>
	</g>
	<g display="inline">
		<rect x="26" y="10" fill="#010101" width="1" height="1"/>
		<rect x="27" y="11" fill="#010101" width="1" height="1"/>
	</g>
	<g display="inline">
		<rect y="12" fill="#010101" width="1" height="1"/>
		<rect x="1" y="13" fill="#010101" width="1" height="1"/>
	</g>
	<g display="inline">
		<rect x="2" y="12" fill="#010101" width="1" height="1"/>
		<rect x="3" y="13" fill="#010101" width="1" height="1"/>
	</g>
	<g display="inline">
		<rect x="4" y="12" fill="#010101" width="1" height="1"/>
		<rect x="5" y="13" fill="#010101" width="1" height="1"/>
	</g>
	<g display="inline">
		<rect x="6" y="12" fill="#010101" width="1" height="1"/>
		<rect x="7" y="13" fill="#010101" width="1" height="1"/>
	</g>
	<g display="inline">
		<rect x="8" y="12" fill="#010101" width="1" height="1"/>
		<rect x="9" y="13" fill="#010101" width="1" height="1"/>
	</g>
	<g display="inline">
		<rect x="10" y="12" fill="#010101" width="1" height="1"/>
		<rect x="11" y="13" fill="#010101" width="1" height="1"/>
	</g>
	<g display="inline">
		<rect x="12" y="12" fill="#010101" width="1" height="1"/>
		<rect x="13" y="13" fill="#010101" width="1" height="1"/>
	</g>
	<g display="inline">
		<rect x="14" y="12" fill="#010101" width="1" height="1"/>
		<rect x="15" y="13" fill="#010101" width="1" height="1"/>
	</g>
	<g display="inline">
		<rect x="16" y="12" fill="#010101" width="1" height="1"/>
		<rect x="17" y="13" fill="#010101" width="1" height="1"/>
	</g>
	<g display="inline">
		<rect x="18" y="12" fill="#010101" width="1" height="1"/>
		<rect x="19" y="13" fill="#010101" width="1" height="1"/>
	</g>
	<g display="inline">
		<rect x="20" y="12" fill="#010101" width="1" height="1"/>
		<rect x="21" y="13" fill="#010101" width="1" height="1"/>
	</g>
	<g display="inline">
		<rect x="22" y="12" fill="#010101" width="1" height="1"/>
		<rect x="23" y="13" fill="#010101" width="1" height="1"/>
	</g>
	<g display="inline">
		<rect x="24" y="12" fill="#010101" width="1" height="1"/>
		<rect x="25" y="13" fill="#010101" width="1" height="1"/>
	</g>
	<g display="inline">
		<rect x="26" y="12" fill="#010101" width="1" height="1"/>
		<rect x="27" y="13" fill="#010101" width="1" height="1"/>
	</g>
	<g display="inline">
		<rect y="14" fill="#010101" width="1" height="1"/>
		<rect x="1" y="15" fill="#010101" width="1" height="1"/>
	</g>
	<g display="inline">
		<rect x="2" y="14" fill="#010101" width="1" height="1"/>
		<rect x="3" y="15" fill="#010101" width="1" height="1"/>
	</g>
	<g display="inline">
		<rect x="4" y="14" fill="#010101" width="1" height="1"/>
		<rect x="5" y="15" fill="#010101" width="1" height="1"/>
	</g>
	<g display="inline">
		<rect x="6" y="14" fill="#010101" width="1" height="1"/>
		<rect x="7" y="15" fill="#010101" width="1" height="1"/>
	</g>
	<g display="inline">
		<rect x="8" y="14" fill="#010101" width="1" height="1"/>
		<rect x="9" y="15" fill="#010101" width="1" height="1"/>
	</g>
	<g display="inline">
		<rect x="10" y="14" fill="#010101" width="1" height="1"/>
		<rect x="11" y="15" fill="#010101" width="1" height="1"/>
	</g>
	<g display="inline">
		<rect x="12" y="14" fill="#010101" width="1" height="1"/>
		<rect x="13" y="15" fill="#010101" width="1" height="1"/>
	</g>
	<g display="inline">
		<rect x="14" y="14" fill="#010101" width="1" height="1"/>
		<rect x="15" y="15" fill="#010101" width="1" height="1"/>
	</g>
	<g display="inline">
		<rect x="16" y="14" fill="#010101" width="1" height="1"/>
		<rect x="17" y="15" fill="#010101" width="1" height="1"/>
	</g>
	<g display="inline">
		<rect x="18" y="14" fill="#010101" width="1" height="1"/>
		<rect x="19" y="15" fill="#010101" width="1" height="1"/>
	</g>
	<g display="inline">
		<rect x="20" y="14" fill="#010101" width="1" height="1"/>
		<rect x="21" y="15" fill="#010101" width="1" height="1"/>
	</g>
	<g display="inline">
		<rect x="22" y="14" fill="#010101" width="1" height="1"/>
		<rect x="23" y="15" fill="#010101" width="1" height="1"/>
	</g>
	<g display="inline">
		<rect x="24" y="14" fill="#010101" width="1" height="1"/>
		<rect x="25" y="15" fill="#010101" width="1" height="1"/>
	</g>
	<g display="inline">
		<rect x="26" y="14" fill="#010101" width="1" height="1"/>
		<rect x="27" y="15" fill="#010101" width="1" height="1"/>
	</g>
	<g display="inline">
		<rect y="16" fill="#010101" width="1" height="1"/>
		<rect x="1" y="17" fill="#010101" width="1" height="1"/>
	</g>
	<g display="inline">
		<rect x="2" y="16" fill="#010101" width="1" height="1"/>
		<rect x="3" y="17" fill="#010101" width="1" height="1"/>
	</g>
	<g display="inline">
		<rect x="4" y="16" fill="#010101" width="1" height="1"/>
		<rect x="5" y="17" fill="#010101" width="1" height="1"/>
	</g>
	<g display="inline">
		<rect x="6" y="16" fill="#010101" width="1" height="1"/>
		<rect x="7" y="17" fill="#010101" width="1" height="1"/>
	</g>
	<g display="inline">
		<rect x="8" y="16" fill="#010101" width="1" height="1"/>
		<rect x="9" y="17" fill="#010101" width="1" height="1"/>
	</g>
	<g display="inline">
		<rect x="10" y="16" fill="#010101" width="1" height="1"/>
		<rect x="11" y="17" fill="#010101" width="1" height="1"/>
	</g>
	<g display="inline">
		<rect x="12" y="16" fill="#010101" width="1" height="1"/>
		<rect x="13" y="17" fill="#010101" width="1" height="1"/>
	</g>
	<g display="inline">
		<rect x="14" y="16" fill="#010101" width="1" height="1"/>
		<rect x="15" y="17" fill="#010101" width="1" height="1"/>
	</g>
	<g display="inline">
		<rect x="16" y="16" fill="#010101" width="1" height="1"/>
		<rect x="17" y="17" fill="#010101" width="1" height="1"/>
	</g>
	<g display="inline">
		<rect x="18" y="16" fill="#010101" width="1" height="1"/>
		<rect x="19" y="17" fill="#010101" width="1" height="1"/>
	</g>
	<g display="inline">
		<rect x="20" y="16" fill="#010101" width="1" height="1"/>
		<rect x="21" y="17" fill="#010101" width="1" height="1"/>
	</g>
	<g display="inline">
		<rect x="22" y="16" fill="#010101" width="1" height="1"/>
		<rect x="23" y="17" fill="#010101" width="1" height="1"/>
	</g>
	<g display="inline">
		<rect x="24" y="16" fill="#010101" width="1" height="1"/>
		<rect x="25" y="17" fill="#010101" width="1" height="1"/>
	</g>
	<g display="inline">
		<rect x="26" y="16" fill="#010101" width="1" height="1"/>
		<rect x="27" y="17" fill="#010101" width="1" height="1"/>
	</g>
	<g display="inline">
		<rect y="18" fill="#010101" width="1" height="1"/>
		<rect x="1" y="19" fill="#010101" width="1" height="1"/>
	</g>
	<g display="inline">
		<rect x="2" y="18" fill="#010101" width="1" height="1"/>
		<rect x="3" y="19" fill="#010101" width="1" height="1"/>
	</g>
	<g display="inline">
		<rect x="4" y="18" fill="#010101" width="1" height="1"/>
		<rect x="5" y="19" fill="#010101" width="1" height="1"/>
	</g>
	<g display="inline">
		<rect x="6" y="18" fill="#010101" width="1" height="1"/>
		<rect x="7" y="19" fill="#010101" width="1" height="1"/>
	</g>
	<g display="inline">
		<rect x="8" y="18" fill="#010101" width="1" height="1"/>
		<rect x="9" y="19" fill="#010101" width="1" height="1"/>
	</g>
	<g display="inline">
		<rect x="10" y="18" fill="#010101" width="1" height="1"/>
		<rect x="11" y="19" fill="#010101" width="1" height="1"/>
	</g>
	<g display="inline">
		<rect x="12" y="18" fill="#010101" width="1" height="1"/>
		<rect x="13" y="19" fill="#010101" width="1" height="1"/>
	</g>
	<g display="inline">
		<rect x="14" y="18" fill="#010101" width="1" height="1"/>
		<rect x="15" y="19" fill="#010101" width="1" height="1"/>
	</g>
	<g display="inline">
		<rect x="16" y="18" fill="#010101" width="1" height="1"/>
		<rect x="17" y="19" fill="#010101" width="1" height="1"/>
	</g>
	<g display="inline">
		<rect x="18" y="18" fill="#010101" width="1" height="1"/>
		<rect x="19" y="19" fill="#010101" width="1" height="1"/>
	</g>
	<g display="inline">
		<rect x="20" y="18" fill="#010101" width="1" height="1"/>
		<rect x="21" y="19" fill="#010101" width="1" height="1"/>
	</g>
	<g display="inline">
		<rect x="22" y="18" fill="#010101" width="1" height="1"/>
		<rect x="23" y="19" fill="#010101" width="1" height="1"/>
	</g>
	<g display="inline">
		<rect x="24" y="18" fill="#010101" width="1" height="1"/>
		<rect x="25" y="19" fill="#010101" width="1" height="1"/>
	</g>
	<g display="inline">
		<rect x="26" y="18" fill="#010101" width="1" height="1"/>
		<rect x="27" y="19" fill="#010101" width="1" height="1"/>
	</g>
	<g display="inline">
		<rect y="20" fill="#010101" width="1" height="1"/>
		<rect x="1" y="21" fill="#010101" width="1" height="1"/>
	</g>
	<g display="inline">
		<rect x="2" y="20" fill="#010101" width="1" height="1"/>
		<rect x="3" y="21" fill="#010101" width="1" height="1"/>
	</g>
	<g display="inline">
		<rect x="4" y="20" fill="#010101" width="1" height="1"/>
		<rect x="5" y="21" fill="#010101" width="1" height="1"/>
	</g>
	<g display="inline">
		<rect x="6" y="20" fill="#010101" width="1" height="1"/>
		<rect x="7" y="21" fill="#010101" width="1" height="1"/>
	</g>
	<g display="inline">
		<rect x="8" y="20" fill="#010101" width="1" height="1"/>
		<rect x="9" y="21" fill="#010101" width="1" height="1"/>
	</g>
	<g display="inline">
		<rect x="10" y="20" fill="#010101" width="1" height="1"/>
		<rect x="11" y="21" fill="#010101" width="1" height="1"/>
	</g>
	<g display="inline">
		<rect x="12" y="20" fill="#010101" width="1" height="1"/>
		<rect x="13" y="21" fill="#010101" width="1" height="1"/>
	</g>
	<g display="inline">
		<rect x="14" y="20" fill="#010101" width="1" height="1"/>
		<rect x="15" y="21" fill="#010101" width="1" height="1"/>
	</g>
	<g display="inline">
		<rect x="16" y="20" fill="#010101" width="1" height="1"/>
		<rect x="17" y="21" fill="#010101" width="1" height="1"/>
	</g>
	<g display="inline">
		<rect x="18" y="20" fill="#010101" width="1" height="1"/>
		<rect x="19" y="21" fill="#010101" width="1" height="1"/>
	</g>
	<g display="inline">
		<rect x="20" y="20" fill="#010101" width="1" height="1"/>
		<rect x="21" y="21" fill="#010101" width="1" height="1"/>
	</g>
	<g display="inline">
		<rect x="22" y="20" fill="#010101" width="1" height="1"/>
		<rect x="23" y="21" fill="#010101" width="1" height="1"/>
	</g>
	<g display="inline">
		<rect x="24" y="20" fill="#010101" width="1" height="1"/>
		<rect x="25" y="21" fill="#010101" width="1" height="1"/>
	</g>
	<g display="inline">
		<rect x="26" y="20" fill="#010101" width="1" height="1"/>
		<rect x="27" y="21" fill="#010101" width="1" height="1"/>
	</g>
	<g display="inline">
		<rect y="22" fill="#010101" width="1" height="1"/>
		<rect x="1" y="23" fill="#010101" width="1" height="1"/>
	</g>
	<g display="inline">
		<rect x="2" y="22" fill="#010101" width="1" height="1"/>
		<rect x="3" y="23" fill="#010101" width="1" height="1"/>
	</g>
	<g display="inline">
		<rect x="4" y="22" fill="#010101" width="1" height="1"/>
		<rect x="5" y="23" fill="#010101" width="1" height="1"/>
	</g>
	<g display="inline">
		<rect x="6" y="22" fill="#010101" width="1" height="1"/>
		<rect x="7" y="23" fill="#010101" width="1" height="1"/>
	</g>
	<g display="inline">
		<rect x="8" y="22" fill="#010101" width="1" height="1"/>
		<rect x="9" y="23" fill="#010101" width="1" height="1"/>
	</g>
	<g display="inline">
		<rect x="10" y="22" fill="#010101" width="1" height="1"/>
		<rect x="11" y="23" fill="#010101" width="1" height="1"/>
	</g>
	<g display="inline">
		<rect x="12" y="22" fill="#010101" width="1" height="1"/>
		<rect x="13" y="23" fill="#010101" width="1" height="1"/>
	</g>
	<g display="inline">
		<rect x="14" y="22" fill="#010101" width="1" height="1"/>
		<rect x="15" y="23" fill="#010101" width="1" height="1"/>
	</g>
	<g display="inline">
		<rect x="16" y="22" fill="#010101" width="1" height="1"/>
		<rect x="17" y="23" fill="#010101" width="1" height="1"/>
	</g>
	<g display="inline">
		<rect x="18" y="22" fill="#010101" width="1" height="1"/>
		<rect x="19" y="23" fill="#010101" width="1" height="1"/>
	</g>
	<g display="inline">
		<rect x="20" y="22" fill="#010101" width="1" height="1"/>
		<rect x="21" y="23" fill="#010101" width="1" height="1"/>
	</g>
	<g display="inline">
		<rect x="22" y="22" fill="#010101" width="1" height="1"/>
		<rect x="23" y="23" fill="#010101" width="1" height="1"/>
	</g>
	<g display="inline">
		<rect x="24" y="22" fill="#010101" width="1" height="1"/>
		<rect x="25" y="23" fill="#010101" width="1" height="1"/>
	</g>
	<g display="inline">
		<rect x="26" y="22" fill="#010101" width="1" height="1"/>
		<rect x="27" y="23" fill="#010101" width="1" height="1"/>
	</g>
	<g display="inline">
		<rect y="24" fill="#010101" width="1" height="1"/>
		<rect x="1" y="25" fill="#010101" width="1" height="1"/>
	</g>
	<g display="inline">
		<rect x="2" y="24" fill="#010101" width="1" height="1"/>
		<rect x="3" y="25" fill="#010101" width="1" height="1"/>
	</g>
	<g display="inline">
		<rect x="4" y="24" fill="#010101" width="1" height="1"/>
		<rect x="5" y="25" fill="#010101" width="1" height="1"/>
	</g>
	<g display="inline">
		<rect x="6" y="24" fill="#010101" width="1" height="1"/>
		<rect x="7" y="25" fill="#010101" width="1" height="1"/>
	</g>
	<g display="inline">
		<rect x="8" y="24" fill="#010101" width="1" height="1"/>
		<rect x="9" y="25" fill="#010101" width="1" height="1"/>
	</g>
	<g display="inline">
		<rect x="10" y="24" fill="#010101" width="1" height="1"/>
		<rect x="11" y="25" fill="#010101" width="1" height="1"/>
	</g>
	<g display="inline">
		<rect x="12" y="24" fill="#010101" width="1" height="1"/>
		<rect x="13" y="25" fill="#010101" width="1" height="1"/>
	</g>
	<g display="inline">
		<rect x="14" y="24" fill="#010101" width="1" height="1"/>
		<rect x="15" y="25" fill="#010101" width="1" height="1"/>
	</g>
	<g display="inline">
		<rect x="16" y="24" fill="#010101" width="1" height="1"/>
		<rect x="17" y="25" fill="#010101" width="1" height="1"/>
	</g>
	<g display="inline">
		<rect x="18" y="24" fill="#010101" width="1" height="1"/>
		<rect x="19" y="25" fill="#010101" width="1" height="1"/>
	</g>
	<g display="inline">
		<rect x="20" y="24" fill="#010101" width="1" height="1"/>
		<rect x="21" y="25" fill="#010101" width="1" height="1"/>
	</g>
	<g display="inline">
		<rect x="22" y="24" fill="#010101" width="1" height="1"/>
		<rect x="23" y="25" fill="#010101" width="1" height="1"/>
	</g>
	<g display="inline">
		<rect x="24" y="24" fill="#010101" width="1" height="1"/>
		<rect x="25" y="25" fill="#010101" width="1" height="1"/>
	</g>
	<g display="inline">
		<rect x="26" y="24" fill="#010101" width="1" height="1"/>
		<rect x="27" y="25" fill="#010101" width="1" height="1"/>
	</g>
	<g display="inline">
		<rect y="26" fill="#010101" width="1" height="1"/>
		<rect x="1" y="27" fill="#010101" width="1" height="1"/>
	</g>
	<g display="inline">
		<rect x="2" y="26" fill="#010101" width="1" height="1"/>
		<rect x="3" y="27" fill="#010101" width="1" height="1"/>
	</g>
	<g display="inline">
		<rect x="4" y="26" fill="#010101" width="1" height="1"/>
		<rect x="5" y="27" fill="#010101" width="1" height="1"/>
	</g>
	<g display="inline">
		<rect x="6" y="26" fill="#010101" width="1" height="1"/>
		<rect x="7" y="27" fill="#010101" width="1" height="1"/>
	</g>
	<g display="inline">
		<rect x="8" y="26" fill="#010101" width="1" height="1"/>
		<rect x="9" y="27" fill="#010101" width="1" height="1"/>
	</g>
	<g display="inline">
		<rect x="10" y="26" fill="#010101" width="1" height="1"/>
		<rect x="11" y="27" fill="#010101" width="1" height="1"/>
	</g>
	<g display="inline">
		<rect x="12" y="26" fill="#010101" width="1" height="1"/>
		<rect x="13" y="27" fill="#010101" width="1" height="1"/>
	</g>
	<g display="inline">
		<rect x="14" y="26" fill="#010101" width="1" height="1"/>
		<rect x="15" y="27" fill="#010101" width="1" height="1"/>
	</g>
	<g display="inline">
		<rect x="16" y="26" fill="#010101" width="1" height="1"/>
		<rect x="17" y="27" fill="#010101" width="1" height="1"/>
	</g>
	<g display="inline">
		<rect x="18" y="26" fill="#010101" width="1" height="1"/>
		<rect x="19" y="27" fill="#010101" width="1" height="1"/>
	</g>
	<g display="inline">
		<rect x="20" y="26" fill="#010101" width="1" height="1"/>
		<rect x="21" y="27" fill="#010101" width="1" height="1"/>
	</g>
	<g display="inline">
		<rect x="22" y="26" fill="#010101" width="1" height="1"/>
		<rect x="23" y="27" fill="#010101" width="1" height="1"/>
	</g>
	<g display="inline">
		<rect x="24" y="26" fill="#010101" width="1" height="1"/>
		<rect x="25" y="27" fill="#010101" width="1" height="1"/>
	</g>
	<g display="inline">
		<rect x="26" y="26" fill="#010101" width="1" height="1"/>
		<rect x="27" y="27" fill="#010101" width="1" height="1"/>
	</g>
</g>
<rect display="none" opacity="0.1" fill="#010101" width="28" height="28"/>
<g transform="translate(0,-952.36218)">
	<path fill="#010101" d="M13.993,955.414c-0.204,0.009-0.406,0.084-0.61,0.212l-12.605,9.946c-0.321,0.32-0.546,1.016-0.214,1.442
		c0.332,0.418,1.037,0.482,1.442,0.12l11.987-9.454l11.986,9.454c0.422,0.362,1.132,0.31,1.454-0.12
		c0.276-0.385,0.211-1.122-0.22-1.442l-12.602-9.946C14.399,955.477,14.196,955.413,13.993,955.414z M6.038,965.123l-1.99,1.583
		v9.601c0,0.556,0.44,1.004,0.996,1.004h6.298c0.554,0,0.995-0.448,0.995-1.004v-3.978c0-0.94,0.727-1.668,1.657-1.668
		c0.941,0,1.668,0.728,1.668,1.668v3.978c0,0.556,0.439,1.004,0.984,1.004h6.312c0.543,0,0.989-0.448,0.989-1.004v-9.601
		l-1.986-1.583v10.194h-4.309v-2.988c0-2.009-1.647-3.644-3.658-3.644c-2,0-3.646,1.635-3.646,3.644v2.988H6.038V965.123z"/>
</g>
</svg>
