<?xml version="1.0" encoding="utf-8"?>
<!-- Generator: Adobe Illustrator 16.0.0, SVG Export Plug-In . SVG Version: 6.00 Build 0)  -->
<!DOCTYPE svg PUBLIC "-//W3C//DTD SVG 1.1//EN" "http://www.w3.org/Graphics/SVG/1.1/DTD/svg11.dtd">
<svg version="1.1" id="레이어_1" xmlns="http://www.w3.org/2000/svg" xmlns:xlink="http://www.w3.org/1999/xlink" x="0px"
	 y="0px" width="28px" height="28px" viewBox="0 0 28 28" enable-background="new 0 0 28 28" xml:space="preserve">
<g display="none" opacity="0.2">
	<g display="inline">
		<rect fill="#010101" width="1" height="1"/>
		<rect x="1" y="1" fill="#010101" width="1" height="1"/>
	</g>
	<g display="inline">
		<rect x="2" fill="#010101" width="1" height="1"/>
		<rect x="3" y="1" fill="#010101" width="1" height="1"/>
	</g>
	<g display="inline">
		<rect x="4" fill="#010101" width="1" height="1"/>
		<rect x="5" y="1" fill="#010101" width="1" height="1"/>
	</g>
	<g display="inline">
		<rect x="6" fill="#010101" width="1" height="1"/>
		<rect x="7" y="1" fill="#010101" width="1" height="1"/>
	</g>
	<g display="inline">
		<rect x="8" fill="#010101" width="1" height="1"/>
		<rect x="9" y="1" fill="#010101" width="1" height="1"/>
	</g>
	<g display="inline">
		<rect x="10" fill="#010101" width="1" height="1"/>
		<rect x="11" y="1" fill="#010101" width="1" height="1"/>
	</g>
	<g display="inline">
		<rect x="12" fill="#010101" width="1" height="1"/>
		<rect x="13" y="1" fill="#010101" width="1" height="1"/>
	</g>
	<g display="inline">
		<rect x="14" fill="#010101" width="1" height="1"/>
		<rect x="15" y="1" fill="#010101" width="1" height="1"/>
	</g>
	<g display="inline">
		<rect x="16" fill="#010101" width="1" height="1"/>
		<rect x="17" y="1" fill="#010101" width="1" height="1"/>
	</g>
	<g display="inline">
		<rect x="18" fill="#010101" width="1" height="1"/>
		<rect x="19" y="1" fill="#010101" width="1" height="1"/>
	</g>
	<g display="inline">
		<rect x="20" fill="#010101" width="1" height="1"/>
		<rect x="21" y="1" fill="#010101" width="1" height="1"/>
	</g>
	<g display="inline">
		<rect x="22" fill="#010101" width="1" height="1"/>
		<rect x="23" y="1" fill="#010101" width="1" height="1"/>
	</g>
	<g display="inline">
		<rect x="24" fill="#010101" width="1" height="1"/>
		<rect x="25" y="1" fill="#010101" width="1" height="1"/>
	</g>
	<g display="inline">
		<rect x="26" fill="#010101" width="1" height="1"/>
		<rect x="27" y="1" fill="#010101" width="1" height="1"/>
	</g>
	<g display="inline">
		<rect y="2" fill="#010101" width="1" height="1"/>
		<rect x="1" y="3" fill="#010101" width="1" height="1"/>
	</g>
	<g display="inline">
		<rect x="2" y="2" fill="#010101" width="1" height="1"/>
		<rect x="3" y="3" fill="#010101" width="1" height="1"/>
	</g>
	<g display="inline">
		<rect x="4" y="2" fill="#010101" width="1" height="1"/>
		<rect x="5" y="3" fill="#010101" width="1" height="1"/>
	</g>
	<g display="inline">
		<rect x="6" y="2" fill="#010101" width="1" height="1"/>
		<rect x="7" y="3" fill="#010101" width="1" height="1"/>
	</g>
	<g display="inline">
		<rect x="8" y="2" fill="#010101" width="1" height="1"/>
		<rect x="9" y="3" fill="#010101" width="1" height="1"/>
	</g>
	<g display="inline">
		<rect x="10" y="2" fill="#010101" width="1" height="1"/>
		<rect x="11" y="3" fill="#010101" width="1" height="1"/>
	</g>
	<g display="inline">
		<rect x="12" y="2" fill="#010101" width="1" height="1"/>
		<rect x="13" y="3" fill="#010101" width="1" height="1"/>
	</g>
	<g display="inline">
		<rect x="14" y="2" fill="#010101" width="1" height="1"/>
		<rect x="15" y="3" fill="#010101" width="1" height="1"/>
	</g>
	<g display="inline">
		<rect x="16" y="2" fill="#010101" width="1" height="1"/>
		<rect x="17" y="3" fill="#010101" width="1" height="1"/>
	</g>
	<g display="inline">
		<rect x="18" y="2" fill="#010101" width="1" height="1"/>
		<rect x="19" y="3" fill="#010101" width="1" height="1"/>
	</g>
	<g display="inline">
		<rect x="20" y="2" fill="#010101" width="1" height="1"/>
		<rect x="21" y="3" fill="#010101" width="1" height="1"/>
	</g>
	<g display="inline">
		<rect x="22" y="2" fill="#010101" width="1" height="1"/>
		<rect x="23" y="3" fill="#010101" width="1" height="1"/>
	</g>
	<g display="inline">
		<rect x="24" y="2" fill="#010101" width="1" height="1"/>
		<rect x="25" y="3" fill="#010101" width="1" height="1"/>
	</g>
	<g display="inline">
		<rect x="26" y="2" fill="#010101" width="1" height="1"/>
		<rect x="27" y="3" fill="#010101" width="1" height="1"/>
	</g>
	<g display="inline">
		<rect y="4" fill="#010101" width="1" height="1"/>
		<rect x="1" y="5" fill="#010101" width="1" height="1"/>
	</g>
	<g display="inline">
		<rect x="2" y="4" fill="#010101" width="1" height="1"/>
		<rect x="3" y="5" fill="#010101" width="1" height="1"/>
	</g>
	<g display="inline">
		<rect x="4" y="4" fill="#010101" width="1" height="1"/>
		<rect x="5" y="5" fill="#010101" width="1" height="1"/>
	</g>
	<g display="inline">
		<rect x="6" y="4" fill="#010101" width="1" height="1"/>
		<rect x="7" y="5" fill="#010101" width="1" height="1"/>
	</g>
	<g display="inline">
		<rect x="8" y="4" fill="#010101" width="1" height="1"/>
		<rect x="9" y="5" fill="#010101" width="1" height="1"/>
	</g>
	<g display="inline">
		<rect x="10" y="4" fill="#010101" width="1" height="1"/>
		<rect x="11" y="5" fill="#010101" width="1" height="1"/>
	</g>
	<g display="inline">
		<rect x="12" y="4" fill="#010101" width="1" height="1"/>
		<rect x="13" y="5" fill="#010101" width="1" height="1"/>
	</g>
	<g display="inline">
		<rect x="14" y="4" fill="#010101" width="1" height="1"/>
		<rect x="15" y="5" fill="#010101" width="1" height="1"/>
	</g>
	<g display="inline">
		<rect x="16" y="4" fill="#010101" width="1" height="1"/>
		<rect x="17" y="5" fill="#010101" width="1" height="1"/>
	</g>
	<g display="inline">
		<rect x="18" y="4" fill="#010101" width="1" height="1"/>
		<rect x="19" y="5" fill="#010101" width="1" height="1"/>
	</g>
	<g display="inline">
		<rect x="20" y="4" fill="#010101" width="1" height="1"/>
		<rect x="21" y="5" fill="#010101" width="1" height="1"/>
	</g>
	<g display="inline">
		<rect x="22" y="4" fill="#010101" width="1" height="1"/>
		<rect x="23" y="5" fill="#010101" width="1" height="1"/>
	</g>
	<g display="inline">
		<rect x="24" y="4" fill="#010101" width="1" height="1"/>
		<rect x="25" y="5" fill="#010101" width="1" height="1"/>
	</g>
	<g display="inline">
		<rect x="26" y="4" fill="#010101" width="1" height="1"/>
		<rect x="27" y="5" fill="#010101" width="1" height="1"/>
	</g>
	<g display="inline">
		<rect y="6" fill="#010101" width="1" height="1"/>
		<rect x="1" y="7" fill="#010101" width="1" height="1"/>
	</g>
	<g display="inline">
		<rect x="2" y="6" fill="#010101" width="1" height="1"/>
		<rect x="3" y="7" fill="#010101" width="1" height="1"/>
	</g>
	<g display="inline">
		<rect x="4" y="6" fill="#010101" width="1" height="1"/>
		<rect x="5" y="7" fill="#010101" width="1" height="1"/>
	</g>
	<g display="inline">
		<rect x="6" y="6" fill="#010101" width="1" height="1"/>
		<rect x="7" y="7" fill="#010101" width="1" height="1"/>
	</g>
	<g display="inline">
		<rect x="8" y="6" fill="#010101" width="1" height="1"/>
		<rect x="9" y="7" fill="#010101" width="1" height="1"/>
	</g>
	<g display="inline">
		<rect x="10" y="6" fill="#010101" width="1" height="1"/>
		<rect x="11" y="7" fill="#010101" width="1" height="1"/>
	</g>
	<g display="inline">
		<rect x="12" y="6" fill="#010101" width="1" height="1"/>
		<rect x="13" y="7" fill="#010101" width="1" height="1"/>
	</g>
	<g display="inline">
		<rect x="14" y="6" fill="#010101" width="1" height="1"/>
		<rect x="15" y="7" fill="#010101" width="1" height="1"/>
	</g>
	<g display="inline">
		<rect x="16" y="6" fill="#010101" width="1" height="1"/>
		<rect x="17" y="7" fill="#010101" width="1" height="1"/>
	</g>
	<g display="inline">
		<rect x="18" y="6" fill="#010101" width="1" height="1"/>
		<rect x="19" y="7" fill="#010101" width="1" height="1"/>
	</g>
	<g display="inline">
		<rect x="20" y="6" fill="#010101" width="1" height="1"/>
		<rect x="21" y="7" fill="#010101" width="1" height="1"/>
	</g>
	<g display="inline">
		<rect x="22" y="6" fill="#010101" width="1" height="1"/>
		<rect x="23" y="7" fill="#010101" width="1" height="1"/>
	</g>
	<g display="inline">
		<rect x="24" y="6" fill="#010101" width="1" height="1"/>
		<rect x="25" y="7" fill="#010101" width="1" height="1"/>
	</g>
	<g display="inline">
		<rect x="26" y="6" fill="#010101" width="1" height="1"/>
		<rect x="27" y="7" fill="#010101" width="1" height="1"/>
	</g>
	<g display="inline">
		<rect y="8" fill="#010101" width="1" height="1"/>
		<rect x="1" y="9" fill="#010101" width="1" height="1"/>
	</g>
	<g display="inline">
		<rect x="2" y="8" fill="#010101" width="1" height="1"/>
		<rect x="3" y="9" fill="#010101" width="1" height="1"/>
	</g>
	<g display="inline">
		<rect x="4" y="8" fill="#010101" width="1" height="1"/>
		<rect x="5" y="9" fill="#010101" width="1" height="1"/>
	</g>
	<g display="inline">
		<rect x="6" y="8" fill="#010101" width="1" height="1"/>
		<rect x="7" y="9" fill="#010101" width="1" height="1"/>
	</g>
	<g display="inline">
		<rect x="8" y="8" fill="#010101" width="1" height="1"/>
		<rect x="9" y="9" fill="#010101" width="1" height="1"/>
	</g>
	<g display="inline">
		<rect x="10" y="8" fill="#010101" width="1" height="1"/>
		<rect x="11" y="9" fill="#010101" width="1" height="1"/>
	</g>
	<g display="inline">
		<rect x="12" y="8" fill="#010101" width="1" height="1"/>
		<rect x="13" y="9" fill="#010101" width="1" height="1"/>
	</g>
	<g display="inline">
		<rect x="14" y="8" fill="#010101" width="1" height="1"/>
		<rect x="15" y="9" fill="#010101" width="1" height="1"/>
	</g>
	<g display="inline">
		<rect x="16" y="8" fill="#010101" width="1" height="1"/>
		<rect x="17" y="9" fill="#010101" width="1" height="1"/>
	</g>
	<g display="inline">
		<rect x="18" y="8" fill="#010101" width="1" height="1"/>
		<rect x="19" y="9" fill="#010101" width="1" height="1"/>
	</g>
	<g display="inline">
		<rect x="20" y="8" fill="#010101" width="1" height="1"/>
		<rect x="21" y="9" fill="#010101" width="1" height="1"/>
	</g>
	<g display="inline">
		<rect x="22" y="8" fill="#010101" width="1" height="1"/>
		<rect x="23" y="9" fill="#010101" width="1" height="1"/>
	</g>
	<g display="inline">
		<rect x="24" y="8" fill="#010101" width="1" height="1"/>
		<rect x="25" y="9" fill="#010101" width="1" height="1"/>
	</g>
	<g display="inline">
		<rect x="26" y="8" fill="#010101" width="1" height="1"/>
		<rect x="27" y="9" fill="#010101" width="1" height="1"/>
	</g>
	<g display="inline">
		<rect y="10" fill="#010101" width="1" height="1"/>
		<rect x="1" y="11" fill="#010101" width="1" height="1"/>
	</g>
	<g display="inline">
		<rect x="2" y="10" fill="#010101" width="1" height="1"/>
		<rect x="3" y="11" fill="#010101" width="1" height="1"/>
	</g>
	<g display="inline">
		<rect x="4" y="10" fill="#010101" width="1" height="1"/>
		<rect x="5" y="11" fill="#010101" width="1" height="1"/>
	</g>
	<g display="inline">
		<rect x="6" y="10" fill="#010101" width="1" height="1"/>
		<rect x="7" y="11" fill="#010101" width="1" height="1"/>
	</g>
	<g display="inline">
		<rect x="8" y="10" fill="#010101" width="1" height="1"/>
		<rect x="9" y="11" fill="#010101" width="1" height="1"/>
	</g>
	<g display="inline">
		<rect x="10" y="10" fill="#010101" width="1" height="1"/>
		<rect x="11" y="11" fill="#010101" width="1" height="1"/>
	</g>
	<g display="inline">
		<rect x="12" y="10" fill="#010101" width="1" height="1"/>
		<rect x="13" y="11" fill="#010101" width="1" height="1"/>
	</g>
	<g display="inline">
		<rect x="14" y="10" fill="#010101" width="1" height="1"/>
		<rect x="15" y="11" fill="#010101" width="1" height="1"/>
	</g>
	<g display="inline">
		<rect x="16" y="10" fill="#010101" width="1" height="1"/>
		<rect x="17" y="11" fill="#010101" width="1" height="1"/>
	</g>
	<g display="inline">
		<rect x="18" y="10" fill="#010101" width="1" height="1"/>
		<rect x="19" y="11" fill="#010101" width="1" height="1"/>
	</g>
	<g display="inline">
		<rect x="20" y="10" fill="#010101" width="1" height="1"/>
		<rect x="21" y="11" fill="#010101" width="1" height="1"/>
	</g>
	<g display="inline">
		<rect x="22" y="10" fill="#010101" width="1" height="1"/>
		<rect x="23" y="11" fill="#010101" width="1" height="1"/>
	</g>
	<g display="inline">
		<rect x="24" y="10" fill="#010101" width="1" height="1"/>
		<rect x="25" y="11" fill="#010101" width="1" height="1"/>
	</g>
	<g display="inline">
		<rect x="26" y="10" fill="#010101" width="1" height="1"/>
		<rect x="27" y="11" fill="#010101" width="1" height="1"/>
	</g>
	<g display="inline">
		<rect y="12" fill="#010101" width="1" height="1"/>
		<rect x="1" y="13" fill="#010101" width="1" height="1"/>
	</g>
	<g display="inline">
		<rect x="2" y="12" fill="#010101" width="1" height="1"/>
		<rect x="3" y="13" fill="#010101" width="1" height="1"/>
	</g>
	<g display="inline">
		<rect x="4" y="12" fill="#010101" width="1" height="1"/>
		<rect x="5" y="13" fill="#010101" width="1" height="1"/>
	</g>
	<g display="inline">
		<rect x="6" y="12" fill="#010101" width="1" height="1"/>
		<rect x="7" y="13" fill="#010101" width="1" height="1"/>
	</g>
	<g display="inline">
		<rect x="8" y="12" fill="#010101" width="1" height="1"/>
		<rect x="9" y="13" fill="#010101" width="1" height="1"/>
	</g>
	<g display="inline">
		<rect x="10" y="12" fill="#010101" width="1" height="1"/>
		<rect x="11" y="13" fill="#010101" width="1" height="1"/>
	</g>
	<g display="inline">
		<rect x="12" y="12" fill="#010101" width="1" height="1"/>
		<rect x="13" y="13" fill="#010101" width="1" height="1"/>
	</g>
	<g display="inline">
		<rect x="14" y="12" fill="#010101" width="1" height="1"/>
		<rect x="15" y="13" fill="#010101" width="1" height="1"/>
	</g>
	<g display="inline">
		<rect x="16" y="12" fill="#010101" width="1" height="1"/>
		<rect x="17" y="13" fill="#010101" width="1" height="1"/>
	</g>
	<g display="inline">
		<rect x="18" y="12" fill="#010101" width="1" height="1"/>
		<rect x="19" y="13" fill="#010101" width="1" height="1"/>
	</g>
	<g display="inline">
		<rect x="20" y="12" fill="#010101" width="1" height="1"/>
		<rect x="21" y="13" fill="#010101" width="1" height="1"/>
	</g>
	<g display="inline">
		<rect x="22" y="12" fill="#010101" width="1" height="1"/>
		<rect x="23" y="13" fill="#010101" width="1" height="1"/>
	</g>
	<g display="inline">
		<rect x="24" y="12" fill="#010101" width="1" height="1"/>
		<rect x="25" y="13" fill="#010101" width="1" height="1"/>
	</g>
	<g display="inline">
		<rect x="26" y="12" fill="#010101" width="1" height="1"/>
		<rect x="27" y="13" fill="#010101" width="1" height="1"/>
	</g>
	<g display="inline">
		<rect y="14" fill="#010101" width="1" height="1"/>
		<rect x="1" y="15" fill="#010101" width="1" height="1"/>
	</g>
	<g display="inline">
		<rect x="2" y="14" fill="#010101" width="1" height="1"/>
		<rect x="3" y="15" fill="#010101" width="1" height="1"/>
	</g>
	<g display="inline">
		<rect x="4" y="14" fill="#010101" width="1" height="1"/>
		<rect x="5" y="15" fill="#010101" width="1" height="1"/>
	</g>
	<g display="inline">
		<rect x="6" y="14" fill="#010101" width="1" height="1"/>
		<rect x="7" y="15" fill="#010101" width="1" height="1"/>
	</g>
	<g display="inline">
		<rect x="8" y="14" fill="#010101" width="1" height="1"/>
		<rect x="9" y="15" fill="#010101" width="1" height="1"/>
	</g>
	<g display="inline">
		<rect x="10" y="14" fill="#010101" width="1" height="1"/>
		<rect x="11" y="15" fill="#010101" width="1" height="1"/>
	</g>
	<g display="inline">
		<rect x="12" y="14" fill="#010101" width="1" height="1"/>
		<rect x="13" y="15" fill="#010101" width="1" height="1"/>
	</g>
	<g display="inline">
		<rect x="14" y="14" fill="#010101" width="1" height="1"/>
		<rect x="15" y="15" fill="#010101" width="1" height="1"/>
	</g>
	<g display="inline">
		<rect x="16" y="14" fill="#010101" width="1" height="1"/>
		<rect x="17" y="15" fill="#010101" width="1" height="1"/>
	</g>
	<g display="inline">
		<rect x="18" y="14" fill="#010101" width="1" height="1"/>
		<rect x="19" y="15" fill="#010101" width="1" height="1"/>
	</g>
	<g display="inline">
		<rect x="20" y="14" fill="#010101" width="1" height="1"/>
		<rect x="21" y="15" fill="#010101" width="1" height="1"/>
	</g>
	<g display="inline">
		<rect x="22" y="14" fill="#010101" width="1" height="1"/>
		<rect x="23" y="15" fill="#010101" width="1" height="1"/>
	</g>
	<g display="inline">
		<rect x="24" y="14" fill="#010101" width="1" height="1"/>
		<rect x="25" y="15" fill="#010101" width="1" height="1"/>
	</g>
	<g display="inline">
		<rect x="26" y="14" fill="#010101" width="1" height="1"/>
		<rect x="27" y="15" fill="#010101" width="1" height="1"/>
	</g>
	<g display="inline">
		<rect y="16" fill="#010101" width="1" height="1"/>
		<rect x="1" y="17" fill="#010101" width="1" height="1"/>
	</g>
	<g display="inline">
		<rect x="2" y="16" fill="#010101" width="1" height="1"/>
		<rect x="3" y="17" fill="#010101" width="1" height="1"/>
	</g>
	<g display="inline">
		<rect x="4" y="16" fill="#010101" width="1" height="1"/>
		<rect x="5" y="17" fill="#010101" width="1" height="1"/>
	</g>
	<g display="inline">
		<rect x="6" y="16" fill="#010101" width="1" height="1"/>
		<rect x="7" y="17" fill="#010101" width="1" height="1"/>
	</g>
	<g display="inline">
		<rect x="8" y="16" fill="#010101" width="1" height="1"/>
		<rect x="9" y="17" fill="#010101" width="1" height="1"/>
	</g>
	<g display="inline">
		<rect x="10" y="16" fill="#010101" width="1" height="1"/>
		<rect x="11" y="17" fill="#010101" width="1" height="1"/>
	</g>
	<g display="inline">
		<rect x="12" y="16" fill="#010101" width="1" height="1"/>
		<rect x="13" y="17" fill="#010101" width="1" height="1"/>
	</g>
	<g display="inline">
		<rect x="14" y="16" fill="#010101" width="1" height="1"/>
		<rect x="15" y="17" fill="#010101" width="1" height="1"/>
	</g>
	<g display="inline">
		<rect x="16" y="16" fill="#010101" width="1" height="1"/>
		<rect x="17" y="17" fill="#010101" width="1" height="1"/>
	</g>
	<g display="inline">
		<rect x="18" y="16" fill="#010101" width="1" height="1"/>
		<rect x="19" y="17" fill="#010101" width="1" height="1"/>
	</g>
	<g display="inline">
		<rect x="20" y="16" fill="#010101" width="1" height="1"/>
		<rect x="21" y="17" fill="#010101" width="1" height="1"/>
	</g>
	<g display="inline">
		<rect x="22" y="16" fill="#010101" width="1" height="1"/>
		<rect x="23" y="17" fill="#010101" width="1" height="1"/>
	</g>
	<g display="inline">
		<rect x="24" y="16" fill="#010101" width="1" height="1"/>
		<rect x="25" y="17" fill="#010101" width="1" height="1"/>
	</g>
	<g display="inline">
		<rect x="26" y="16" fill="#010101" width="1" height="1"/>
		<rect x="27" y="17" fill="#010101" width="1" height="1"/>
	</g>
	<g display="inline">
		<rect y="18" fill="#010101" width="1" height="1"/>
		<rect x="1" y="19" fill="#010101" width="1" height="1"/>
	</g>
	<g display="inline">
		<rect x="2" y="18" fill="#010101" width="1" height="1"/>
		<rect x="3" y="19" fill="#010101" width="1" height="1"/>
	</g>
	<g display="inline">
		<rect x="4" y="18" fill="#010101" width="1" height="1"/>
		<rect x="5" y="19" fill="#010101" width="1" height="1"/>
	</g>
	<g display="inline">
		<rect x="6" y="18" fill="#010101" width="1" height="1"/>
		<rect x="7" y="19" fill="#010101" width="1" height="1"/>
	</g>
	<g display="inline">
		<rect x="8" y="18" fill="#010101" width="1" height="1"/>
		<rect x="9" y="19" fill="#010101" width="1" height="1"/>
	</g>
	<g display="inline">
		<rect x="10" y="18" fill="#010101" width="1" height="1"/>
		<rect x="11" y="19" fill="#010101" width="1" height="1"/>
	</g>
	<g display="inline">
		<rect x="12" y="18" fill="#010101" width="1" height="1"/>
		<rect x="13" y="19" fill="#010101" width="1" height="1"/>
	</g>
	<g display="inline">
		<rect x="14" y="18" fill="#010101" width="1" height="1"/>
		<rect x="15" y="19" fill="#010101" width="1" height="1"/>
	</g>
	<g display="inline">
		<rect x="16" y="18" fill="#010101" width="1" height="1"/>
		<rect x="17" y="19" fill="#010101" width="1" height="1"/>
	</g>
	<g display="inline">
		<rect x="18" y="18" fill="#010101" width="1" height="1"/>
		<rect x="19" y="19" fill="#010101" width="1" height="1"/>
	</g>
	<g display="inline">
		<rect x="20" y="18" fill="#010101" width="1" height="1"/>
		<rect x="21" y="19" fill="#010101" width="1" height="1"/>
	</g>
	<g display="inline">
		<rect x="22" y="18" fill="#010101" width="1" height="1"/>
		<rect x="23" y="19" fill="#010101" width="1" height="1"/>
	</g>
	<g display="inline">
		<rect x="24" y="18" fill="#010101" width="1" height="1"/>
		<rect x="25" y="19" fill="#010101" width="1" height="1"/>
	</g>
	<g display="inline">
		<rect x="26" y="18" fill="#010101" width="1" height="1"/>
		<rect x="27" y="19" fill="#010101" width="1" height="1"/>
	</g>
	<g display="inline">
		<rect y="20" fill="#010101" width="1" height="1"/>
		<rect x="1" y="21" fill="#010101" width="1" height="1"/>
	</g>
	<g display="inline">
		<rect x="2" y="20" fill="#010101" width="1" height="1"/>
		<rect x="3" y="21" fill="#010101" width="1" height="1"/>
	</g>
	<g display="inline">
		<rect x="4" y="20" fill="#010101" width="1" height="1"/>
		<rect x="5" y="21" fill="#010101" width="1" height="1"/>
	</g>
	<g display="inline">
		<rect x="6" y="20" fill="#010101" width="1" height="1"/>
		<rect x="7" y="21" fill="#010101" width="1" height="1"/>
	</g>
	<g display="inline">
		<rect x="8" y="20" fill="#010101" width="1" height="1"/>
		<rect x="9" y="21" fill="#010101" width="1" height="1"/>
	</g>
	<g display="inline">
		<rect x="10" y="20" fill="#010101" width="1" height="1"/>
		<rect x="11" y="21" fill="#010101" width="1" height="1"/>
	</g>
	<g display="inline">
		<rect x="12" y="20" fill="#010101" width="1" height="1"/>
		<rect x="13" y="21" fill="#010101" width="1" height="1"/>
	</g>
	<g display="inline">
		<rect x="14" y="20" fill="#010101" width="1" height="1"/>
		<rect x="15" y="21" fill="#010101" width="1" height="1"/>
	</g>
	<g display="inline">
		<rect x="16" y="20" fill="#010101" width="1" height="1"/>
		<rect x="17" y="21" fill="#010101" width="1" height="1"/>
	</g>
	<g display="inline">
		<rect x="18" y="20" fill="#010101" width="1" height="1"/>
		<rect x="19" y="21" fill="#010101" width="1" height="1"/>
	</g>
	<g display="inline">
		<rect x="20" y="20" fill="#010101" width="1" height="1"/>
		<rect x="21" y="21" fill="#010101" width="1" height="1"/>
	</g>
	<g display="inline">
		<rect x="22" y="20" fill="#010101" width="1" height="1"/>
		<rect x="23" y="21" fill="#010101" width="1" height="1"/>
	</g>
	<g display="inline">
		<rect x="24" y="20" fill="#010101" width="1" height="1"/>
		<rect x="25" y="21" fill="#010101" width="1" height="1"/>
	</g>
	<g display="inline">
		<rect x="26" y="20" fill="#010101" width="1" height="1"/>
		<rect x="27" y="21" fill="#010101" width="1" height="1"/>
	</g>
	<g display="inline">
		<rect y="22" fill="#010101" width="1" height="1"/>
		<rect x="1" y="23" fill="#010101" width="1" height="1"/>
	</g>
	<g display="inline">
		<rect x="2" y="22" fill="#010101" width="1" height="1"/>
		<rect x="3" y="23" fill="#010101" width="1" height="1"/>
	</g>
	<g display="inline">
		<rect x="4" y="22" fill="#010101" width="1" height="1"/>
		<rect x="5" y="23" fill="#010101" width="1" height="1"/>
	</g>
	<g display="inline">
		<rect x="6" y="22" fill="#010101" width="1" height="1"/>
		<rect x="7" y="23" fill="#010101" width="1" height="1"/>
	</g>
	<g display="inline">
		<rect x="8" y="22" fill="#010101" width="1" height="1"/>
		<rect x="9" y="23" fill="#010101" width="1" height="1"/>
	</g>
	<g display="inline">
		<rect x="10" y="22" fill="#010101" width="1" height="1"/>
		<rect x="11" y="23" fill="#010101" width="1" height="1"/>
	</g>
	<g display="inline">
		<rect x="12" y="22" fill="#010101" width="1" height="1"/>
		<rect x="13" y="23" fill="#010101" width="1" height="1"/>
	</g>
	<g display="inline">
		<rect x="14" y="22" fill="#010101" width="1" height="1"/>
		<rect x="15" y="23" fill="#010101" width="1" height="1"/>
	</g>
	<g display="inline">
		<rect x="16" y="22" fill="#010101" width="1" height="1"/>
		<rect x="17" y="23" fill="#010101" width="1" height="1"/>
	</g>
	<g display="inline">
		<rect x="18" y="22" fill="#010101" width="1" height="1"/>
		<rect x="19" y="23" fill="#010101" width="1" height="1"/>
	</g>
	<g display="inline">
		<rect x="20" y="22" fill="#010101" width="1" height="1"/>
		<rect x="21" y="23" fill="#010101" width="1" height="1"/>
	</g>
	<g display="inline">
		<rect x="22" y="22" fill="#010101" width="1" height="1"/>
		<rect x="23" y="23" fill="#010101" width="1" height="1"/>
	</g>
	<g display="inline">
		<rect x="24" y="22" fill="#010101" width="1" height="1"/>
		<rect x="25" y="23" fill="#010101" width="1" height="1"/>
	</g>
	<g display="inline">
		<rect x="26" y="22" fill="#010101" width="1" height="1"/>
		<rect x="27" y="23" fill="#010101" width="1" height="1"/>
	</g>
	<g display="inline">
		<rect y="24" fill="#010101" width="1" height="1"/>
		<rect x="1" y="25" fill="#010101" width="1" height="1"/>
	</g>
	<g display="inline">
		<rect x="2" y="24" fill="#010101" width="1" height="1"/>
		<rect x="3" y="25" fill="#010101" width="1" height="1"/>
	</g>
	<g display="inline">
		<rect x="4" y="24" fill="#010101" width="1" height="1"/>
		<rect x="5" y="25" fill="#010101" width="1" height="1"/>
	</g>
	<g display="inline">
		<rect x="6" y="24" fill="#010101" width="1" height="1"/>
		<rect x="7" y="25" fill="#010101" width="1" height="1"/>
	</g>
	<g display="inline">
		<rect x="8" y="24" fill="#010101" width="1" height="1"/>
		<rect x="9" y="25" fill="#010101" width="1" height="1"/>
	</g>
	<g display="inline">
		<rect x="10" y="24" fill="#010101" width="1" height="1"/>
		<rect x="11" y="25" fill="#010101" width="1" height="1"/>
	</g>
	<g display="inline">
		<rect x="12" y="24" fill="#010101" width="1" height="1"/>
		<rect x="13" y="25" fill="#010101" width="1" height="1"/>
	</g>
	<g display="inline">
		<rect x="14" y="24" fill="#010101" width="1" height="1"/>
		<rect x="15" y="25" fill="#010101" width="1" height="1"/>
	</g>
	<g display="inline">
		<rect x="16" y="24" fill="#010101" width="1" height="1"/>
		<rect x="17" y="25" fill="#010101" width="1" height="1"/>
	</g>
	<g display="inline">
		<rect x="18" y="24" fill="#010101" width="1" height="1"/>
		<rect x="19" y="25" fill="#010101" width="1" height="1"/>
	</g>
	<g display="inline">
		<rect x="20" y="24" fill="#010101" width="1" height="1"/>
		<rect x="21" y="25" fill="#010101" width="1" height="1"/>
	</g>
	<g display="inline">
		<rect x="22" y="24" fill="#010101" width="1" height="1"/>
		<rect x="23" y="25" fill="#010101" width="1" height="1"/>
	</g>
	<g display="inline">
		<rect x="24" y="24" fill="#010101" width="1" height="1"/>
		<rect x="25" y="25" fill="#010101" width="1" height="1"/>
	</g>
	<g display="inline">
		<rect x="26" y="24" fill="#010101" width="1" height="1"/>
		<rect x="27" y="25" fill="#010101" width="1" height="1"/>
	</g>
	<g display="inline">
		<rect y="26" fill="#010101" width="1" height="1"/>
		<rect x="1" y="27" fill="#010101" width="1" height="1"/>
	</g>
	<g display="inline">
		<rect x="2" y="26" fill="#010101" width="1" height="1"/>
		<rect x="3" y="27" fill="#010101" width="1" height="1"/>
	</g>
	<g display="inline">
		<rect x="4" y="26" fill="#010101" width="1" height="1"/>
		<rect x="5" y="27" fill="#010101" width="1" height="1"/>
	</g>
	<g display="inline">
		<rect x="6" y="26" fill="#010101" width="1" height="1"/>
		<rect x="7" y="27" fill="#010101" width="1" height="1"/>
	</g>
	<g display="inline">
		<rect x="8" y="26" fill="#010101" width="1" height="1"/>
		<rect x="9" y="27" fill="#010101" width="1" height="1"/>
	</g>
	<g display="inline">
		<rect x="10" y="26" fill="#010101" width="1" height="1"/>
		<rect x="11" y="27" fill="#010101" width="1" height="1"/>
	</g>
	<g display="inline">
		<rect x="12" y="26" fill="#010101" width="1" height="1"/>
		<rect x="13" y="27" fill="#010101" width="1" height="1"/>
	</g>
	<g display="inline">
		<rect x="14" y="26" fill="#010101" width="1" height="1"/>
		<rect x="15" y="27" fill="#010101" width="1" height="1"/>
	</g>
	<g display="inline">
		<rect x="16" y="26" fill="#010101" width="1" height="1"/>
		<rect x="17" y="27" fill="#010101" width="1" height="1"/>
	</g>
	<g display="inline">
		<rect x="18" y="26" fill="#010101" width="1" height="1"/>
		<rect x="19" y="27" fill="#010101" width="1" height="1"/>
	</g>
	<g display="inline">
		<rect x="20" y="26" fill="#010101" width="1" height="1"/>
		<rect x="21" y="27" fill="#010101" width="1" height="1"/>
	</g>
	<g display="inline">
		<rect x="22" y="26" fill="#010101" width="1" height="1"/>
		<rect x="23" y="27" fill="#010101" width="1" height="1"/>
	</g>
	<g display="inline">
		<rect x="24" y="26" fill="#010101" width="1" height="1"/>
		<rect x="25" y="27" fill="#010101" width="1" height="1"/>
	</g>
	<g display="inline">
		<rect x="26" y="26" fill="#010101" width="1" height="1"/>
		<rect x="27" y="27" fill="#010101" width="1" height="1"/>
	</g>
</g>
<rect display="none" opacity="0.1" fill="#010101" enable-background="new    " width="28" height="28"/>
<g transform="translate(0,-952.36218)" display="none">
	<path display="inline" fill="#010101" d="M13.993,955.414c-0.204,0.009-0.406,0.084-0.61,0.212l-12.605,9.946
		c-0.321,0.32-0.546,1.016-0.214,1.442c0.332,0.418,1.037,0.481,1.442,0.119l11.987-9.454l11.985,9.454
		c0.422,0.362,1.133,0.311,1.455-0.119c0.275-0.386,0.211-1.123-0.221-1.442l-12.602-9.946
		C14.399,955.477,14.196,955.413,13.993,955.414z M6.038,965.123l-1.99,1.583v9.602c0,0.556,0.44,1.004,0.996,1.004h6.298
		c0.554,0,0.995-0.448,0.995-1.004v-3.979c0-0.939,0.727-1.668,1.657-1.668c0.941,0,1.668,0.729,1.668,1.668v3.979
		c0,0.556,0.439,1.004,0.984,1.004h6.312c0.543,0,0.989-0.448,0.989-1.004v-9.602l-1.986-1.583v10.194h-4.309v-2.988
		c0-2.009-1.647-3.645-3.658-3.645c-2,0-3.646,1.636-3.646,3.645v2.988h-4.31V965.123z"/>
</g>
<g>
	<g>
		<path fill="#FFFFFF" d="M23.969,13.842c-0.021-0.052-0.052-0.098-0.091-0.136l-7.499-7.5c-0.163-0.163-0.427-0.163-0.589,0
			c-0.163,0.163-0.163,0.427,0,0.589l6.788,6.788H4.417C4.187,13.584,4,13.771,4,14.001s0.187,0.417,0.417,0.417h18.161
			l-6.788,6.788c-0.163,0.164-0.163,0.428,0,0.59c0.081,0.082,0.188,0.121,0.295,0.121c0.106,0,0.213-0.039,0.295-0.121l7.499-7.499
			c0.038-0.039,0.069-0.085,0.091-0.136C24.011,14.058,24.011,13.943,23.969,13.842z"/>
	</g>
</g>
</svg>
