<?xml version="1.0" encoding="utf-8"?>
<!-- Generator: Adobe Illustrator 16.0.0, SVG Export Plug-In . SVG Version: 6.00 Build 0)  -->
<!DOCTYPE svg PUBLIC "-//W3C//DTD SVG 1.1//EN" "http://www.w3.org/Graphics/SVG/1.1/DTD/svg11.dtd">
<svg version="1.1" id="레이어_1" xmlns="http://www.w3.org/2000/svg" xmlns:xlink="http://www.w3.org/1999/xlink" x="0px"
	 y="0px" width="40px" height="40px" viewBox="0 0 40 40" enable-background="new 0 0 40 40" xml:space="preserve">
<circle display="none" fill="#E6E6E6" cx="20" cy="20" r="20"/>
<g id="soc020_2_" display="none">
	<g id="Regular-10_2_" display="inline">
		<g id="layer1_2_">
			<path id="path2830_2_" fill="#1EC700" d="M11.359,12.325l-0.05,15.302l6.015,0.023l0.024-6.187l-0.396-1.937l5.694,8.1
				l6.042,0.048l-0.026-15.302l-6.039-0.023l0.125,6.312l0.393,2.251l-5.793-8.563L11.359,12.325z"/>
		</g>
	</g>
</g>
<circle display="none" fill="#E6E6E6" cx="20" cy="20" r="20"/>
<g id="Regular_2_" display="none">
	<g id="_80-facebook_2_" display="inline">
		<path fill="#3B5CA8" d="M26.19,16.122h-4.643v-3.104c0-0.854,0.692-1.549,1.546-1.554h1.547V7.585h-3.093
			c-2.569,0.005-4.646,2.088-4.643,4.654l0,0v3.883H13.81V20h3.092v12.415h4.646V20h3.093L26.19,16.122z"/>
	</g>
</g>
<circle display="none" fill="#E6E6E6" cx="20" cy="20" r="20"/>
<g display="none">
	<path display="inline" fill="#381E1F" d="M20,8.574c-6.833,0-12.38,4.369-12.38,9.761c0,3.488,2.317,6.545,5.801,8.275
		c-0.188,0.653-1.216,4.206-1.26,4.485c0,0-0.022,0.21,0.112,0.288c0.137,0.082,0.297,0.017,0.297,0.017
		c0.392-0.051,4.52-2.951,5.229-3.453c0.717,0.1,1.448,0.151,2.201,0.151c6.833,0,12.381-4.37,12.381-9.763
		C32.381,12.943,26.833,8.574,20,8.574L20,8.574z"/>
	<path display="inline" fill="#F9E000" d="M13.154,21.746c-0.391,0-0.714-0.306-0.714-0.684v-4.24h-1.113
		c-0.388,0-0.703-0.319-0.703-0.706c0-0.381,0.314-0.695,0.703-0.695h3.654c0.387,0,0.706,0.314,0.706,0.695
		c0,0.387-0.319,0.706-0.706,0.706h-1.114v4.24C13.867,21.44,13.549,21.746,13.154,21.746z M19.416,21.732
		c-0.297,0-0.521-0.12-0.589-0.309l-0.356-0.929h-2.18l-0.35,0.929c-0.068,0.189-0.297,0.309-0.598,0.309
		c-0.154,0-0.309-0.033-0.452-0.094c-0.202-0.095-0.387-0.344-0.167-1.015l1.702-4.498c0.126-0.34,0.491-0.696,0.956-0.705
		c0.468,0.009,0.833,0.365,0.95,0.705l1.707,4.498c0.221,0.671,0.031,0.92-0.167,1.015C19.729,21.7,19.574,21.732,19.416,21.732
		L19.416,21.732L19.416,21.732z M18.094,19.231l-0.712-2.03l-0.714,2.03H18.094z M21.191,21.643c-0.378,0-0.685-0.297-0.685-0.658
		v-4.85c0-0.392,0.328-0.714,0.727-0.714c0.4,0,0.732,0.322,0.732,0.714v4.197h1.518c0.374,0,0.683,0.292,0.683,0.653
		s-0.309,0.658-0.683,0.658H21.191z M25.155,21.732c-0.391,0-0.712-0.316-0.712-0.708v-4.89c0-0.392,0.322-0.714,0.712-0.714
		c0.401,0,0.719,0.322,0.719,0.714v1.539l1.992-1.995c0.102-0.104,0.244-0.159,0.394-0.159c0.177,0,0.363,0.077,0.491,0.209
		c0.125,0.129,0.202,0.285,0.211,0.457c0.008,0.162-0.044,0.317-0.154,0.43l-1.63,1.629l1.758,2.327
		c0.111,0.155,0.165,0.343,0.137,0.533c-0.026,0.189-0.125,0.353-0.274,0.469c-0.129,0.095-0.279,0.143-0.435,0.143
		c-0.219,0.002-0.435-0.105-0.568-0.281l-1.677-2.223l-0.245,0.249v1.557C25.874,21.416,25.556,21.732,25.155,21.732L25.155,21.732z
		"/>
</g>
<circle fill="#E6E6E6" cx="20" cy="20" r="20"/>
<g>
	<path fill="#3E81F0" d="M29.958,20.224c0-0.834-0.069-1.442-0.216-2.075h-9.54v3.77H25.8c-0.108,0.937-0.722,2.348-2.074,3.296
		l-0.021,0.127l3.015,2.335l0.21,0.021C28.849,25.929,29.958,23.318,29.958,20.224"/>
	<path fill="#32A653" d="M20.203,30.159c2.744,0,5.045-0.904,6.728-2.461l-3.204-2.483c-0.86,0.6-2.011,1.017-3.524,1.017
		c-2.687,0-4.968-1.776-5.78-4.219l-0.118,0.006l-3.137,2.429l-0.042,0.114C12.798,27.88,16.23,30.159,20.203,30.159"/>
	<path fill="#F8BA00" d="M14.422,22.013c-0.215-0.634-0.338-1.312-0.338-2.013c0-0.699,0.123-1.378,0.325-2.01l-0.004-0.136
		l-3.175-2.461l-0.106,0.045c-0.686,1.377-1.083,2.922-1.083,4.561c0,1.642,0.397,3.184,1.083,4.562L14.422,22.013"/>
	<path fill="#E64133" d="M20.203,13.77c1.909,0,3.195,0.821,3.928,1.513l2.866-2.799c-1.76-1.635-4.05-2.644-6.794-2.644
		c-3.973,0-7.404,2.281-9.078,5.599l3.285,2.551C15.235,15.544,17.516,13.77,20.203,13.77"/>
</g>
</svg>
