<?xml version="1.0" encoding="utf-8"?>
<!-- Generator: Adobe Illustrator 16.0.0, SVG Export Plug-In . SVG Version: 6.00 Build 0)  -->
<!DOCTYPE svg PUBLIC "-//W3C//DTD SVG 1.1//EN" "http://www.w3.org/Graphics/SVG/1.1/DTD/svg11.dtd">
<svg version="1.1" id="레이어_1" xmlns="http://www.w3.org/2000/svg" xmlns:xlink="http://www.w3.org/1999/xlink" x="0px"
	 y="0px" width="28px" height="28px" viewBox="0 0 28 28" enable-background="new 0 0 28 28" xml:space="preserve">
<g display="none" opacity="0.2">
	<g display="inline">
		<rect fill="#010101" width="1" height="1"/>
		<rect x="1" y="1" fill="#010101" width="1" height="1"/>
	</g>
	<g display="inline">
		<rect x="2" fill="#010101" width="1" height="1"/>
		<rect x="3" y="1" fill="#010101" width="1" height="1"/>
	</g>
	<g display="inline">
		<rect x="4" fill="#010101" width="1" height="1"/>
		<rect x="5" y="1" fill="#010101" width="1" height="1"/>
	</g>
	<g display="inline">
		<rect x="6" fill="#010101" width="1" height="1"/>
		<rect x="7" y="1" fill="#010101" width="1" height="1"/>
	</g>
	<g display="inline">
		<rect x="8" fill="#010101" width="1" height="1"/>
		<rect x="9" y="1" fill="#010101" width="1" height="1"/>
	</g>
	<g display="inline">
		<rect x="10" fill="#010101" width="1" height="1"/>
		<rect x="11" y="1" fill="#010101" width="1" height="1"/>
	</g>
	<g display="inline">
		<rect x="12" fill="#010101" width="1" height="1"/>
		<rect x="13" y="1" fill="#010101" width="1" height="1"/>
	</g>
	<g display="inline">
		<rect x="14" fill="#010101" width="1" height="1"/>
		<rect x="15" y="1" fill="#010101" width="1" height="1"/>
	</g>
	<g display="inline">
		<rect x="16" fill="#010101" width="1" height="1"/>
		<rect x="17" y="1" fill="#010101" width="1" height="1"/>
	</g>
	<g display="inline">
		<rect x="18" fill="#010101" width="1" height="1"/>
		<rect x="19" y="1" fill="#010101" width="1" height="1"/>
	</g>
	<g display="inline">
		<rect x="20" fill="#010101" width="1" height="1"/>
		<rect x="21" y="1" fill="#010101" width="1" height="1"/>
	</g>
	<g display="inline">
		<rect x="22" fill="#010101" width="1" height="1"/>
		<rect x="23" y="1" fill="#010101" width="1" height="1"/>
	</g>
	<g display="inline">
		<rect x="24" fill="#010101" width="1" height="1"/>
		<rect x="25" y="1" fill="#010101" width="1" height="1"/>
	</g>
	<g display="inline">
		<rect x="26" fill="#010101" width="1" height="1"/>
		<rect x="27" y="1" fill="#010101" width="1" height="1"/>
	</g>
	<g display="inline">
		<rect y="2" fill="#010101" width="1" height="1"/>
		<rect x="1" y="3" fill="#010101" width="1" height="1"/>
	</g>
	<g display="inline">
		<rect x="2" y="2" fill="#010101" width="1" height="1"/>
		<rect x="3" y="3" fill="#010101" width="1" height="1"/>
	</g>
	<g display="inline">
		<rect x="4" y="2" fill="#010101" width="1" height="1"/>
		<rect x="5" y="3" fill="#010101" width="1" height="1"/>
	</g>
	<g display="inline">
		<rect x="6" y="2" fill="#010101" width="1" height="1"/>
		<rect x="7" y="3" fill="#010101" width="1" height="1"/>
	</g>
	<g display="inline">
		<rect x="8" y="2" fill="#010101" width="1" height="1"/>
		<rect x="9" y="3" fill="#010101" width="1" height="1"/>
	</g>
	<g display="inline">
		<rect x="10" y="2" fill="#010101" width="1" height="1"/>
		<rect x="11" y="3" fill="#010101" width="1" height="1"/>
	</g>
	<g display="inline">
		<rect x="12" y="2" fill="#010101" width="1" height="1"/>
		<rect x="13" y="3" fill="#010101" width="1" height="1"/>
	</g>
	<g display="inline">
		<rect x="14" y="2" fill="#010101" width="1" height="1"/>
		<rect x="15" y="3" fill="#010101" width="1" height="1"/>
	</g>
	<g display="inline">
		<rect x="16" y="2" fill="#010101" width="1" height="1"/>
		<rect x="17" y="3" fill="#010101" width="1" height="1"/>
	</g>
	<g display="inline">
		<rect x="18" y="2" fill="#010101" width="1" height="1"/>
		<rect x="19" y="3" fill="#010101" width="1" height="1"/>
	</g>
	<g display="inline">
		<rect x="20" y="2" fill="#010101" width="1" height="1"/>
		<rect x="21" y="3" fill="#010101" width="1" height="1"/>
	</g>
	<g display="inline">
		<rect x="22" y="2" fill="#010101" width="1" height="1"/>
		<rect x="23" y="3" fill="#010101" width="1" height="1"/>
	</g>
	<g display="inline">
		<rect x="24" y="2" fill="#010101" width="1" height="1"/>
		<rect x="25" y="3" fill="#010101" width="1" height="1"/>
	</g>
	<g display="inline">
		<rect x="26" y="2" fill="#010101" width="1" height="1"/>
		<rect x="27" y="3" fill="#010101" width="1" height="1"/>
	</g>
	<g display="inline">
		<rect y="4" fill="#010101" width="1" height="1"/>
		<rect x="1" y="5" fill="#010101" width="1" height="1"/>
	</g>
	<g display="inline">
		<rect x="2" y="4" fill="#010101" width="1" height="1"/>
		<rect x="3" y="5" fill="#010101" width="1" height="1"/>
	</g>
	<g display="inline">
		<rect x="4" y="4" fill="#010101" width="1" height="1"/>
		<rect x="5" y="5" fill="#010101" width="1" height="1"/>
	</g>
	<g display="inline">
		<rect x="6" y="4" fill="#010101" width="1" height="1"/>
		<rect x="7" y="5" fill="#010101" width="1" height="1"/>
	</g>
	<g display="inline">
		<rect x="8" y="4" fill="#010101" width="1" height="1"/>
		<rect x="9" y="5" fill="#010101" width="1" height="1"/>
	</g>
	<g display="inline">
		<rect x="10" y="4" fill="#010101" width="1" height="1"/>
		<rect x="11" y="5" fill="#010101" width="1" height="1"/>
	</g>
	<g display="inline">
		<rect x="12" y="4" fill="#010101" width="1" height="1"/>
		<rect x="13" y="5" fill="#010101" width="1" height="1"/>
	</g>
	<g display="inline">
		<rect x="14" y="4" fill="#010101" width="1" height="1"/>
		<rect x="15" y="5" fill="#010101" width="1" height="1"/>
	</g>
	<g display="inline">
		<rect x="16" y="4" fill="#010101" width="1" height="1"/>
		<rect x="17" y="5" fill="#010101" width="1" height="1"/>
	</g>
	<g display="inline">
		<rect x="18" y="4" fill="#010101" width="1" height="1"/>
		<rect x="19" y="5" fill="#010101" width="1" height="1"/>
	</g>
	<g display="inline">
		<rect x="20" y="4" fill="#010101" width="1" height="1"/>
		<rect x="21" y="5" fill="#010101" width="1" height="1"/>
	</g>
	<g display="inline">
		<rect x="22" y="4" fill="#010101" width="1" height="1"/>
		<rect x="23" y="5" fill="#010101" width="1" height="1"/>
	</g>
	<g display="inline">
		<rect x="24" y="4" fill="#010101" width="1" height="1"/>
		<rect x="25" y="5" fill="#010101" width="1" height="1"/>
	</g>
	<g display="inline">
		<rect x="26" y="4" fill="#010101" width="1" height="1"/>
		<rect x="27" y="5" fill="#010101" width="1" height="1"/>
	</g>
	<g display="inline">
		<rect y="6" fill="#010101" width="1" height="1"/>
		<rect x="1" y="7" fill="#010101" width="1" height="1"/>
	</g>
	<g display="inline">
		<rect x="2" y="6" fill="#010101" width="1" height="1"/>
		<rect x="3" y="7" fill="#010101" width="1" height="1"/>
	</g>
	<g display="inline">
		<rect x="4" y="6" fill="#010101" width="1" height="1"/>
		<rect x="5" y="7" fill="#010101" width="1" height="1"/>
	</g>
	<g display="inline">
		<rect x="6" y="6" fill="#010101" width="1" height="1"/>
		<rect x="7" y="7" fill="#010101" width="1" height="1"/>
	</g>
	<g display="inline">
		<rect x="8" y="6" fill="#010101" width="1" height="1"/>
		<rect x="9" y="7" fill="#010101" width="1" height="1"/>
	</g>
	<g display="inline">
		<rect x="10" y="6" fill="#010101" width="1" height="1"/>
		<rect x="11" y="7" fill="#010101" width="1" height="1"/>
	</g>
	<g display="inline">
		<rect x="12" y="6" fill="#010101" width="1" height="1"/>
		<rect x="13" y="7" fill="#010101" width="1" height="1"/>
	</g>
	<g display="inline">
		<rect x="14" y="6" fill="#010101" width="1" height="1"/>
		<rect x="15" y="7" fill="#010101" width="1" height="1"/>
	</g>
	<g display="inline">
		<rect x="16" y="6" fill="#010101" width="1" height="1"/>
		<rect x="17" y="7" fill="#010101" width="1" height="1"/>
	</g>
	<g display="inline">
		<rect x="18" y="6" fill="#010101" width="1" height="1"/>
		<rect x="19" y="7" fill="#010101" width="1" height="1"/>
	</g>
	<g display="inline">
		<rect x="20" y="6" fill="#010101" width="1" height="1"/>
		<rect x="21" y="7" fill="#010101" width="1" height="1"/>
	</g>
	<g display="inline">
		<rect x="22" y="6" fill="#010101" width="1" height="1"/>
		<rect x="23" y="7" fill="#010101" width="1" height="1"/>
	</g>
	<g display="inline">
		<rect x="24" y="6" fill="#010101" width="1" height="1"/>
		<rect x="25" y="7" fill="#010101" width="1" height="1"/>
	</g>
	<g display="inline">
		<rect x="26" y="6" fill="#010101" width="1" height="1"/>
		<rect x="27" y="7" fill="#010101" width="1" height="1"/>
	</g>
	<g display="inline">
		<rect y="8" fill="#010101" width="1" height="1"/>
		<rect x="1" y="9" fill="#010101" width="1" height="1"/>
	</g>
	<g display="inline">
		<rect x="2" y="8" fill="#010101" width="1" height="1"/>
		<rect x="3" y="9" fill="#010101" width="1" height="1"/>
	</g>
	<g display="inline">
		<rect x="4" y="8" fill="#010101" width="1" height="1"/>
		<rect x="5" y="9" fill="#010101" width="1" height="1"/>
	</g>
	<g display="inline">
		<rect x="6" y="8" fill="#010101" width="1" height="1"/>
		<rect x="7" y="9" fill="#010101" width="1" height="1"/>
	</g>
	<g display="inline">
		<rect x="8" y="8" fill="#010101" width="1" height="1"/>
		<rect x="9" y="9" fill="#010101" width="1" height="1"/>
	</g>
	<g display="inline">
		<rect x="10" y="8" fill="#010101" width="1" height="1"/>
		<rect x="11" y="9" fill="#010101" width="1" height="1"/>
	</g>
	<g display="inline">
		<rect x="12" y="8" fill="#010101" width="1" height="1"/>
		<rect x="13" y="9" fill="#010101" width="1" height="1"/>
	</g>
	<g display="inline">
		<rect x="14" y="8" fill="#010101" width="1" height="1"/>
		<rect x="15" y="9" fill="#010101" width="1" height="1"/>
	</g>
	<g display="inline">
		<rect x="16" y="8" fill="#010101" width="1" height="1"/>
		<rect x="17" y="9" fill="#010101" width="1" height="1"/>
	</g>
	<g display="inline">
		<rect x="18" y="8" fill="#010101" width="1" height="1"/>
		<rect x="19" y="9" fill="#010101" width="1" height="1"/>
	</g>
	<g display="inline">
		<rect x="20" y="8" fill="#010101" width="1" height="1"/>
		<rect x="21" y="9" fill="#010101" width="1" height="1"/>
	</g>
	<g display="inline">
		<rect x="22" y="8" fill="#010101" width="1" height="1"/>
		<rect x="23" y="9" fill="#010101" width="1" height="1"/>
	</g>
	<g display="inline">
		<rect x="24" y="8" fill="#010101" width="1" height="1"/>
		<rect x="25" y="9" fill="#010101" width="1" height="1"/>
	</g>
	<g display="inline">
		<rect x="26" y="8" fill="#010101" width="1" height="1"/>
		<rect x="27" y="9" fill="#010101" width="1" height="1"/>
	</g>
	<g display="inline">
		<rect y="10" fill="#010101" width="1" height="1"/>
		<rect x="1" y="11" fill="#010101" width="1" height="1"/>
	</g>
	<g display="inline">
		<rect x="2" y="10" fill="#010101" width="1" height="1"/>
		<rect x="3" y="11" fill="#010101" width="1" height="1"/>
	</g>
	<g display="inline">
		<rect x="4" y="10" fill="#010101" width="1" height="1"/>
		<rect x="5" y="11" fill="#010101" width="1" height="1"/>
	</g>
	<g display="inline">
		<rect x="6" y="10" fill="#010101" width="1" height="1"/>
		<rect x="7" y="11" fill="#010101" width="1" height="1"/>
	</g>
	<g display="inline">
		<rect x="8" y="10" fill="#010101" width="1" height="1"/>
		<rect x="9" y="11" fill="#010101" width="1" height="1"/>
	</g>
	<g display="inline">
		<rect x="10" y="10" fill="#010101" width="1" height="1"/>
		<rect x="11" y="11" fill="#010101" width="1" height="1"/>
	</g>
	<g display="inline">
		<rect x="12" y="10" fill="#010101" width="1" height="1"/>
		<rect x="13" y="11" fill="#010101" width="1" height="1"/>
	</g>
	<g display="inline">
		<rect x="14" y="10" fill="#010101" width="1" height="1"/>
		<rect x="15" y="11" fill="#010101" width="1" height="1"/>
	</g>
	<g display="inline">
		<rect x="16" y="10" fill="#010101" width="1" height="1"/>
		<rect x="17" y="11" fill="#010101" width="1" height="1"/>
	</g>
	<g display="inline">
		<rect x="18" y="10" fill="#010101" width="1" height="1"/>
		<rect x="19" y="11" fill="#010101" width="1" height="1"/>
	</g>
	<g display="inline">
		<rect x="20" y="10" fill="#010101" width="1" height="1"/>
		<rect x="21" y="11" fill="#010101" width="1" height="1"/>
	</g>
	<g display="inline">
		<rect x="22" y="10" fill="#010101" width="1" height="1"/>
		<rect x="23" y="11" fill="#010101" width="1" height="1"/>
	</g>
	<g display="inline">
		<rect x="24" y="10" fill="#010101" width="1" height="1"/>
		<rect x="25" y="11" fill="#010101" width="1" height="1"/>
	</g>
	<g display="inline">
		<rect x="26" y="10" fill="#010101" width="1" height="1"/>
		<rect x="27" y="11" fill="#010101" width="1" height="1"/>
	</g>
	<g display="inline">
		<rect y="12" fill="#010101" width="1" height="1"/>
		<rect x="1" y="13" fill="#010101" width="1" height="1"/>
	</g>
	<g display="inline">
		<rect x="2" y="12" fill="#010101" width="1" height="1"/>
		<rect x="3" y="13" fill="#010101" width="1" height="1"/>
	</g>
	<g display="inline">
		<rect x="4" y="12" fill="#010101" width="1" height="1"/>
		<rect x="5" y="13" fill="#010101" width="1" height="1"/>
	</g>
	<g display="inline">
		<rect x="6" y="12" fill="#010101" width="1" height="1"/>
		<rect x="7" y="13" fill="#010101" width="1" height="1"/>
	</g>
	<g display="inline">
		<rect x="8" y="12" fill="#010101" width="1" height="1"/>
		<rect x="9" y="13" fill="#010101" width="1" height="1"/>
	</g>
	<g display="inline">
		<rect x="10" y="12" fill="#010101" width="1" height="1"/>
		<rect x="11" y="13" fill="#010101" width="1" height="1"/>
	</g>
	<g display="inline">
		<rect x="12" y="12" fill="#010101" width="1" height="1"/>
		<rect x="13" y="13" fill="#010101" width="1" height="1"/>
	</g>
	<g display="inline">
		<rect x="14" y="12" fill="#010101" width="1" height="1"/>
		<rect x="15" y="13" fill="#010101" width="1" height="1"/>
	</g>
	<g display="inline">
		<rect x="16" y="12" fill="#010101" width="1" height="1"/>
		<rect x="17" y="13" fill="#010101" width="1" height="1"/>
	</g>
	<g display="inline">
		<rect x="18" y="12" fill="#010101" width="1" height="1"/>
		<rect x="19" y="13" fill="#010101" width="1" height="1"/>
	</g>
	<g display="inline">
		<rect x="20" y="12" fill="#010101" width="1" height="1"/>
		<rect x="21" y="13" fill="#010101" width="1" height="1"/>
	</g>
	<g display="inline">
		<rect x="22" y="12" fill="#010101" width="1" height="1"/>
		<rect x="23" y="13" fill="#010101" width="1" height="1"/>
	</g>
	<g display="inline">
		<rect x="24" y="12" fill="#010101" width="1" height="1"/>
		<rect x="25" y="13" fill="#010101" width="1" height="1"/>
	</g>
	<g display="inline">
		<rect x="26" y="12" fill="#010101" width="1" height="1"/>
		<rect x="27" y="13" fill="#010101" width="1" height="1"/>
	</g>
	<g display="inline">
		<rect y="14" fill="#010101" width="1" height="1"/>
		<rect x="1" y="15" fill="#010101" width="1" height="1"/>
	</g>
	<g display="inline">
		<rect x="2" y="14" fill="#010101" width="1" height="1"/>
		<rect x="3" y="15" fill="#010101" width="1" height="1"/>
	</g>
	<g display="inline">
		<rect x="4" y="14" fill="#010101" width="1" height="1"/>
		<rect x="5" y="15" fill="#010101" width="1" height="1"/>
	</g>
	<g display="inline">
		<rect x="6" y="14" fill="#010101" width="1" height="1"/>
		<rect x="7" y="15" fill="#010101" width="1" height="1"/>
	</g>
	<g display="inline">
		<rect x="8" y="14" fill="#010101" width="1" height="1"/>
		<rect x="9" y="15" fill="#010101" width="1" height="1"/>
	</g>
	<g display="inline">
		<rect x="10" y="14" fill="#010101" width="1" height="1"/>
		<rect x="11" y="15" fill="#010101" width="1" height="1"/>
	</g>
	<g display="inline">
		<rect x="12" y="14" fill="#010101" width="1" height="1"/>
		<rect x="13" y="15" fill="#010101" width="1" height="1"/>
	</g>
	<g display="inline">
		<rect x="14" y="14" fill="#010101" width="1" height="1"/>
		<rect x="15" y="15" fill="#010101" width="1" height="1"/>
	</g>
	<g display="inline">
		<rect x="16" y="14" fill="#010101" width="1" height="1"/>
		<rect x="17" y="15" fill="#010101" width="1" height="1"/>
	</g>
	<g display="inline">
		<rect x="18" y="14" fill="#010101" width="1" height="1"/>
		<rect x="19" y="15" fill="#010101" width="1" height="1"/>
	</g>
	<g display="inline">
		<rect x="20" y="14" fill="#010101" width="1" height="1"/>
		<rect x="21" y="15" fill="#010101" width="1" height="1"/>
	</g>
	<g display="inline">
		<rect x="22" y="14" fill="#010101" width="1" height="1"/>
		<rect x="23" y="15" fill="#010101" width="1" height="1"/>
	</g>
	<g display="inline">
		<rect x="24" y="14" fill="#010101" width="1" height="1"/>
		<rect x="25" y="15" fill="#010101" width="1" height="1"/>
	</g>
	<g display="inline">
		<rect x="26" y="14" fill="#010101" width="1" height="1"/>
		<rect x="27" y="15" fill="#010101" width="1" height="1"/>
	</g>
	<g display="inline">
		<rect y="16" fill="#010101" width="1" height="1"/>
		<rect x="1" y="17" fill="#010101" width="1" height="1"/>
	</g>
	<g display="inline">
		<rect x="2" y="16" fill="#010101" width="1" height="1"/>
		<rect x="3" y="17" fill="#010101" width="1" height="1"/>
	</g>
	<g display="inline">
		<rect x="4" y="16" fill="#010101" width="1" height="1"/>
		<rect x="5" y="17" fill="#010101" width="1" height="1"/>
	</g>
	<g display="inline">
		<rect x="6" y="16" fill="#010101" width="1" height="1"/>
		<rect x="7" y="17" fill="#010101" width="1" height="1"/>
	</g>
	<g display="inline">
		<rect x="8" y="16" fill="#010101" width="1" height="1"/>
		<rect x="9" y="17" fill="#010101" width="1" height="1"/>
	</g>
	<g display="inline">
		<rect x="10" y="16" fill="#010101" width="1" height="1"/>
		<rect x="11" y="17" fill="#010101" width="1" height="1"/>
	</g>
	<g display="inline">
		<rect x="12" y="16" fill="#010101" width="1" height="1"/>
		<rect x="13" y="17" fill="#010101" width="1" height="1"/>
	</g>
	<g display="inline">
		<rect x="14" y="16" fill="#010101" width="1" height="1"/>
		<rect x="15" y="17" fill="#010101" width="1" height="1"/>
	</g>
	<g display="inline">
		<rect x="16" y="16" fill="#010101" width="1" height="1"/>
		<rect x="17" y="17" fill="#010101" width="1" height="1"/>
	</g>
	<g display="inline">
		<rect x="18" y="16" fill="#010101" width="1" height="1"/>
		<rect x="19" y="17" fill="#010101" width="1" height="1"/>
	</g>
	<g display="inline">
		<rect x="20" y="16" fill="#010101" width="1" height="1"/>
		<rect x="21" y="17" fill="#010101" width="1" height="1"/>
	</g>
	<g display="inline">
		<rect x="22" y="16" fill="#010101" width="1" height="1"/>
		<rect x="23" y="17" fill="#010101" width="1" height="1"/>
	</g>
	<g display="inline">
		<rect x="24" y="16" fill="#010101" width="1" height="1"/>
		<rect x="25" y="17" fill="#010101" width="1" height="1"/>
	</g>
	<g display="inline">
		<rect x="26" y="16" fill="#010101" width="1" height="1"/>
		<rect x="27" y="17" fill="#010101" width="1" height="1"/>
	</g>
	<g display="inline">
		<rect y="18" fill="#010101" width="1" height="1"/>
		<rect x="1" y="19" fill="#010101" width="1" height="1"/>
	</g>
	<g display="inline">
		<rect x="2" y="18" fill="#010101" width="1" height="1"/>
		<rect x="3" y="19" fill="#010101" width="1" height="1"/>
	</g>
	<g display="inline">
		<rect x="4" y="18" fill="#010101" width="1" height="1"/>
		<rect x="5" y="19" fill="#010101" width="1" height="1"/>
	</g>
	<g display="inline">
		<rect x="6" y="18" fill="#010101" width="1" height="1"/>
		<rect x="7" y="19" fill="#010101" width="1" height="1"/>
	</g>
	<g display="inline">
		<rect x="8" y="18" fill="#010101" width="1" height="1"/>
		<rect x="9" y="19" fill="#010101" width="1" height="1"/>
	</g>
	<g display="inline">
		<rect x="10" y="18" fill="#010101" width="1" height="1"/>
		<rect x="11" y="19" fill="#010101" width="1" height="1"/>
	</g>
	<g display="inline">
		<rect x="12" y="18" fill="#010101" width="1" height="1"/>
		<rect x="13" y="19" fill="#010101" width="1" height="1"/>
	</g>
	<g display="inline">
		<rect x="14" y="18" fill="#010101" width="1" height="1"/>
		<rect x="15" y="19" fill="#010101" width="1" height="1"/>
	</g>
	<g display="inline">
		<rect x="16" y="18" fill="#010101" width="1" height="1"/>
		<rect x="17" y="19" fill="#010101" width="1" height="1"/>
	</g>
	<g display="inline">
		<rect x="18" y="18" fill="#010101" width="1" height="1"/>
		<rect x="19" y="19" fill="#010101" width="1" height="1"/>
	</g>
	<g display="inline">
		<rect x="20" y="18" fill="#010101" width="1" height="1"/>
		<rect x="21" y="19" fill="#010101" width="1" height="1"/>
	</g>
	<g display="inline">
		<rect x="22" y="18" fill="#010101" width="1" height="1"/>
		<rect x="23" y="19" fill="#010101" width="1" height="1"/>
	</g>
	<g display="inline">
		<rect x="24" y="18" fill="#010101" width="1" height="1"/>
		<rect x="25" y="19" fill="#010101" width="1" height="1"/>
	</g>
	<g display="inline">
		<rect x="26" y="18" fill="#010101" width="1" height="1"/>
		<rect x="27" y="19" fill="#010101" width="1" height="1"/>
	</g>
	<g display="inline">
		<rect y="20" fill="#010101" width="1" height="1"/>
		<rect x="1" y="21" fill="#010101" width="1" height="1"/>
	</g>
	<g display="inline">
		<rect x="2" y="20" fill="#010101" width="1" height="1"/>
		<rect x="3" y="21" fill="#010101" width="1" height="1"/>
	</g>
	<g display="inline">
		<rect x="4" y="20" fill="#010101" width="1" height="1"/>
		<rect x="5" y="21" fill="#010101" width="1" height="1"/>
	</g>
	<g display="inline">
		<rect x="6" y="20" fill="#010101" width="1" height="1"/>
		<rect x="7" y="21" fill="#010101" width="1" height="1"/>
	</g>
	<g display="inline">
		<rect x="8" y="20" fill="#010101" width="1" height="1"/>
		<rect x="9" y="21" fill="#010101" width="1" height="1"/>
	</g>
	<g display="inline">
		<rect x="10" y="20" fill="#010101" width="1" height="1"/>
		<rect x="11" y="21" fill="#010101" width="1" height="1"/>
	</g>
	<g display="inline">
		<rect x="12" y="20" fill="#010101" width="1" height="1"/>
		<rect x="13" y="21" fill="#010101" width="1" height="1"/>
	</g>
	<g display="inline">
		<rect x="14" y="20" fill="#010101" width="1" height="1"/>
		<rect x="15" y="21" fill="#010101" width="1" height="1"/>
	</g>
	<g display="inline">
		<rect x="16" y="20" fill="#010101" width="1" height="1"/>
		<rect x="17" y="21" fill="#010101" width="1" height="1"/>
	</g>
	<g display="inline">
		<rect x="18" y="20" fill="#010101" width="1" height="1"/>
		<rect x="19" y="21" fill="#010101" width="1" height="1"/>
	</g>
	<g display="inline">
		<rect x="20" y="20" fill="#010101" width="1" height="1"/>
		<rect x="21" y="21" fill="#010101" width="1" height="1"/>
	</g>
	<g display="inline">
		<rect x="22" y="20" fill="#010101" width="1" height="1"/>
		<rect x="23" y="21" fill="#010101" width="1" height="1"/>
	</g>
	<g display="inline">
		<rect x="24" y="20" fill="#010101" width="1" height="1"/>
		<rect x="25" y="21" fill="#010101" width="1" height="1"/>
	</g>
	<g display="inline">
		<rect x="26" y="20" fill="#010101" width="1" height="1"/>
		<rect x="27" y="21" fill="#010101" width="1" height="1"/>
	</g>
	<g display="inline">
		<rect y="22" fill="#010101" width="1" height="1"/>
		<rect x="1" y="23" fill="#010101" width="1" height="1"/>
	</g>
	<g display="inline">
		<rect x="2" y="22" fill="#010101" width="1" height="1"/>
		<rect x="3" y="23" fill="#010101" width="1" height="1"/>
	</g>
	<g display="inline">
		<rect x="4" y="22" fill="#010101" width="1" height="1"/>
		<rect x="5" y="23" fill="#010101" width="1" height="1"/>
	</g>
	<g display="inline">
		<rect x="6" y="22" fill="#010101" width="1" height="1"/>
		<rect x="7" y="23" fill="#010101" width="1" height="1"/>
	</g>
	<g display="inline">
		<rect x="8" y="22" fill="#010101" width="1" height="1"/>
		<rect x="9" y="23" fill="#010101" width="1" height="1"/>
	</g>
	<g display="inline">
		<rect x="10" y="22" fill="#010101" width="1" height="1"/>
		<rect x="11" y="23" fill="#010101" width="1" height="1"/>
	</g>
	<g display="inline">
		<rect x="12" y="22" fill="#010101" width="1" height="1"/>
		<rect x="13" y="23" fill="#010101" width="1" height="1"/>
	</g>
	<g display="inline">
		<rect x="14" y="22" fill="#010101" width="1" height="1"/>
		<rect x="15" y="23" fill="#010101" width="1" height="1"/>
	</g>
	<g display="inline">
		<rect x="16" y="22" fill="#010101" width="1" height="1"/>
		<rect x="17" y="23" fill="#010101" width="1" height="1"/>
	</g>
	<g display="inline">
		<rect x="18" y="22" fill="#010101" width="1" height="1"/>
		<rect x="19" y="23" fill="#010101" width="1" height="1"/>
	</g>
	<g display="inline">
		<rect x="20" y="22" fill="#010101" width="1" height="1"/>
		<rect x="21" y="23" fill="#010101" width="1" height="1"/>
	</g>
	<g display="inline">
		<rect x="22" y="22" fill="#010101" width="1" height="1"/>
		<rect x="23" y="23" fill="#010101" width="1" height="1"/>
	</g>
	<g display="inline">
		<rect x="24" y="22" fill="#010101" width="1" height="1"/>
		<rect x="25" y="23" fill="#010101" width="1" height="1"/>
	</g>
	<g display="inline">
		<rect x="26" y="22" fill="#010101" width="1" height="1"/>
		<rect x="27" y="23" fill="#010101" width="1" height="1"/>
	</g>
	<g display="inline">
		<rect y="24" fill="#010101" width="1" height="1"/>
		<rect x="1" y="25" fill="#010101" width="1" height="1"/>
	</g>
	<g display="inline">
		<rect x="2" y="24" fill="#010101" width="1" height="1"/>
		<rect x="3" y="25" fill="#010101" width="1" height="1"/>
	</g>
	<g display="inline">
		<rect x="4" y="24" fill="#010101" width="1" height="1"/>
		<rect x="5" y="25" fill="#010101" width="1" height="1"/>
	</g>
	<g display="inline">
		<rect x="6" y="24" fill="#010101" width="1" height="1"/>
		<rect x="7" y="25" fill="#010101" width="1" height="1"/>
	</g>
	<g display="inline">
		<rect x="8" y="24" fill="#010101" width="1" height="1"/>
		<rect x="9" y="25" fill="#010101" width="1" height="1"/>
	</g>
	<g display="inline">
		<rect x="10" y="24" fill="#010101" width="1" height="1"/>
		<rect x="11" y="25" fill="#010101" width="1" height="1"/>
	</g>
	<g display="inline">
		<rect x="12" y="24" fill="#010101" width="1" height="1"/>
		<rect x="13" y="25" fill="#010101" width="1" height="1"/>
	</g>
	<g display="inline">
		<rect x="14" y="24" fill="#010101" width="1" height="1"/>
		<rect x="15" y="25" fill="#010101" width="1" height="1"/>
	</g>
	<g display="inline">
		<rect x="16" y="24" fill="#010101" width="1" height="1"/>
		<rect x="17" y="25" fill="#010101" width="1" height="1"/>
	</g>
	<g display="inline">
		<rect x="18" y="24" fill="#010101" width="1" height="1"/>
		<rect x="19" y="25" fill="#010101" width="1" height="1"/>
	</g>
	<g display="inline">
		<rect x="20" y="24" fill="#010101" width="1" height="1"/>
		<rect x="21" y="25" fill="#010101" width="1" height="1"/>
	</g>
	<g display="inline">
		<rect x="22" y="24" fill="#010101" width="1" height="1"/>
		<rect x="23" y="25" fill="#010101" width="1" height="1"/>
	</g>
	<g display="inline">
		<rect x="24" y="24" fill="#010101" width="1" height="1"/>
		<rect x="25" y="25" fill="#010101" width="1" height="1"/>
	</g>
	<g display="inline">
		<rect x="26" y="24" fill="#010101" width="1" height="1"/>
		<rect x="27" y="25" fill="#010101" width="1" height="1"/>
	</g>
	<g display="inline">
		<rect y="26" fill="#010101" width="1" height="1"/>
		<rect x="1" y="27" fill="#010101" width="1" height="1"/>
	</g>
	<g display="inline">
		<rect x="2" y="26" fill="#010101" width="1" height="1"/>
		<rect x="3" y="27" fill="#010101" width="1" height="1"/>
	</g>
	<g display="inline">
		<rect x="4" y="26" fill="#010101" width="1" height="1"/>
		<rect x="5" y="27" fill="#010101" width="1" height="1"/>
	</g>
	<g display="inline">
		<rect x="6" y="26" fill="#010101" width="1" height="1"/>
		<rect x="7" y="27" fill="#010101" width="1" height="1"/>
	</g>
	<g display="inline">
		<rect x="8" y="26" fill="#010101" width="1" height="1"/>
		<rect x="9" y="27" fill="#010101" width="1" height="1"/>
	</g>
	<g display="inline">
		<rect x="10" y="26" fill="#010101" width="1" height="1"/>
		<rect x="11" y="27" fill="#010101" width="1" height="1"/>
	</g>
	<g display="inline">
		<rect x="12" y="26" fill="#010101" width="1" height="1"/>
		<rect x="13" y="27" fill="#010101" width="1" height="1"/>
	</g>
	<g display="inline">
		<rect x="14" y="26" fill="#010101" width="1" height="1"/>
		<rect x="15" y="27" fill="#010101" width="1" height="1"/>
	</g>
	<g display="inline">
		<rect x="16" y="26" fill="#010101" width="1" height="1"/>
		<rect x="17" y="27" fill="#010101" width="1" height="1"/>
	</g>
	<g display="inline">
		<rect x="18" y="26" fill="#010101" width="1" height="1"/>
		<rect x="19" y="27" fill="#010101" width="1" height="1"/>
	</g>
	<g display="inline">
		<rect x="20" y="26" fill="#010101" width="1" height="1"/>
		<rect x="21" y="27" fill="#010101" width="1" height="1"/>
	</g>
	<g display="inline">
		<rect x="22" y="26" fill="#010101" width="1" height="1"/>
		<rect x="23" y="27" fill="#010101" width="1" height="1"/>
	</g>
	<g display="inline">
		<rect x="24" y="26" fill="#010101" width="1" height="1"/>
		<rect x="25" y="27" fill="#010101" width="1" height="1"/>
	</g>
	<g display="inline">
		<rect x="26" y="26" fill="#010101" width="1" height="1"/>
		<rect x="27" y="27" fill="#010101" width="1" height="1"/>
	</g>
</g>
<rect y="-0.031" display="none" opacity="0.1" fill="#010101" width="28" height="28"/>
<g transform="translate(0,-952.36218)" display="none">
	<path display="inline" fill="#010101" d="M13.993,955.414c-0.204,0.009-0.406,0.084-0.61,0.212l-12.605,9.946
		c-0.321,0.32-0.546,1.016-0.214,1.442c0.332,0.418,1.037,0.482,1.442,0.12l11.987-9.454l11.986,9.454
		c0.422,0.362,1.132,0.31,1.454-0.12c0.276-0.385,0.211-1.122-0.22-1.442l-12.602-9.946
		C14.399,955.477,14.196,955.413,13.993,955.414z M6.038,965.123l-1.99,1.583v9.601c0,0.556,0.44,1.004,0.996,1.004h6.298
		c0.554,0,0.995-0.448,0.995-1.004v-3.978c0-0.94,0.727-1.668,1.657-1.668c0.941,0,1.668,0.728,1.668,1.668v3.978
		c0,0.556,0.439,1.004,0.984,1.004h6.312c0.543,0,0.989-0.448,0.989-1.004v-9.601l-1.986-1.583v10.194h-4.309v-2.988
		c0-2.009-1.647-3.644-3.658-3.644c-2,0-3.646,1.635-3.646,3.644v2.988H6.038V965.123z"/>
</g>
<path display="none" fill="#010101" d="M23.632,4.364c-0.485-0.486-1.273-0.486-1.764,0l-7.86,7.862L6.145,4.364
	C5.649,3.886,4.857,3.896,4.378,4.396c-0.465,0.486-0.465,1.253,0,1.736l7.862,7.861l-7.862,7.859
	c-0.497,0.48-0.507,1.271-0.031,1.767c0.479,0.496,1.271,0.51,1.767,0.029c0.01-0.01,0.021-0.02,0.031-0.029l7.863-7.861l7.86,7.861
	c0.496,0.481,1.285,0.464,1.764-0.031c0.473-0.481,0.473-1.251,0-1.735l-7.857-7.859l7.857-7.861
	C24.123,5.643,24.123,4.854,23.632,4.364z"/>
<g transform="translate(0,-290.64999)" display="none">
	<path display="inline" d="M14.005,294.15c-3.152,0-5.729,2.579-5.729,5.734c0,1.8,0.843,3.41,2.147,4.463
		c-4.028,1.473-6.923,5.334-6.923,9.87c0.011,0.528,0.447,0.943,0.976,0.933c0.508-0.01,0.921-0.422,0.932-0.933
		c0-4.759,3.84-8.599,8.597-8.599c4.754,0,8.587,3.84,8.587,8.599c0.012,0.528,0.447,0.943,0.975,0.933
		c0.514-0.01,0.924-0.422,0.934-0.933c0-4.535-2.89-8.396-6.922-9.87c1.309-1.053,2.146-2.663,2.146-4.463
		C19.724,296.729,17.153,294.15,14.005,294.15z M14.005,296.061c2.118,0,3.807,1.7,3.807,3.824c0,2.124-1.688,3.818-3.807,3.818
		c-2.122,0-3.821-1.694-3.821-3.818C10.184,297.761,11.883,296.061,14.005,296.061z"/>
</g>
<g>
	<path d="M20.287,23.969c1.261,0,2.283-1.022,2.283-2.286V9.326c0-0.547-0.19-1.094-0.572-1.498l-2.688-3.073
		c-0.432-0.498-1.072-0.786-1.715-0.786H7.713c-1.262,0-2.284,1.025-2.284,2.287v15.427c0,1.264,1.022,2.286,2.284,2.286H20.287z
		 M18.523,6.731l1.332,1.524h-0.949c-0.215,0-0.383-0.168-0.383-0.382V6.731z M7.332,21.683V6.256c0-0.217,0.168-0.382,0.382-0.382
		h8.902v1.999c0,1.262,1.025,2.291,2.291,2.291h1.759v11.519c0,0.217-0.165,0.381-0.378,0.381H7.713
		C7.5,22.063,7.332,21.899,7.332,21.683z"/>
	<path d="M9.952,10.164h4.047c0.524,0,0.954-0.431,0.954-0.958c0-0.524-0.43-0.951-0.954-0.951H9.952
		c-0.524,0-0.954,0.427-0.954,0.951C8.998,9.733,9.428,10.164,9.952,10.164z"/>
	<path d="M9.952,13.495h8.097c0.523,0,0.95-0.43,0.95-0.951c0-0.527-0.427-0.958-0.95-0.958H9.952c-0.524,0-0.954,0.43-0.954,0.958
		C8.998,13.065,9.428,13.495,9.952,13.495z"/>
	<path d="M9.952,16.826h8.097c0.523,0,0.95-0.43,0.95-0.95c0-0.524-0.427-0.954-0.95-0.954H9.952c-0.524,0-0.954,0.43-0.954,0.954
		C8.998,16.396,9.428,16.826,9.952,16.826z"/>
	<path d="M9.952,20.158h8.097c0.523,0,0.95-0.427,0.95-0.951c0-0.52-0.427-0.951-0.95-0.951H9.952c-0.524,0-0.954,0.432-0.954,0.951
		C8.998,19.731,9.428,20.158,9.952,20.158z"/>
</g>
</svg>
