<?xml version="1.0" encoding="utf-8"?>
<!-- Generator: Adobe Illustrator 16.0.0, SVG Export Plug-In . SVG Version: 6.00 Build 0)  -->
<!DOCTYPE svg PUBLIC "-//W3C//DTD SVG 1.1//EN" "http://www.w3.org/Graphics/SVG/1.1/DTD/svg11.dtd">
<svg version="1.1" id="레이어_1" xmlns="http://www.w3.org/2000/svg" xmlns:xlink="http://www.w3.org/1999/xlink" x="0px"
	 y="0px" width="40px" height="40px" viewBox="0 0 40 40" enable-background="new 0 0 40 40" xml:space="preserve">
<circle fill="#E6E6E6" cx="20" cy="20" r="20"/>
<g id="soc020_2_" display="none">
	<g id="Regular-10_2_" display="inline">
		<g id="layer1_2_">
			<path id="path2830_2_" fill="#1EC700" d="M11.359,12.325l-0.05,15.302l6.015,0.023l0.024-6.187l-0.396-1.937l5.694,8.1
				l6.042,0.048l-0.026-15.302l-6.039-0.023l0.125,6.312l0.393,2.251l-5.793-8.563L11.359,12.325z"/>
		</g>
	</g>
</g>
<circle fill="#E6E6E6" cx="20" cy="20" r="20"/>
<g id="Regular_2_">
	<g id="_80-facebook_2_">
		<path fill="#3B5CA8" d="M26.19,16.122h-4.643v-3.104c0-0.854,0.692-1.549,1.546-1.554h1.547V7.585h-3.093
			c-2.569,0.005-4.646,2.088-4.643,4.654l0,0v3.883H13.81V20h3.092v12.415h4.646V20h3.093L26.19,16.122z"/>
	</g>
</g>
</svg>
