<svg xmlns="http://www.w3.org/2000/svg" viewBox="0 0 174.18 44.39"><defs><style>.cls-1{fill:#fff;}.cls-2{fill:#ff8e0b;}</style></defs><g id="레이어_2" data-name="레이어 2"><g id="레이어_2-2" data-name="레이어 2"><path class="cls-1" d="M45.58,32.07a2.46,2.46,0,0,0,2.68-2.68V26.1a2.46,2.46,0,0,0-2.68-2.68H11.12c-.91,0-1.2-.22-1.28-.31a2,2,0,0,1-.32-1.29v-.29a2.09,2.09,0,0,1,.33-1.28,1.8,1.8,0,0,1,1.27-.32h28.8c6,0,9.21-3.19,9.21-9.22V9.21a9.31,9.31,0,0,0-2.37-6.8C45.18.81,42.88,0,39.92,0H4.06A2.43,2.43,0,0,0,1.45,2.68V6A2.43,2.43,0,0,0,4.06,8.65H38c.91,0,1.2.22,1.28.31a2,2,0,0,1,.32,1.29v.29a2.09,2.09,0,0,1-.33,1.28,1.8,1.8,0,0,1-1.27.32H9.21c-6,0-9.21,3.19-9.21,9.21v1.51a9.31,9.31,0,0,0,2.37,6.8c1.58,1.6,3.88,2.41,6.84,2.41Z"/><path class="cls-1" d="M167.28,32.07a2.46,2.46,0,0,1-2.68-2.68V11.64a2.92,2.92,0,0,0-.78-2.21,2.92,2.92,0,0,0-2.21-.78H149.06a2.94,2.94,0,0,0-2.21.78,3,3,0,0,0-.78,2.21V29.39a2.46,2.46,0,0,1-2.67,2.68h-4.22a2.46,2.46,0,0,1-2.68-2.68V11.64a3,3,0,0,0-.78-2.21,2.94,2.94,0,0,0-2.21-.78H121a2.92,2.92,0,0,0-2.21.78,2.92,2.92,0,0,0-.78,2.21V29.39a2.46,2.46,0,0,1-2.68,2.68h-4.22a2.43,2.43,0,0,1-2.62-2.68V10.08a9.92,9.92,0,0,1,2.78-7.3A9.94,9.94,0,0,1,118.53,0h15.38a9.92,9.92,0,0,1,5,1.2,8.73,8.73,0,0,1,2.41,2,8.46,8.46,0,0,1,2.38-2,9.92,9.92,0,0,1,5-1.2H164a10,10,0,0,1,7.33,2.77,9.9,9.9,0,0,1,2.81,7.31V29.39a2.46,2.46,0,0,1-2.68,2.68Z"/><path class="cls-2" d="M100.94,2.78A10,10,0,0,0,93.61,0H63.54a9.9,9.9,0,0,0-7.29,2.78,9.88,9.88,0,0,0-2.78,7.3v22h0V44.39H63L75.3,32.07H93.61a10,10,0,0,0,7.33-2.78,9.86,9.86,0,0,0,2.81-7.3V10.08A9.86,9.86,0,0,0,100.94,2.78ZM94.18,20.43a2.72,2.72,0,0,1-3,3H71.72L64.17,31h0L63,32.15V11.64a3,3,0,0,1,.78-2.21A2.94,2.94,0,0,1,66,8.65H91.19a2.94,2.94,0,0,1,2.21.78,3,3,0,0,1,.78,2.21Z"/></g></g></svg>