<svg xmlns="http://www.w3.org/2000/svg" viewBox="0 0 59.2 46"><defs><style>.cls-1{fill:#fff;}</style></defs><g id="레이어_2" data-name="레이어 2"><g id="레이어_1-2" data-name="레이어 1"><path class="cls-1" d="M58.08,21.21,31.4.6a2.84,2.84,0,0,0-3.49,0L1.13,21.21a2.86,2.86,0,0,0-.5,4.08,2.88,2.88,0,0,0,4.08.5L9,22.5V43.11A2.89,2.89,0,0,0,11.88,46H47.43a2.88,2.88,0,0,0,2.88-2.89V22.5l4.29,3.29a3,3,0,0,0,1.79.6,3,3,0,0,0,2.29-1.1A3.09,3.09,0,0,0,58.08,21.21Zm-13.54,19H14.67V18L29.6,6.57,44.54,18Z"/></g></g></svg>