<svg xmlns="http://www.w3.org/2000/svg" width="19.85" height="23.282" viewBox="0 0 19.85 23.282">
  <g id="그룹_450" data-name="그룹 450" transform="translate(-3264.862 -1676.844)">
    <path id="패스_1015" data-name="패스 1015" d="M3283.935,1700.126a.787.787,0,0,1-.389-.1l-8.759-5.07-8.76,5.07a.776.776,0,0,1-1.165-.671v-21.73a.776.776,0,0,1,.775-.776h18.3a.777.777,0,0,1,.777.776v21.73a.777.777,0,0,1-.777.776Zm-9.148-6.849a.77.77,0,0,1,.388.1l7.984,4.622V1678.4h-16.745V1698l7.983-4.622A.777.777,0,0,1,3274.787,1693.277Z"/>
    <path id="패스_1016" data-name="패스 1016" d="M3274.788,1680.985l1.625,3.292,3.632.529-2.627,2.562.618,3.618-3.248-1.708-3.248,1.708.619-3.618-2.629-2.562,3.633-.529Z"/>
  </g>
</svg>
