<svg xmlns="http://www.w3.org/2000/svg" width="26.649" height="23.193" viewBox="0 0 26.649 23.193">
  <path id="패스_590" data-name="패스 590" d="M4691.365,355.422c0-3.985-3.083-8.251-7.675-8.251a6.756,6.756,0,0,0-5.361,2.486.389.389,0,0,1-.577,0,6.761,6.761,0,0,0-5.362-2.486c-4.591,0-7.674,4.266-7.674,8.251,0,4.788,8.055,11.549,12.815,14.788a.923.923,0,0,0,1.018,0C4683.31,366.969,4691.365,360.208,4691.365,355.422Zm-13.107,12.787a.377.377,0,0,1-.435,0c-4.2-2.982-11.3-9.03-11.3-12.787,0-2.7,2.037-6.443,5.862-6.443a5.19,5.19,0,0,1,4.8,3.162.908.908,0,0,0,.845.588.92.92,0,0,0,.85-.578,5.22,5.22,0,0,1,4.805-3.172c3.825,0,5.863,3.741,5.863,6.443C4689.553,359.187,4682.165,365.432,4678.258,368.209Z" transform="translate(-4664.716 -347.171)"/>
</svg>
