<svg xmlns="http://www.w3.org/2000/svg" width="19.917" height="20.32" viewBox="0 0 19.917 20.32">
  <g id="그룹_200" data-name="그룹 200" transform="translate(-889.043 -885.198)">
    <path id="패스_672" data-name="패스 672" d="M908.96,895.583a8.632,8.632,0,0,0-.217-2.076H899.2v3.77h5.6a4.958,4.958,0,0,1-2.074,3.3l-.021.127,3.015,2.336.21.02a9.929,9.929,0,0,0,3.028-7.473" fill="#3e81f0"/>
    <path id="패스_673" data-name="패스 673" d="M899.2,905.518a9.69,9.69,0,0,0,6.728-2.462l-3.2-2.483a6.012,6.012,0,0,1-3.524,1.017,6.121,6.121,0,0,1-5.78-4.219l-.118.006-3.137,2.429-.043.114a10.16,10.16,0,0,0,9.078,5.6" fill="#32a653"/>
    <path id="패스_674" data-name="패스 674" d="M893.424,897.371a6.26,6.26,0,0,1-.338-2.013,6.6,6.6,0,0,1,.325-2.009l0-.136-3.175-2.461-.106.045a10.148,10.148,0,0,0,0,9.123l3.3-2.549" fill="#f8ba00"/>
    <path id="패스_675" data-name="패스 675" d="M899.2,889.128a5.611,5.611,0,0,1,3.928,1.513l2.866-2.8A9.767,9.767,0,0,0,899.2,885.2a10.161,10.161,0,0,0-9.078,5.6l3.285,2.552a6.147,6.147,0,0,1,5.793-4.221" fill="#e64133"/>
  </g>
</svg>
