<svg xmlns="http://www.w3.org/2000/svg" width="16" height="38.403" viewBox="0 0 16 38.403">
  <defs>
    <style>
      .cls-1 {
        fill: #fffffe;
      }

      .cls-2 {
        fill: #439eb3;
      }

      .cls-3 {
        fill: #fff;
        stroke: #000;
        stroke-width: 0.75px;
      }
    </style>
  </defs>
  <g id="그룹_640" data-name="그룹 640" transform="translate(-2931.396 -1756.335)">
    <g id="그룹_244" data-name="그룹 244">
      <g id="그룹_639" data-name="그룹 639">
        <g id="그룹_240" data-name="그룹 240">
          <g id="그룹_222" data-name="그룹 222">
            <path id="패스_248" data-name="패스 248" d="M2939.4,1794.738a.44.44,0,0,1-.441-.441v-2.683a.441.441,0,1,1,.882,0v2.683A.44.44,0,0,1,2939.4,1794.738Z"/>
          </g>
          <g id="그룹_223" data-name="그룹 223">
            <path id="패스_249" data-name="패스 249" d="M2942.416,1793.929a.441.441,0,0,1-.383-.22l-1.342-2.324a.442.442,0,0,1,.765-.442l1.341,2.324a.441.441,0,0,1-.381.662Z"/>
          </g>
          <g id="그룹_224" data-name="그룹 224">
            <path id="패스_250" data-name="패스 250" d="M2944.625,1791.719a.43.43,0,0,1-.22-.06l-2.324-1.341a.441.441,0,1,1,.442-.764l2.323,1.341a.441.441,0,0,1-.221.824Z"/>
          </g>
          <g id="그룹_225" data-name="그룹 225">
            <path id="패스_251" data-name="패스 251" d="M2945.435,1788.7h-2.683a.441.441,0,0,1,0-.883h2.683a.441.441,0,0,1,0,.883Z"/>
          </g>
          <g id="그룹_226" data-name="그룹 226">
            <path id="패스_252" data-name="패스 252" d="M2942.3,1787.02a.441.441,0,0,1-.222-.823l2.324-1.342a.441.441,0,1,1,.441.764l-2.323,1.342A.434.434,0,0,1,2942.3,1787.02Z"/>
          </g>
          <g id="그룹_227" data-name="그룹 227">
            <path id="패스_253" data-name="패스 253" d="M2939.4,1785.342a.441.441,0,0,1-.441-.441v-2.683a.441.441,0,1,1,.882,0v2.683A.441.441,0,0,1,2939.4,1785.342Z"/>
          </g>
          <g id="그룹_228" data-name="그룹 228">
            <path id="패스_254" data-name="패스 254" d="M2936.488,1787.02a.428.428,0,0,1-.22-.059l-2.324-1.342a.441.441,0,0,1,.442-.764l2.323,1.342a.441.441,0,0,1-.221.823Z"/>
          </g>
          <g id="그룹_229" data-name="그룹 229">
            <path id="패스_255" data-name="패스 255" d="M2936.038,1788.7h-2.682a.441.441,0,1,1,0-.883h2.682a.441.441,0,1,1,0,.883Z"/>
          </g>
          <g id="그룹_230" data-name="그룹 230">
            <path id="패스_256" data-name="패스 256" d="M2934.166,1791.719a.442.442,0,0,1-.222-.824l2.324-1.341a.441.441,0,1,1,.441.764l-2.323,1.341A.435.435,0,0,1,2934.166,1791.719Z"/>
          </g>
          <g id="그룹_231" data-name="그룹 231">
            <path id="패스_257" data-name="패스 257" d="M2936.375,1793.929a.441.441,0,0,1-.382-.662l1.342-2.324a.441.441,0,0,1,.764.442l-1.342,2.324A.44.44,0,0,1,2936.375,1793.929Z"/>
          </g>
          <g id="그룹_239" data-name="그룹 239">
            <g id="그룹_232" data-name="그룹 232">
              <path id="패스_258" data-name="패스 258" class="cls-1" d="M2940.868,1785.632l-1.473,2.625-1.473-2.625v-13.019h2.945Z"/>
              <path id="패스_259" data-name="패스 259" d="M2939.4,1788.7a.443.443,0,0,1-.385-.226l-1.472-2.624a.436.436,0,0,1-.057-.217v-13.018a.441.441,0,0,1,.441-.441h2.946a.441.441,0,0,1,.441.441v13.018a.436.436,0,0,1-.057.217l-1.472,2.624A.442.442,0,0,1,2939.4,1788.7Zm-1.031-3.182,1.031,1.838,1.031-1.838v-12.462h-2.062Zm2.5.115h0Z"/>
            </g>
            <g id="그룹_234" data-name="그룹 234">
              <path id="패스_260" data-name="패스 260" class="cls-2" d="M2939.4,1762.283h0a5.111,5.111,0,0,1-4.784-3.257l-1.019-2.25H2945.2l-1.02,2.25A5.11,5.11,0,0,1,2939.4,1762.283Z"/>
              <g id="그룹_233" data-name="그룹 233">
                <path id="패스_261" data-name="패스 261" d="M2939.4,1762.724a5.518,5.518,0,0,1-5.186-3.516l-1.019-2.25a.44.44,0,0,1,.4-.623H2945.2a.441.441,0,0,1,.4.623l-1.02,2.25A5.518,5.518,0,0,1,2939.4,1762.724Zm-5.118-5.507.736,1.627a4.7,4.7,0,0,0,8.764,0l.737-1.627Z"/>
              </g>
            </g>
            <g id="그룹_236" data-name="그룹 236">
              <path id="패스_262" data-name="패스 262" class="cls-2" d="M2939.4,1767.352h0a6.654,6.654,0,0,0-6.231,4.242l-1.327,2.929h15.117l-1.328-2.929A6.653,6.653,0,0,0,2939.4,1767.352Z"/>
              <g id="그룹_235" data-name="그룹 235">
                <path id="패스_263" data-name="패스 263" d="M2946.954,1774.965h-15.117a.441.441,0,0,1-.4-.623l1.327-2.931a7.138,7.138,0,0,1,13.266,0l1.328,2.931a.441.441,0,0,1-.4.623Zm-14.433-.883h13.748l-1.045-2.307a6.257,6.257,0,0,0-11.658,0Z"/>
              </g>
            </g>
            <g id="그룹_238" data-name="그룹 238">
              <rect id="사각형_70" data-name="사각형 70" class="cls-2" width="7.278" height="7.563" transform="translate(2935.756 1760.856)"/>
              <g id="그룹_237" data-name="그룹 237">
                <path id="패스_264" data-name="패스 264" d="M2943.034,1768.86h-7.278a.441.441,0,0,1-.441-.441v-7.563a.442.442,0,0,1,.441-.441h7.278a.442.442,0,0,1,.442.441v7.563A.441.441,0,0,1,2943.034,1768.86Zm-6.836-.882h6.4v-6.68h-6.4Z"/>
              </g>
            </g>
          </g>
        </g>
      </g>
      <g id="그룹_243" data-name="그룹 243">
        <g id="그룹_241" data-name="그룹 241">
          <path id="패스_265" data-name="패스 265" class="cls-3" d="M2946.017,1768.476a2.887,2.887,0,1,1-2.887-2.887A2.888,2.888,0,0,1,2946.017,1768.476Z"/>
          <path id="패스_266" data-name="패스 266" d="M2943.382,1768.649a1.484,1.484,0,1,1-1.484-1.483A1.484,1.484,0,0,1,2943.382,1768.649Z"/>
        </g>
        <g id="그룹_242" data-name="그룹 242">
          <path id="패스_267" data-name="패스 267" class="cls-3" d="M2938.548,1768.476a2.887,2.887,0,1,1-2.887-2.887A2.888,2.888,0,0,1,2938.548,1768.476Z"/>
          <path id="패스_268" data-name="패스 268" d="M2935.913,1768.649a1.484,1.484,0,1,1-1.484-1.483A1.484,1.484,0,0,1,2935.913,1768.649Z"/>
        </g>
      </g>
    </g>
  </g>
</svg>
