<svg xmlns="http://www.w3.org/2000/svg" width="26.433" height="26.432" viewBox="0 0 26.433 26.432">
  <path id="패스_911" data-name="패스 911" d="M3241.632,1527.634a.763.763,0,0,1-.216-.031l-7.034-2.111a12.663,12.663,0,0,1-5.632,1.31,12.8,12.8,0,1,1,11.457-7.095l2.142,6.957a.75.75,0,0,1-.717.97Zm-7.321-3.7a.731.731,0,0,1,.216.032l5.975,1.793-1.818-5.906a.753.753,0,0,1,.054-.572,11.3,11.3,0,1,0-9.988,6.018,11.181,11.181,0,0,0,5.215-1.28A.749.749,0,0,1,3234.311,1523.937Z" transform="translate(-3215.949 -1501.202)"/>
</svg>
