<svg xmlns="http://www.w3.org/2000/svg" width="24.761" height="22.85" viewBox="0 0 24.761 22.85">
  <g id="그룹_199" data-name="그룹 199" transform="translate(-822.685 -883.933)">
    <path id="패스_670" data-name="패스 670" d="M835.064,883.933c-6.833,0-12.379,4.369-12.379,9.761,0,3.488,2.317,6.545,5.8,8.275-.188.653-1.216,4.206-1.259,4.485,0,0-.022.21.112.288a.364.364,0,0,0,.3.016c.391-.05,4.519-2.95,5.229-3.452a16.04,16.04,0,0,0,2.2.151c6.834,0,12.382-4.37,12.382-9.763s-5.548-9.761-12.382-9.761Z" fill="#381e1f"/>
    <path id="패스_671" data-name="패스 671" d="M828.22,897.1a.7.7,0,0,1-.714-.683v-4.24h-1.113a.7.7,0,1,1,0-1.4h3.654a.7.7,0,1,1,0,1.4h-1.114v4.24A.7.7,0,0,1,828.22,897.1Zm6.26-.013a.582.582,0,0,1-.588-.309l-.357-.929h-2.18l-.349.929a.6.6,0,0,1-.6.309,1.159,1.159,0,0,1-.452-.094c-.2-.1-.387-.344-.167-1.015l1.7-4.5a1.094,1.094,0,0,1,.955-.705,1.07,1.07,0,0,1,.95.705l1.708,4.5c.22.671.031.92-.168,1.015a1.152,1.152,0,0,1-.456.094Zm-1.321-2.5-.713-2.03-.714,2.03Zm3.1,2.411a.674.674,0,0,1-.685-.658v-4.85a.73.73,0,0,1,1.459,0v4.2h1.518a.656.656,0,1,1,0,1.311Zm3.964.09a.712.712,0,0,1-.713-.708v-4.89a.716.716,0,0,1,1.431,0v1.539l1.993-1.995a.549.549,0,0,1,.393-.159.723.723,0,0,1,.7.667.565.565,0,0,1-.154.43l-1.63,1.629L844,895.931a.736.736,0,0,1,.138.533.718.718,0,0,1-.275.469.733.733,0,0,1-.434.143.717.717,0,0,1-.569-.281l-1.676-2.223-.246.249v1.557a.712.712,0,0,1-.718.713Z" fill="#f9e000"/>
  </g>
</svg>
