<svg xmlns="http://www.w3.org/2000/svg" width="14.021" height="30.5" viewBox="0 0 14.021 30.5">
  <g id="그룹_300" data-name="그룹 300" transform="translate(-2922.189 -1416.735)">
    <g id="그룹_294" data-name="그룹 294">
      <path id="패스_862" data-name="패스 862" d="M2933.979,1434.3a7.881,7.881,0,0,0,1.981-4.778,6.76,6.76,0,1,0-13.521,0c0,2.1.39,2.989,2.21,5.328,0,0,1.2,1.691,1.484,6.088h6.1S2932,1436.865,2933.979,1434.3Z" fill="#ff0"/>
      <path id="패스_863" data-name="패스 863" d="M2932.238,1441.184h-6.34l-.015-.234c-.277-4.253-1.426-5.944-1.438-5.96-1.876-2.409-2.256-3.331-2.256-5.472a7.01,7.01,0,1,1,14.021,0,8.115,8.115,0,0,1-2.033,4.93c-1.9,2.464-1.692,6.431-1.689,6.471l.015.265Zm-5.872-.5h5.614c-.018-.962.058-4.279,1.8-6.54a7.675,7.675,0,0,0,1.93-4.626,6.51,6.51,0,1,0-13.021,0c0,2.021.342,2.843,2.158,5.174C2924.9,1434.771,2926.052,1436.44,2926.366,1440.684Z" fill="#020202"/>
    </g>
    <g id="그룹_295" data-name="그룹 295">
      <path id="패스_864" data-name="패스 864" d="M2927.412,1447.235c-.749,0-1.522-.1-1.58-.723a.8.8,0,0,1,.2-.635,1.968,1.968,0,0,1,1.376-.427h4.343a.546.546,0,1,0,0-1.069l-4.763.01a1.041,1.041,0,1,1,0-2.069h5.072c.082,0,.449-.007.522-.528.016-.135.048-.392-.579-.706a.249.249,0,0,1-.112-.335.252.252,0,0,1,.336-.112c.643.322.914.71.85,1.219a1,1,0,0,1-1.035.962h-5.054a.546.546,0,1,0,0,1.069l4.761-.01a1.041,1.041,0,1,1,0,2.069h-4.343a1.469,1.469,0,0,0-1.006.264.306.306,0,0,0-.075.252c.028.31,1.134.273,1.6.258.139-.005.267-.009.375-.009h1.835a.25.25,0,0,1,0,.5h-1.835c-.1,0-.225,0-.359.009C2927.78,1447.229,2927.6,1447.235,2927.412,1447.235Z"/>
    </g>
    <g id="그룹_296" data-name="그룹 296">
      <path id="패스_865" data-name="패스 865" d="M2929.038,1420.741a.249.249,0,0,1-.25-.246l-.063-3.506a.248.248,0,0,1,.245-.254.262.262,0,0,1,.255.245l.063,3.506a.251.251,0,0,1-.246.255Z"/>
    </g>
    <g id="그룹_297" data-name="그룹 297">
      <path id="패스_866" data-name="패스 866" d="M2926.56,1420.922a.251.251,0,0,1-.21-.113l-1.934-2.962a.25.25,0,1,1,.419-.273l1.934,2.962a.249.249,0,0,1-.209.386Z"/>
    </g>
    <g id="그룹_298" data-name="그룹 298">
      <path id="패스_867" data-name="패스 867" d="M2931.273,1420.8a.25.25,0,0,1-.228-.352l1.389-3.083a.25.25,0,0,1,.456.2l-1.389,3.083A.248.248,0,0,1,2931.273,1420.8Z"/>
    </g>
    <path id="패스_868" data-name="패스 868" d="M2927.957,1428.67a.621.621,0,0,1-.62.62h0a.622.622,0,0,1-.621-.62v-1.352a.621.621,0,0,1,.621-.619h0a.619.619,0,0,1,.62.619Z"/>
    <path id="패스_869" data-name="패스 869" d="M2931.843,1428.67a.619.619,0,0,1-.619.62h0a.62.62,0,0,1-.619-.62v-1.352a.618.618,0,0,1,.619-.619h0a.618.618,0,0,1,.619.619Z"/>
    <g id="그룹_299" data-name="그룹 299">
      <path id="패스_870" data-name="패스 870" d="M2925.834,1430.527h6.8a3.711,3.711,0,0,1-3.262,2.346S2926.373,1432.873,2925.834,1430.527Z" fill="#fff"/>
      <path id="패스_871" data-name="패스 871" d="M2929.37,1433.123c-.032,0-3.2-.029-3.78-2.54a.249.249,0,0,1,.244-.306h6.8a.251.251,0,0,1,.24.322,3.933,3.933,0,0,1-3.473,2.523Zm-3.2-2.346c.646,1.756,2.991,1.842,3.189,1.846a3.557,3.557,0,0,0,2.9-1.846Z"/>
    </g>
  </g>
</svg>
