<svg xmlns="http://www.w3.org/2000/svg" width="12.204" height="13" viewBox="0 0 12.204 13">
  <g id="그룹_274" data-name="그룹 274" transform="translate(-3255.533 -1215.25)">
    <path id="패스_818" data-name="패스 818" d="M3267.737,1221.352a6.1,6.1,0,1,0-7.731,5.882l-.568,1.016,3.207-.879A6.1,6.1,0,0,0,3267.737,1221.352Z" fill="#d94352"/>
    <g id="그룹_273" data-name="그룹 273">
      <path id="패스_819" data-name="패스 819" d="M3261.1,1223.128v-.47c0-.67.229-.979.969-1.7.469-.459.94-.819.94-1.509v-.16c0-.72-.53-1.169-1.36-1.169a2.156,2.156,0,0,0-1.659.759l-.45-.46a2.716,2.716,0,0,1,2.09-.939c1.318,0,2.1.709,2.1,1.8v.171c0,.979-.669,1.449-1.29,2.038-.439.42-.659.68-.659,1.2v.44Zm-.14.969h.959v.98h-.959Z" fill="#fff"/>
    </g>
  </g>
</svg>
