<?xml version="1.0" encoding="utf-8"?>
<!-- Generator: Adobe Illustrator 16.0.0, SVG Export Plug-In . SVG Version: 6.00 Build 0)  -->
<!DOCTYPE svg PUBLIC "-//W3C//DTD SVG 1.1//EN" "http://www.w3.org/Graphics/SVG/1.1/DTD/svg11.dtd">
<svg version="1.1" id="레이어_1" xmlns="http://www.w3.org/2000/svg" xmlns:xlink="http://www.w3.org/1999/xlink" x="0px"
	 y="0px" width="19.851px" height="23.28px" viewBox="0 0 19.851 23.28" enable-background="new 0 0 19.851 23.28"
	 xml:space="preserve">
<g id="XMLID_1_">
	<g>
		<path d="M0,22.501V0.771c0-0.43,0.35-0.77,0.78-0.77h18.3c0.42,0,0.771,0.34,0.771,0.77v21.73c0,0.28-0.15,0.54-0.391,0.67
			c-0.12,0.07-0.25,0.11-0.38,0.11c-0.14,0-0.27-0.04-0.39-0.11l-8.76-5.069l-8.76,5.069c-0.24,0.141-0.54,0.141-0.78,0
			C0.15,23.041,0,22.781,0,22.501z M12.561,10.521l2.619-2.56l-3.63-0.53l-1.62-3.29L8.3,7.431l-3.63,0.53l2.63,2.56l-0.62,3.62
			l3.25-1.71l3.25,1.71L12.561,10.521z"/>
		<polygon fill="#FFFFFF" points="15.18,7.961 12.561,10.521 13.18,14.141 9.93,12.431 6.68,14.141 7.3,10.521 4.67,7.961 
			8.3,7.431 9.93,4.141 11.55,7.431 		"/>
	</g>
	<g>
	</g>
</g>
</svg>
