<svg xmlns="http://www.w3.org/2000/svg" width="26.649" height="23.193" viewBox="0 0 26.649 23.193">
  <path id="패스_841" data-name="패스 841" d="M3069.163,2728.993c0-3.985-3.083-8.251-7.675-8.251a6.757,6.757,0,0,0-5.361,2.486.389.389,0,0,1-.577,0,6.761,6.761,0,0,0-5.362-2.486c-4.591,0-7.674,4.266-7.674,8.251,0,4.789,8.055,11.549,12.815,14.788a.922.922,0,0,0,1.018,0C3061.108,2740.541,3069.163,2733.779,3069.163,2728.993Zm-13.107,12.787a.377.377,0,0,1-.435,0c-4.2-2.982-11.3-9.03-11.3-12.787,0-2.7,2.037-6.443,5.862-6.443a5.191,5.191,0,0,1,4.8,3.162.907.907,0,0,0,.844.588.921.921,0,0,0,.851-.577,5.218,5.218,0,0,1,4.8-3.173c3.825,0,5.863,3.742,5.863,6.443C3067.351,2732.758,3059.962,2739,3056.056,2741.78Z" transform="translate(-3042.514 -2720.742)" fill="#ccc"/>
</svg>
