<svg xmlns="http://www.w3.org/2000/svg" width="22.762" height="25" viewBox="0 0 22.762 25">
  <g id="그룹_108" data-name="그룹 108" transform="translate(-2927.48 -228.023)">
    <path id="패스_466" data-name="패스 466" d="M2949.269,251.076h-17.706a.973.973,0,1,0,0,1.947h17.706a.973.973,0,0,0,0-1.947" fill="#d94352"/>
    <path id="패스_467" data-name="패스 467" d="M2949.269,242.076h-17.706a.974.974,0,1,0,0,1.948h17.706a.974.974,0,0,0,0-1.948" fill="#3badd8"/>
    <path id="패스_468" data-name="패스 468" d="M2949.269,233.077h-15.96a26.216,26.216,0,0,0,1.336-3.844.975.975,0,0,0-.708-1.179.956.956,0,0,0-.739.108.972.972,0,0,0-.444.6,25.65,25.65,0,0,1-1.569,4.3,17.539,17.539,0,0,1-3.341,5.288.972.972,0,1,0,1.22,1.514,16.171,16.171,0,0,0,3.336-4.838h16.869a.974.974,0,0,0,0-1.948" fill="#323031"/>
  </g>
</svg>
