<svg xmlns="http://www.w3.org/2000/svg" width="24.005" height="25.75" viewBox="0 0 24.005 25.75">
  <path id="패스_838" data-name="패스 838" d="M3171.247,2741.826l-3.038-5.516v-7.662a8.546,8.546,0,0,0-8.537-8.537H3159a8.547,8.547,0,0,0-8.537,8.537v7.662l-3.038,5.516a.75.75,0,0,0,.657,1.112h7.656a3.674,3.674,0,0,0,7.192,0h7.657a.75.75,0,0,0,.656-1.112Zm-19.28-13.178a7.045,7.045,0,0,1,7.037-7.037h.668a7.045,7.045,0,0,1,7.037,7.037v7.1h-14.742Zm-2.612,12.79,2.306-4.186h15.355l2.3,4.186Z" transform="translate(-3147.336 -2720.111)" fill="#ccc"/>
</svg>
