<svg xmlns="http://www.w3.org/2000/svg" width="27" height="29.142" viewBox="0 0 27 29.142">
  <g id="그룹_277" data-name="그룹 277" transform="translate(-2920.074 -1254.25)">
    <path id="패스_821" data-name="패스 821" d="M2943.271,1260.588a13.087,13.087,0,0,0-8.572-3.886v-2.452h-2v2.452a13.3,13.3,0,1,0,10.572,3.886Z" fill="#3badd8"/>
    <path id="패스_822" data-name="패스 822" d="M2943.271,1260.588a13.087,13.087,0,0,0-8.572-3.886v-2.452h-2v2.452a13.3,13.3,0,1,0,10.572,3.886Zm-1.925,17.273a11.078,11.078,0,1,1,0-15.659A11.121,11.121,0,0,1,2941.346,1277.861Z"/>
    <path id="패스_823" data-name="패스 823" d="M2935.4,1269.916a1.808,1.808,0,1,1-2.145-1.753v-7.215a.339.339,0,1,1,.677.013v7.2a1.453,1.453,0,0,1,.942.513l5.751-2.176a.673.673,0,1,1,.515,1.243l-5.74,2.173Z"/>
  </g>
</svg>
