<?xml version="1.0" encoding="utf-8"?>
<!-- Generator: Adobe Illustrator 25.2.3, SVG Export Plug-In . SVG Version: 6.00 Build 0)  -->
<svg version="1.1" id="레이어_1" xmlns="http://www.w3.org/2000/svg" xmlns:xlink="http://www.w3.org/1999/xlink" x="0px"
	 y="0px" viewBox="0 0 57.1 18.4" style="enable-background:new 0 0 57.1 18.4;" xml:space="preserve">
<style type="text/css">
	.st0{fill:#FFFFFF;}
</style>
<g id="레이어_2_1_">
	<g id="레이어_1-2">
		<path class="st0" d="M7.7,10.1c-0.1,0.3-0.3,0.7-0.6,0.9c-0.3,0.3-0.6,0.5-0.9,0.6c-0.4,0.2-0.8,0.2-1.1,0.2
			c-0.4,0-0.8-0.1-1.1-0.2C3.6,11.5,3.3,11.3,3,11c-0.8-0.8-1.1-2.1-0.6-3.1C2.5,7.5,2.7,7.2,3,7c0.3-0.3,0.6-0.5,0.9-0.6
			C4.3,6.2,4.6,6.1,5,6.1c0.4,0,0.8,0.1,1.1,0.2C6.5,6.5,6.8,6.7,7.1,7c0.3,0.3,0.5,0.6,0.6,0.9C8,8.6,8,9.4,7.7,10.1 M8.6,5.5
			C7.6,4.5,6.3,4,5,4C4,4,3,4.3,2.1,4.9V0H0v9c0,0.7,0.1,1.3,0.4,1.9C0.7,11.5,1,12,1.5,12.5c0.5,0.5,1,0.8,1.6,1.1
			C3.7,13.8,4.3,14,5,14c0.7,0,1.4-0.1,2-0.4c0.6-0.3,1.1-0.6,1.6-1.1c0.5-0.5,0.8-1,1.1-1.6c0.3-0.6,0.4-1.3,0.4-2
			c0-0.7-0.1-1.4-0.4-2C9.4,6.4,9,5.9,8.6,5.5"/>
		<rect x="11" y="4.2" class="st0" width="2.1" height="9.6"/>
		<rect x="11" class="st0" width="2.1" height="2.7"/>
		<path class="st0" d="M31.7,11.6c-0.2-0.1-0.3-0.3-0.3-0.5V0h-2.1v11.1c0,0.4,0.1,0.8,0.3,1.1c0.2,0.3,0.4,0.6,0.7,0.9
			c0.3,0.3,0.6,0.5,1,0.6c0.4,0.1,0.8,0.2,1.2,0.2h0.3v-2.1h-0.3C32.2,11.8,31.9,11.8,31.7,11.6"/>
		<rect x="33.7" class="st0" width="2.1" height="2.7"/>
		<path class="st0" d="M46.2,5.4c-0.5-0.4-1-0.8-1.6-1.1c-1.3-0.5-2.7-0.5-3.9,0c-0.6,0.3-1.1,0.6-1.6,1.1c-1,0.9-1.5,2.2-1.5,3.6
			v4.8h2.1V9c0-0.4,0.1-0.8,0.2-1.1c0.2-0.3,0.4-0.7,0.6-0.9c0.3-0.3,0.6-0.5,0.9-0.6c0.7-0.3,1.5-0.3,2.3,0
			c0.3,0.1,0.7,0.3,0.9,0.6c0.3,0.3,0.5,0.6,0.6,0.9c0.1,0.4,0.2,0.7,0.2,1.1v4.8h2.1V9C47.6,7.7,47.1,6.4,46.2,5.4"/>
		<polygon class="st0" points="57.1,4.2 54.1,4.2 50.8,7.5 50.8,0 48.7,0 48.7,13.8 50.8,13.8 50.8,10.4 54.1,13.8 57.1,13.8 
			52.3,9 		"/>
		<path class="st0" d="M41.7,12.9c0,0.4-0.1,0.8-0.2,1.1c-0.1,0.3-0.4,0.7-0.6,0.9c-0.5,0.5-1.2,0.8-2,0.8c-0.4,0-0.8-0.1-1.1-0.2
			c-0.3-0.1-0.7-0.3-0.9-0.6c-0.3-0.3-0.5-0.6-0.6-0.9c-0.1-0.4-0.2-0.7-0.2-1.1V4.2h-2.2v8.8c0,1.3,0.5,2.6,1.5,3.5
			c0.5,0.4,1,0.8,1.6,1.1c0.6,0.3,1.3,0.4,2,0.4c0.7,0,1.4-0.1,2-0.4c0.6-0.3,1.1-0.6,1.6-1.1c0.5-0.5,0.8-1,1.1-1.6
			c0.3-0.6,0.4-1.3,0.4-1.9V8.6h-2.2V12.9z"/>
		<path class="st0" d="M19.3,4.2c-0.7,0-1.4,0.1-2,0.4c-0.6,0.3-1.2,0.7-1.6,1.1c-1,1-1.5,2.3-1.5,3.6c0,1.3,0.5,2.6,1.5,3.5
			c1,0.9,2.3,1.4,3.7,1.4c0.8,0,1.6-0.2,2.4-0.5h0.1v-2.1l-0.2,0.1c-0.4,0.2-0.7,0.3-1.1,0.5c-0.3,0.1-0.6,0.1-0.9,0.1
			c-0.9,0-1.8-0.3-2.4-0.9c-0.6-0.6-0.9-1.4-0.9-2.3c0-0.8,0.3-1.6,0.8-2.2c0.6-0.6,1.3-0.9,2.1-0.9c0.8,0,1.6,0.3,2.2,0.9
			c0.6,0.7,0.9,1.5,0.9,2.4v3.7c0,0.9-0.3,1.8-1,2.5c-0.8,0.6-1.8,1-2.8,0.9c-0.7,0-1.3-0.2-1.9-0.5l-0.2,0v2h0.1
			c0.7,0.2,1.5,0.4,2.2,0.4c1.5,0.1,3-0.5,4.1-1.5c1-1,1.6-2.4,1.6-3.8V9.4c0.1-1.4-0.5-2.7-1.4-3.8C21.9,4.7,20.6,4.1,19.3,4.2"/>
	</g>
</g>
</svg>
