<svg xmlns="http://www.w3.org/2000/svg" viewBox="0 0 174.13 44.41"><defs><style>.cls-1{fill:#fff;}.cls-2{fill:#f60;}</style></defs><g id="레이어_2" data-name="레이어 2"><g id="레이어_1-2" data-name="레이어 1"><path class="cls-1" d="M45.63,32.11a2.48,2.48,0,0,0,2.7-2.2v-3.8a2.48,2.48,0,0,0-2.2-2.7h-35c-.9,0-1.2-.2-1.3-.3a1.52,1.52,0,0,1-.3-1.3v-.3a2.77,2.77,0,0,1,.3-1.3,1.52,1.52,0,0,1,1.3-.3h28.8c6,0,9.2-3.2,9.2-9.2V9.21a9.08,9.08,0,0,0-2.4-6.8C45.23.81,42.93,0,39.93,0H4.13a2.54,2.54,0,0,0-2.7,2.2V6a2.44,2.44,0,0,0,2.2,2.6H38c.9,0,1.2.2,1.3.3a1.52,1.52,0,0,1,.3,1.3v.3a2.77,2.77,0,0,1-.3,1.3,1.52,1.52,0,0,1-1.3.3H9.23c-6,0-9.2,3.2-9.2,9.2v1.5a9.08,9.08,0,0,0,2.4,6.8A9.25,9.25,0,0,0,9.23,32h36.4Z"/><path class="cls-1" d="M167.33,32.11a2.48,2.48,0,0,1-2.7-2.2V11.61a2.65,2.65,0,0,0-.8-2.2,3,3,0,0,0-2.2-.8H149a2.65,2.65,0,0,0-2.2.8,3.49,3.49,0,0,0-.8,2.2v17.8a2.48,2.48,0,0,1-2.2,2.7h-4.7a2.48,2.48,0,0,1-2.7-2.2V11.61a2.65,2.65,0,0,0-.8-2.2,3,3,0,0,0-2.2-.8H121a2.65,2.65,0,0,0-2.2.8,3,3,0,0,0-.8,2.2v17.8a2.48,2.48,0,0,1-2.2,2.7h-4.7a2.44,2.44,0,0,1-2.6-2.2V10.11a10,10,0,0,1,2.8-7.3,9.86,9.86,0,0,1,7.3-2.8H134a10.84,10.84,0,0,1,5,1.2,9.14,9.14,0,0,1,2.4,2,9.14,9.14,0,0,1,2.4-2,10.84,10.84,0,0,1,5-1.2H164a9.86,9.86,0,0,1,7.3,2.8,9.86,9.86,0,0,1,2.8,7.3v19.3a2.48,2.48,0,0,1-2.2,2.7h-4.6Z"/><path class="cls-2" d="M100.93,2.81A10,10,0,0,0,93.63,0H63.53a10,10,0,0,0-7.3,2.8,9.86,9.86,0,0,0-2.8,7.3v22h0v12.3H63l12.3-12.3h18.3A9.61,9.61,0,0,0,103.73,22V10.11A9.49,9.49,0,0,0,100.93,2.81Zm-6.7,17.6a2.7,2.7,0,0,1-2.4,3H71.73L64.23,31h0L63,32.21V11.61a2.65,2.65,0,0,1,.8-2.2,3,3,0,0,1,2.2-.8h25.2a2.65,2.65,0,0,1,2.2.8,3.49,3.49,0,0,1,.8,2.2Z"/></g></g></svg>