<svg xmlns="http://www.w3.org/2000/svg" viewBox="0 0 287.97 52.87"><defs><style>.cls-1{fill:#94865c;}.cls-2{fill:#fff;}.cls-3{fill:#c8bb9b;}</style></defs><g id="레이어_2" data-name="레이어 2"><g id="레이어_1-2" data-name="레이어 1"><path class="cls-1" d="M44.47,28.58a4.34,4.34,0,0,1,0-.51c.13-1.31-.42-1.78-1.76-1.43C37.84,27.9,33,28.82,28,30.4l-.13,0c-.84.26-.84-.63-.84-.63h0c-.1-4.46-.21-4.55,4-5.62,4.95-1.27,5.93-1.34,10.9-2.56,2-.47,2.66-1.28,2.6-3.49,0-.94,0-1.81,0-2.71-.05-1.88-.71-2.48-2.27-2-5.87,1.72-7.9,1.94-13.83,3.54-.53.14-1.22.55-1.27-.52-.15-3.72,0-4.41,2.2-5,3.28-.83,6.57-1.62,9.87-2.4C44.8,7.73,44.59,8.2,44.47,2a1,1,0,0,1,0-.25C44.58,0,43.7-.21,42.27.15c-3.61.93-7.25,1.79-10.86,2.7C27.09,3.93,27,3.93,27.17,8.14c.1,2.56-.87,4-3.45,4.67-2.38.59-5.15,1.3-8,2-4.53,1.18-9.29,2.43-13,3.37-2,.5-2.59,1.59-2.65,3.58,0,.79,0,1.72,0,2.56.14,2.3.76,2.5,2.73,2,3.8-1,8.38-2.23,12.92-3.39,3.68-1,7.33-1.88,10.51-2.72,0,0,.69-.07.81.44,0,1.06-.09,2.11-.13,2.82-.08,1.64-1.07,1.91-3.46,2.56-1.62.43-5.1,1.44-8.53,2.44-4.29,1.11-8.71,2.27-12.25,3.16-2,.5-2.59,1.59-2.65,3.58,0,.79,0,1.72,0,2.56.14,2.3.76,2.51,2.73,2,3.8-1,8.38-2.28,12.92-3.45,4.11-1.15,8-2.24,10.71-3,0,0,.67-.14.67.51,0,4.41.29,4.27-3.94,5.36L14,41.59h0c-4,1-8,2.09-11.3,2.91C.65,45,.07,46.1,0,48.09c0,.79,0,1.73,0,2.56.14,2.3.76,2.51,2.73,2C6.1,51.71,10,50.69,14,49.67c2.91-.76,5.78-1.44,8.31-2.09,4.84-1.25,4.91-1.22,4.82-6.23,0-2.12.77-3.19,2.95-3.58,3.18-.59,6.27-1.43,9.38-2.2,5.6-1.38,5.24-1.31,5-7"/><path class="cls-2" d="M60.7,34.09a2.28,2.28,0,0,1,1.5-.45H75.38a2.13,2.13,0,0,0,1.83-1.13,4,4,0,0,0,.6-2.15V19.05a3.28,3.28,0,0,0-.49-2,2.08,2.08,0,0,0-1.84-.84L64,16.29a2.44,2.44,0,0,1-1.48-.39,1.41,1.41,0,0,1,0-2.28A2.52,2.52,0,0,1,64,13.23H79.84a2.5,2.5,0,0,1,2.08.9,3.9,3.9,0,0,1,.69,2.48V30.1a6.36,6.36,0,0,0,.46,2.61,5.65,5.65,0,0,0,1,1.32l.3.31c.11.18.2.32.27.45a1.25,1.25,0,0,1,.11.52,1.13,1.13,0,0,1-.54.93,2.2,2.2,0,0,1-1.43.45H62.31a2.42,2.42,0,0,1-1.54-.48,1.36,1.36,0,0,1-.57-1.09,1.3,1.3,0,0,1,.5-1"/><path class="cls-2" d="M112.21,36.24a2.07,2.07,0,0,1-1.42.48H90.33a2.35,2.35,0,0,1-1.51-.48,1.42,1.42,0,0,1-.6-1.12,1.26,1.26,0,0,1,.49-1,2.34,2.34,0,0,1,1.54-.48h20.48a2.21,2.21,0,0,1,1.48.48,1.32,1.32,0,0,1,.55,1.06,1.27,1.27,0,0,1-.55,1.06m-2-7.62a1.54,1.54,0,0,1-1.18.49H92.79A2.35,2.35,0,0,1,91,28.46a2.31,2.31,0,0,1-.64-1.73v-4.6A2.75,2.75,0,0,1,91,20.3a2.2,2.2,0,0,1,1.72-.7h10.93a1.5,1.5,0,0,0,1.1-.36,1.69,1.69,0,0,0,.41-1.28,1.81,1.81,0,0,0-.39-1.32,1.6,1.6,0,0,0-1.12-.32H92.33a2.12,2.12,0,0,1-1.43-.49,1.3,1.3,0,0,1-.52-1,1.56,1.56,0,0,1,.52-1.22,2.24,2.24,0,0,1,1.4-.42h15.78a2.71,2.71,0,0,1,1.83.58,2.23,2.23,0,0,1,.71,1.8v4.5A2.53,2.53,0,0,1,110,22a2.5,2.5,0,0,1-1.79.6H97.28a1.51,1.51,0,0,0-1.15.39,2.05,2.05,0,0,0-.38,1.38,1.88,1.88,0,0,0,.38,1.32,1.51,1.51,0,0,0,1.15.38H109a1.85,1.85,0,0,1,1.21.42,1.48,1.48,0,0,1,.47,1.1,1.39,1.39,0,0,1-.47,1"/><path class="cls-2" d="M118.93,13.55a2.35,2.35,0,0,1,1.83-.7,2.12,2.12,0,0,1,1.72.74,2.54,2.54,0,0,1,.61,1.76v7.56a1.86,1.86,0,0,0,.57,1.54,2.64,2.64,0,0,0,1.65.41h11.75a2.64,2.64,0,0,1,1.37.36,1.35,1.35,0,0,1,.68,1.15,1.24,1.24,0,0,1-.71,1.16,3.15,3.15,0,0,1-1.67.39h-4.11a1.35,1.35,0,0,0-1.29.77,4.58,4.58,0,0,0-.35,2,4,4,0,0,0,.49,2.16,1.73,1.73,0,0,0,1.53.77h5.78a2.3,2.3,0,0,1,1.51.48,1.31,1.31,0,0,1,0,2.12,2.19,2.19,0,0,1-1.43.45H118.4a2.37,2.37,0,0,1-1.53-.48,1.37,1.37,0,0,1-.58-1.09,1.32,1.32,0,0,1,.49-1,2.32,2.32,0,0,1,1.51-.45h5.89a1.74,1.74,0,0,0,1.56-.74,4,4,0,0,0,.47-2.19,5.42,5.42,0,0,0-.25-2,1.24,1.24,0,0,0-1.26-.77h-3.45a2.87,2.87,0,0,1-2.19-.84,3.13,3.13,0,0,1-.77-2.25V15.42a2.59,2.59,0,0,1,.64-1.87"/><path class="cls-2" d="M144.83,24.83a2.32,2.32,0,0,1,1.51-.45h20.49a2.25,2.25,0,0,1,1.5.48,1.28,1.28,0,0,1,0,2.1,2.06,2.06,0,0,1-1.42.47H146.45a2.42,2.42,0,0,1-1.54-.47,1.43,1.43,0,0,1-.57-1.1,1.29,1.29,0,0,1,.49-1M147,12.21a2.41,2.41,0,0,1,1.92-.68,2.29,2.29,0,0,1,1.39.42,5.54,5.54,0,0,1,.85.93,4.75,4.75,0,0,0,.8.87,2.11,2.11,0,0,0,1.28.38h6.66a2.54,2.54,0,0,0,1.31-.38,3.1,3.1,0,0,0,.85-.68l.27-.35a3.69,3.69,0,0,1,.8-.87,3,3,0,0,1,1.48-.32,2,2,0,0,1,1.56.61,2.94,2.94,0,0,1,.57,2v6.4a2.58,2.58,0,0,1-.84,1.93,3,3,0,0,1-2.06.77H149.16a2.69,2.69,0,0,1-2.06-.8,2.63,2.63,0,0,1-.62-1.77V14a2.66,2.66,0,0,1,.52-1.79M147,29a2.26,2.26,0,0,1,1.4-.39h15.8a2.72,2.72,0,0,1,1.83.55,2.15,2.15,0,0,1,.71,1.8v2.83a2.54,2.54,0,0,1-.68,1.92,2.43,2.43,0,0,1-1.78.61H153.41a2.28,2.28,0,0,0-1.15.23.64.64,0,0,0-.39.61.65.65,0,0,0,.39.55,2,2,0,0,0,1.12.25h11.75a1.69,1.69,0,0,1,1.2.45,1.45,1.45,0,0,1,.47,1.1,1.28,1.28,0,0,1-.47,1,1.53,1.53,0,0,1-1.18.48H148.89a2.41,2.41,0,0,1-1.79-.64,2.32,2.32,0,0,1-.62-1.73v-2.8a2.74,2.74,0,0,1,.58-1.86,2.21,2.21,0,0,1,1.75-.71H159.7a2.16,2.16,0,0,0,1.1-.25.62.62,0,0,0,0-1.16,2.59,2.59,0,0,0-1.13-.19H148.42a2.09,2.09,0,0,1-1.42-.52,1.27,1.27,0,0,1-.52-1A1.42,1.42,0,0,1,147,29m4.79-9.16a2.2,2.2,0,0,0,1.42.42h6.85a1.84,1.84,0,0,0,1.42-.55,1.56,1.56,0,0,0,.47-1.16,1.28,1.28,0,0,0-.47-1.06,2.13,2.13,0,0,0-1.31-.35H153.3a2.44,2.44,0,0,0-1.51.42,1.3,1.3,0,0,0-.52,1.09,1.52,1.52,0,0,0,.52,1.19"/><path class="cls-3" d="M196.85,12.75a1.87,1.87,0,0,0-1.56.66,2.74,2.74,0,0,0-.42,1.67v1.13a1.23,1.23,0,0,1-1.24,1.33,1,1,0,0,1-.73-.29,1.2,1.2,0,0,1-.41-1V14.91a2.4,2.4,0,0,0-.44-1.53,1.73,1.73,0,0,0-1.45-.63,1.67,1.67,0,0,0-1.5.8,3.37,3.37,0,0,0-.41,1.79V30a1.62,1.62,0,0,1-.74,1.48,3,3,0,0,1-1.78.43h-4.9a2.53,2.53,0,0,1-2-.7,3,3,0,0,1-.7-2.15V18.93a2.81,2.81,0,0,1,.59-1.89,2.44,2.44,0,0,1,1.95-.77h4a1.55,1.55,0,0,0,1.2-.45,1.37,1.37,0,0,0,.43-1.07,1.08,1.08,0,0,0-.4-.9,1.56,1.56,0,0,0-1.09-.36h-7.93a2.37,2.37,0,0,0-1.95.89,3.62,3.62,0,0,0-.67,2.28v15a3.27,3.27,0,0,0,.7,2.19,2.38,2.38,0,0,0,1.89.83h9a2.89,2.89,0,0,1,1.67.43,1.49,1.49,0,0,1,.71,1.29v2.36a3.45,3.45,0,0,0,.38,1.85,1.66,1.66,0,0,0,1.53.74,1.57,1.57,0,0,0,1.45-.77,3.53,3.53,0,0,0,.44-1.94V23.38a1.87,1.87,0,0,1,.37-1.25,1,1,0,0,1,.83-.41,1.05,1.05,0,0,1,.8.41,1.9,1.9,0,0,1,.38,1.25V38.74a3.42,3.42,0,0,0,.42,1.86,1.72,1.72,0,0,0,1.56.73,1.7,1.7,0,0,0,1.51-.77,3.59,3.59,0,0,0,.44-1.94V15.43a3.54,3.54,0,0,0-.47-1.95,1.66,1.66,0,0,0-1.48-.73"/><path class="cls-3" d="M205.34,16.34a2,2,0,0,0,1.29.35H218a3,3,0,0,1,2.38.93,3.38,3.38,0,0,1,.69,2.25v8.86a2.78,2.78,0,0,0,.57,1.93,1.82,1.82,0,0,0,1.41.56,2,2,0,0,0,1.57-.56,3.28,3.28,0,0,0,.65-2.32v-11a3.26,3.26,0,0,0-1-2.52,3.67,3.67,0,0,0-2.55-.88H206.6a2,2,0,0,0-1.25.35,1.2,1.2,0,0,0-.47,1,1.27,1.27,0,0,0,.46,1.07"/><path class="cls-3" d="M227,34.89a2,2,0,0,0-1.26-.39h-6a2.76,2.76,0,0,1-1.47-.33,1.57,1.57,0,0,1-.68-1.42V25.26a3.27,3.27,0,0,0-.41-1.85,1.56,1.56,0,0,0-1.39-.68,1.79,1.79,0,0,0-1.48.67,3.26,3.26,0,0,0-.47,1.86v7.52a1.66,1.66,0,0,1-.49,1.3,1.52,1.52,0,0,1-1.12.42,1.83,1.83,0,0,1-1.21-.39,1.65,1.65,0,0,1-.54-1.3V25.26a3.38,3.38,0,0,0-.41-1.85,1.59,1.59,0,0,0-1.4-.68,1.72,1.72,0,0,0-1.44.67,3.11,3.11,0,0,0-.5,1.86v7.49a1.68,1.68,0,0,1-.49,1.33,2.32,2.32,0,0,1-1.52.42,1.81,1.81,0,0,0-1.26.39,1.17,1.17,0,0,0-.4.94,1.23,1.23,0,0,0,.49,1,1.93,1.93,0,0,0,1.31.42h20.93a1.8,1.8,0,0,0,1.2-.38,1.28,1.28,0,0,0,.47-1,1.25,1.25,0,0,0-.49-1"/><rect class="cls-3" x="236.31" y="16.08" width="51.66" height="23.78" rx="3.75"/><path class="cls-2" d="M244.13,23.54a4.62,4.62,0,0,1,1.8.35,4.49,4.49,0,0,1,1.46,1,4.75,4.75,0,0,1,1,1.55,5.43,5.43,0,0,1,.34,2,5.7,5.7,0,0,1-.32,1.93,4.58,4.58,0,0,1-.92,1.52,4.35,4.35,0,0,1-1.45,1,4.67,4.67,0,0,1-1.86.36H242a1.13,1.13,0,0,1-1.14-1.14V24.54a.42.42,0,0,0-.1-.2l-.17-.13-.16-.13a.31.31,0,0,1-.07-.22c0-.16,0-.26.16-.28a1.27,1.27,0,0,1,.34,0Zm-1.37,8.54h1.37a3.1,3.1,0,0,0,1.29-.26,3.19,3.19,0,0,0,1-.74,3.55,3.55,0,0,0,.66-1.16,4.53,4.53,0,0,0,.24-1.52,4.62,4.62,0,0,0-.23-1.52,3.23,3.23,0,0,0-.66-1.18,2.87,2.87,0,0,0-1-.77,3.18,3.18,0,0,0-1.32-.27h-2V31.5a.51.51,0,0,0,.17.44.64.64,0,0,0,.45.14"/><path class="cls-2" d="M255.41,30.82v.31a3.87,3.87,0,0,0,.05.45,4.8,4.8,0,0,0,.09.5,2.49,2.49,0,0,0,.21.51q.15.22-.18.45a.87.87,0,0,1-.24.1l-.28,0a.79.79,0,0,1-.22,0,.71.71,0,0,1-.26-.13.82.82,0,0,1-.25-.24,1.07,1.07,0,0,1-.14-.38,2,2,0,0,1-.94.73,3.4,3.4,0,0,1-1.23.23,3.6,3.6,0,0,1-1-.12,2.18,2.18,0,0,1-.77-.35,1.67,1.67,0,0,1-.51-.61,1.94,1.94,0,0,1-.18-.86,1.65,1.65,0,0,1,.34-1.09,2.52,2.52,0,0,1,.84-.66,4.74,4.74,0,0,1,1.08-.37L253,29a4.69,4.69,0,0,0,.84-.26.49.49,0,0,0,.34-.45.69.69,0,0,0-.42-.65,2.34,2.34,0,0,0-1-.2,3.17,3.17,0,0,0-1.08.2,2.53,2.53,0,0,0-.89.57.37.37,0,0,1-.31.15.35.35,0,0,1-.25-.12.83.83,0,0,1-.13-.49.85.85,0,0,1,.15-.47,3.27,3.27,0,0,1,1.14-.72,3.71,3.71,0,0,1,1.37-.27,3.8,3.8,0,0,1,1,.13,2.51,2.51,0,0,1,.87.42,2.21,2.21,0,0,1,.6.75,2.44,2.44,0,0,1,.23,1.09ZM252,32.21a2.21,2.21,0,0,0,.76-.13,2.18,2.18,0,0,0,.69-.4,2.08,2.08,0,0,0,.66-1.55v-.58a1.62,1.62,0,0,1-.59.36c-.22.08-.45.14-.68.2l-.72.14a2.6,2.6,0,0,0-.63.19,1.14,1.14,0,0,0-.45.35.94.94,0,0,0-.18.61.74.74,0,0,0,.27.59,1.32,1.32,0,0,0,.87.22"/><path class="cls-2" d="M259.91,33.3a3.44,3.44,0,0,1-1.34-.26,3,3,0,0,1-1-.72,3.3,3.3,0,0,1-.71-1.12,3.82,3.82,0,0,1-.25-1.42,4.34,4.34,0,0,1,.21-1.38,3.38,3.38,0,0,1,.62-1.1,2.64,2.64,0,0,1,1-.72,3.06,3.06,0,0,1,3.59.75,3.42,3.42,0,0,1,.6,1.05,3.82,3.82,0,0,1,.23,1.21.6.6,0,0,1-.18.52.71.71,0,0,1-.44.15h-4.23a1.8,1.8,0,0,0,.59,1.38,1.86,1.86,0,0,0,.63.39,2.13,2.13,0,0,0,.76.13,2.48,2.48,0,0,0,1.1-.31,2.27,2.27,0,0,0,.4-.29l.35-.34a.42.42,0,0,1,.23-.17.32.32,0,0,1,.28.06.6.6,0,0,1,.16.22,1.27,1.27,0,0,1,.06.28,2.64,2.64,0,0,1,0,.29.63.63,0,0,1-.09.22,2.62,2.62,0,0,1-.44.44,2.89,2.89,0,0,1-.56.38,3.07,3.07,0,0,1-.7.26,2.86,2.86,0,0,1-.77.1m1.52-4.09a1.67,1.67,0,0,0-.5-1.3,1.85,1.85,0,0,0-1.27-.46,1.66,1.66,0,0,0-1.25.48,1.7,1.7,0,0,0-.48,1.28Z"/><path class="cls-2" d="M263.92,28.79a2,2,0,0,1,.19-.88,2.32,2.32,0,0,1,.53-.71,2.61,2.61,0,0,1,.79-.48,2.77,2.77,0,0,1,1-.17,2.63,2.63,0,0,1,1.07.22H269a.27.27,0,0,1,.22.17.65.65,0,0,1,.1.36.75.75,0,0,1-.1.38c-.06.13-.14.19-.22.19h-.39a2,2,0,0,1,.22.92,2.13,2.13,0,0,1-.19.87,2.19,2.19,0,0,1-.54.7,2.79,2.79,0,0,1-.8.48,2.75,2.75,0,0,1-.95.17,2.59,2.59,0,0,1-1.47-.43.75.75,0,0,0-.15.2.56.56,0,0,0-.07.26.36.36,0,0,0,.06.2.38.38,0,0,0,.24.15,2.49,2.49,0,0,0,.52.09q.35,0,.93,0a5.65,5.65,0,0,1,1.11.11,3.28,3.28,0,0,1,.93.31,1.91,1.91,0,0,1,.63.52,1.12,1.12,0,0,1,.24.72,1.61,1.61,0,0,1-.28,1,2.06,2.06,0,0,1-.73.61,3.63,3.63,0,0,1-1,.31,6.2,6.2,0,0,1-1.05.09,5.49,5.49,0,0,1-1.08-.11,3.31,3.31,0,0,1-.92-.31,1.86,1.86,0,0,1-.66-.53,1.2,1.2,0,0,1-.25-.76,1.41,1.41,0,0,1,.25-.83,2.11,2.11,0,0,1,.59-.53,1.53,1.53,0,0,1-.5-.36.85.85,0,0,1-.21-.61,1.05,1.05,0,0,1,.23-.7,2.33,2.33,0,0,1,.48-.42l.07,0a2,2,0,0,1-.4-1.22m4.15,4.38c0-.2-.14-.36-.4-.49a2.54,2.54,0,0,0-1.09-.19h-1.1a2.85,2.85,0,0,0-.54.32.6.6,0,0,0-.24.49.62.62,0,0,0,.39.58,3.3,3.3,0,0,0,1.36.2,2.45,2.45,0,0,0,1.2-.24.73.73,0,0,0,.42-.67m-2.95-4.38a1.16,1.16,0,0,0,.1.51,1,1,0,0,0,.29.34,1,1,0,0,0,.4.19,1.86,1.86,0,0,0,.48.06,1.84,1.84,0,0,0,.47-.06,1.15,1.15,0,0,0,.42-.19,1.19,1.19,0,0,0,.28-.34,1.16,1.16,0,0,0,.11-.51,1.13,1.13,0,0,0-.11-.51,1,1,0,0,0-.7-.55,1.84,1.84,0,0,0-.47-.06,1.86,1.86,0,0,0-.48.06,1,1,0,0,0-.4.19.94.94,0,0,0-.29.36,1.13,1.13,0,0,0-.1.51"/><path class="cls-2" d="M276.12,32a3.71,3.71,0,0,1-.21,1.29,2.79,2.79,0,0,1-.6,1,2.75,2.75,0,0,1-.95.6,3.51,3.51,0,0,1-1.2.2,3.48,3.48,0,0,1-.55,0,3.16,3.16,0,0,1-.55-.14,3.26,3.26,0,0,1-.5-.21,1.53,1.53,0,0,1-.36-.27.54.54,0,0,1-.09-.39.76.76,0,0,1,.19-.5.28.28,0,0,1,.22-.1.27.27,0,0,1,.22.09.71.71,0,0,0,.27.18,3.54,3.54,0,0,0,.39.14,3.14,3.14,0,0,0,.4.08,1.38,1.38,0,0,0,.31,0,3.28,3.28,0,0,0,.75-.09,1.3,1.3,0,0,0,.54-.31,1.54,1.54,0,0,0,.32-.61,3.35,3.35,0,0,0,.11-.92v-.65a1.24,1.24,0,0,1-.32.33,1.79,1.79,0,0,1-.42.25,2.85,2.85,0,0,1-.46.17,1.82,1.82,0,0,1-.44.07,3,3,0,0,1-2.16-.74,2.73,2.73,0,0,1-.74-2v-2a.42.42,0,0,0-.1-.2l-.17-.13-.16-.13a.31.31,0,0,1-.07-.22c0-.16,0-.26.16-.28a1.27,1.27,0,0,1,.34,0H271c.25,0,.42,0,.5.14a.61.61,0,0,1,.14.44v2.4a2,2,0,0,0,.12.75,1.49,1.49,0,0,0,.35.51,1.23,1.23,0,0,0,.52.27,2.18,2.18,0,0,0,.63.09,2,2,0,0,0,.54-.08,1.35,1.35,0,0,0,.48-.24,1.57,1.57,0,0,0,.38-.43,1.81,1.81,0,0,0,.21-.62v-2.2a.37.37,0,0,0-.09-.22l-.17-.14-.17-.14a.27.27,0,0,1-.08-.21c0-.16.06-.26.17-.28a1.22,1.22,0,0,1,.34,0h.67c.52,0,.73.19.63.58Z"/><path class="cls-2" d="M280.55,33.35a3,3,0,0,1-1.35-.28,2.7,2.7,0,0,1-1-.75,3,3,0,0,1-.62-1.12,4.23,4.23,0,0,1-.21-1.34,4.16,4.16,0,0,1,.21-1.33,3.34,3.34,0,0,1,.61-1.13,2.72,2.72,0,0,1,1-.76,3.1,3.1,0,0,1,1.37-.29,3.21,3.21,0,0,1,1.34.28,2.92,2.92,0,0,1,1,.76,3.46,3.46,0,0,1,.61,1.12,4.34,4.34,0,0,1,.22,1.35,4.46,4.46,0,0,1-.21,1.33,3.38,3.38,0,0,1-.61,1.1,2.91,2.91,0,0,1-1,.78,3.09,3.09,0,0,1-1.36.28m0-5.87a1.76,1.76,0,0,0-1.41.62,2.59,2.59,0,0,0-.53,1.76,2.55,2.55,0,0,0,.53,1.74,1.76,1.76,0,0,0,1.41.61A1.78,1.78,0,0,0,282,31.6a2.55,2.55,0,0,0,.54-1.74A2.59,2.59,0,0,0,282,28.1a1.79,1.79,0,0,0-1.41-.62"/></g></g></svg>