<?xml version="1.0" encoding="utf-8"?>
<!-- Generator: Adobe Illustrator 25.2.3, SVG Export Plug-In . SVG Version: 6.00 Build 0)  -->
<svg version="1.1" id="레이어_1" xmlns="http://www.w3.org/2000/svg" xmlns:xlink="http://www.w3.org/1999/xlink" x="0px"
	 y="0px" viewBox="0 0 174.2 44.4" style="enable-background:new 0 0 174.2 44.4;" xml:space="preserve">
<style type="text/css">
	.st0{fill:#FFFFFF;}
</style>
<g id="레이어_2_1_">
	<g id="레이어_2-2">
		<path class="st0" d="M45.6,32.1c1.4,0.1,2.6-0.9,2.7-2.2c0-0.2,0-0.3,0-0.5v-3.3c0.1-1.4-0.9-2.6-2.2-2.7c-0.2,0-0.3,0-0.5,0H11.1
			c-0.9,0-1.2-0.2-1.3-0.3c-0.3-0.4-0.4-0.8-0.3-1.3v-0.3c0-0.5,0.1-0.9,0.3-1.3c0.4-0.3,0.8-0.4,1.3-0.3h28.8c6,0,9.2-3.2,9.2-9.2
			V9.2c0.2-2.5-0.7-4.9-2.4-6.8C45.2,0.8,42.9,0,39.9,0H4.1C2.7-0.1,1.6,0.9,1.4,2.2c0,0.2,0,0.3,0,0.5V6C1.3,7.3,2.3,8.5,3.6,8.6
			c0.1,0,0.3,0,0.4,0H38c0.9,0,1.2,0.2,1.3,0.3c0.3,0.4,0.4,0.8,0.3,1.3v0.3c0,0.5-0.1,0.9-0.3,1.3c-0.4,0.3-0.8,0.4-1.3,0.3H9.2
			c-6,0-9.2,3.2-9.2,9.2v1.5c-0.2,2.5,0.7,4.9,2.4,6.8c1.6,1.6,3.9,2.4,6.8,2.4H45.6z"/>
		<path class="st0" d="M167.3,32.1c-1.4,0.1-2.6-0.9-2.7-2.2c0-0.2,0-0.3,0-0.5V11.6c0.1-0.8-0.2-1.6-0.8-2.2
			c-0.6-0.6-1.4-0.8-2.2-0.8h-12.6c-0.8-0.1-1.6,0.2-2.2,0.8c-0.5,0.6-0.8,1.4-0.8,2.2v17.8c0.1,1.4-0.9,2.6-2.2,2.7
			c-0.1,0-0.3,0-0.5,0h-4.2c-1.4,0.1-2.6-0.9-2.7-2.2c0-0.2,0-0.3,0-0.5V11.6c0.1-0.8-0.2-1.6-0.8-2.2c-0.6-0.6-1.4-0.8-2.2-0.8H121
			c-0.8-0.1-1.6,0.2-2.2,0.8c-0.6,0.6-0.8,1.4-0.8,2.2v17.8c0.1,1.4-0.9,2.6-2.2,2.7c-0.2,0-0.3,0-0.5,0h-4.2
			c-1.3,0.1-2.5-0.9-2.6-2.2c0-0.2,0-0.3,0-0.5V10.1c-0.1-2.7,0.9-5.3,2.8-7.3c1.9-1.9,4.6-2.9,7.3-2.8h15.4c1.7,0,3.5,0.4,5,1.2
			c0.9,0.5,1.7,1.2,2.4,2c0.7-0.8,1.5-1.5,2.4-2c1.5-0.8,3.3-1.2,5-1.2H164c2.7-0.1,5.4,0.9,7.3,2.8c1.9,1.9,2.9,4.6,2.8,7.3v19.3
			c0.1,1.4-0.9,2.6-2.2,2.7c-0.2,0-0.3,0-0.5,0H167.3z"/>
		<path class="st0" d="M100.9,2.8c-2-1.9-4.6-2.9-7.3-2.8H63.5c-2.7-0.1-5.3,0.9-7.3,2.8c-1.9,1.9-2.9,4.6-2.8,7.3v22l0,0v12.3H63
			l12.3-12.3h18.3c2.7,0.1,5.4-0.9,7.3-2.8c1.9-1.9,2.9-4.6,2.8-7.3V10.1C103.9,7.4,102.8,4.7,100.9,2.8z M94.2,20.4
			c0.2,1.5-0.9,2.8-2.4,3c-0.2,0-0.4,0-0.6,0H71.7L64.2,31l0,0L63,32.2V11.6c-0.1-0.8,0.2-1.6,0.8-2.2c0.6-0.6,1.4-0.8,2.2-0.8h25.2
			c0.8-0.1,1.6,0.2,2.2,0.8c0.5,0.6,0.8,1.4,0.8,2.2V20.4z"/>
	</g>
</g>
</svg>
