<?xml version="1.0" encoding="utf-8"?>
<!-- Generator: Adobe Illustrator 25.2.0, SVG Export Plug-In . SVG Version: 6.00 Build 0)  -->
<svg version="1.1" id="레이어_1" xmlns="http://www.w3.org/2000/svg" xmlns:xlink="http://www.w3.org/1999/xlink" x="0px"
	 y="0px" viewBox="0 0 186.77 46.34" style="enable-background:new 0 0 186.77 46.34;" xml:space="preserve">
<g>
	<path d="M65.15,32.32c-0.8,0.55-1.74,0.96-2.81,1.22s-2.18,0.4-3.31,0.4c-1.2,0-2.28-0.16-3.23-0.49
		c-0.95-0.33-1.75-0.82-2.41-1.49c-0.66-0.67-1.17-1.49-1.53-2.48s-0.54-2.14-0.54-3.47v-2.73c0-1.32,0.17-2.47,0.53-3.45
		c0.35-0.98,0.85-1.81,1.5-2.48c0.65-0.67,1.44-1.17,2.36-1.5s1.96-0.5,3.11-0.5c1.17,0,2.24,0.15,3.22,0.45
		c0.98,0.3,1.9,0.78,2.75,1.45l-1.27,2c-0.78-0.62-1.55-1.05-2.3-1.29c-0.75-0.24-1.55-0.36-2.4-0.36c-1.57,0-2.8,0.48-3.69,1.44
		s-1.34,2.48-1.34,4.56v2.07c0,2.08,0.48,3.6,1.44,4.56c0.96,0.96,2.25,1.44,3.86,1.44c0.68,0,1.33-0.06,1.94-0.19
		c0.61-0.13,1.15-0.3,1.64-0.54v-5.08h-4v-2.13h6.48V32.32z"/>
	<path d="M73.95,19.74c1.88,0,3.37,0.54,4.46,1.63s1.64,2.62,1.64,4.6v1.67c0,1.98-0.55,3.52-1.64,4.6s-2.58,1.63-4.46,1.63
		c-1.88,0-3.37-0.54-4.46-1.63c-1.09-1.08-1.64-2.62-1.64-4.6v-1.67c0-2,0.55-3.54,1.64-4.61C70.58,20.28,72.07,19.74,73.95,19.74z
		 M73.95,31.74c1.08,0,1.96-0.35,2.64-1.06c0.67-0.71,1.01-1.79,1.01-3.24v-1.28c0-1.45-0.34-2.53-1.01-3.24s-1.55-1.06-2.64-1.06
		c-1.08,0-1.96,0.35-2.64,1.06c-0.68,0.71-1.01,1.79-1.01,3.24v1.28c0,1.45,0.34,2.53,1.01,3.24
		C71.99,31.39,72.87,31.74,73.95,31.74z"/>
	<path d="M88.65,19.74c1.88,0,3.37,0.54,4.46,1.63s1.64,2.62,1.64,4.6v1.67c0,1.98-0.55,3.52-1.64,4.6s-2.58,1.63-4.46,1.63
		c-1.88,0-3.37-0.54-4.46-1.63c-1.09-1.08-1.64-2.62-1.64-4.6v-1.67c0-2,0.55-3.54,1.64-4.61C85.28,20.28,86.77,19.74,88.65,19.74z
		 M88.65,31.74c1.08,0,1.96-0.35,2.64-1.06c0.67-0.71,1.01-1.79,1.01-3.24v-1.28c0-1.45-0.34-2.53-1.01-3.24s-1.55-1.06-2.64-1.06
		c-1.08,0-1.96,0.35-2.64,1.06C85.34,23.64,85,24.72,85,26.17v1.28c0,1.45,0.34,2.53,1.01,3.24C86.69,31.39,87.57,31.74,88.65,31.74
		z"/>
	<path d="M108.95,33.49c0,3.83-2.03,5.75-6.1,5.75c-0.93,0-1.78-0.13-2.55-0.4c-0.77-0.27-1.43-0.62-2-1.05l1.1-1.9
		c0.45,0.33,0.98,0.61,1.59,0.83c0.61,0.22,1.25,0.32,1.94,0.32c1.18,0,2.08-0.29,2.69-0.86s0.91-1.47,0.91-2.69v-1.67
		c-0.38,0.65-0.93,1.11-1.63,1.39c-0.7,0.27-1.47,0.41-2.3,0.41c-1.73,0-3.05-0.5-3.96-1.51c-0.91-1.01-1.36-2.45-1.36-4.31v-2.17
		c0-0.92,0.13-1.74,0.4-2.47s0.64-1.35,1.11-1.85c0.48-0.5,1.05-0.88,1.71-1.15c0.67-0.27,1.4-0.4,2.2-0.4
		c1.05,0,1.88,0.18,2.49,0.54s1.05,0.74,1.34,1.14v-1.42h2.42V33.49z M106.55,24.77c0-0.35-0.09-0.7-0.26-1.05
		c-0.17-0.35-0.42-0.66-0.75-0.94c-0.32-0.28-0.71-0.5-1.15-0.66c-0.44-0.17-0.92-0.25-1.44-0.25c-1.03,0-1.84,0.36-2.41,1.07
		c-0.57,0.72-0.86,1.72-0.86,3.03v1.42c0,1.3,0.29,2.31,0.88,3.02c0.58,0.72,1.38,1.08,2.4,1.08c0.5,0,0.97-0.08,1.4-0.24
		s0.81-0.39,1.14-0.69s0.58-0.66,0.78-1.09c0.19-0.42,0.29-0.9,0.29-1.44V24.77z"/>
	<path d="M115.27,14.77v18.9h-2.42v-18.9H115.27z"/>
	<path d="M129.75,32.37c-0.6,0.42-1.32,0.77-2.15,1.06c-0.83,0.29-1.88,0.44-3.13,0.44c-0.85,0-1.64-0.12-2.36-0.36
		c-0.73-0.24-1.36-0.62-1.9-1.13c-0.54-0.51-0.97-1.16-1.27-1.96c-0.31-0.8-0.46-1.75-0.46-2.85v-1.55c0-1.03,0.15-1.94,0.44-2.73
		c0.29-0.78,0.7-1.44,1.22-1.96c0.53-0.52,1.15-0.92,1.86-1.19c0.72-0.27,1.5-0.4,2.35-0.4c1.75,0,3.14,0.53,4.17,1.6
		c1.03,1.07,1.55,2.57,1.55,4.52v1.83h-9.2v0.1c0,1.3,0.34,2.29,1.02,2.96s1.58,1.01,2.67,1.01c0.9,0,1.67-0.11,2.31-0.33
		s1.25-0.52,1.84-0.9L129.75,32.37z M124.35,21.82c-0.5,0-0.96,0.09-1.39,0.26s-0.79,0.42-1.1,0.73c-0.31,0.31-0.55,0.68-0.73,1.12
		c-0.17,0.44-0.26,0.92-0.26,1.44v0.35h6.85v-0.45c0-1.05-0.3-1.89-0.9-2.51C126.22,22.13,125.4,21.82,124.35,21.82z"/>
	<path d="M139.57,15.64h6.45c1.02,0,1.9,0.13,2.65,0.39s1.37,0.62,1.86,1.07c0.49,0.46,0.86,1,1.1,1.64s0.36,1.32,0.36,2.05v0.52
		c0,0.73-0.13,1.42-0.39,2.06c-0.26,0.64-0.64,1.2-1.14,1.69s-1.12,0.87-1.86,1.15c-0.74,0.28-1.6,0.42-2.59,0.42h-3.97v7.02h-2.48
		V15.64z M142.05,17.79v6.7h3.55c2.6,0,3.9-1.07,3.9-3.22v-0.45c0-1.03-0.31-1.8-0.94-2.29s-1.52-0.74-2.69-0.74H142.05z"/>
	<path d="M157.32,14.77v18.9h-2.42v-18.9H157.32z"/>
	<path d="M165.02,33.87c-1.38,0-2.48-0.34-3.29-1.02c-0.81-0.68-1.21-1.63-1.21-2.83v-0.67c0-1.17,0.39-2.12,1.17-2.85
		s2.05-1.1,3.8-1.1h3.48v-0.8c0-0.92-0.22-1.6-0.66-2.04c-0.44-0.44-1.16-0.66-2.16-0.66c-0.8,0-1.5,0.13-2.09,0.38
		s-1.2,0.58-1.84,1l-1.2-1.8c0.67-0.47,1.42-0.87,2.25-1.21c0.83-0.34,1.8-0.51,2.9-0.51c0.77,0,1.47,0.1,2.1,0.29
		c0.63,0.19,1.18,0.47,1.64,0.85c0.46,0.38,0.82,0.83,1.08,1.38c0.26,0.54,0.39,1.15,0.39,1.84v9.57h-2.32v-1.65h-0.03
		c-0.13,0.25-0.31,0.48-0.54,0.69c-0.23,0.21-0.47,0.39-0.74,0.54c-0.37,0.2-0.76,0.35-1.19,0.46
		C166.14,33.81,165.62,33.87,165.02,33.87z M168.97,27.44h-3.42c-0.95,0-1.63,0.18-2.04,0.55c-0.41,0.37-0.61,0.88-0.61,1.53v0.35
		c0,0.67,0.23,1.15,0.7,1.45c0.47,0.3,1.02,0.45,1.67,0.45c0.6,0,1.12-0.07,1.56-0.21s0.85-0.35,1.21-0.64
		c0.33-0.25,0.57-0.54,0.71-0.86s0.21-0.75,0.21-1.26V27.44z"/>
	<path d="M179.75,30.92l3.6-10.92h2.55l-7.1,19.32l-2.2-0.78l1.77-4.67l-4.97-13.87h2.63l3.63,10.92H179.75z"/>
</g>
<g id="XMLID_2_">
	<path id="XMLID_8_" d="M1.3,4.2C0.52,4.45,0,5.28,0,6.41v16.75v16.75c0,1.14,0.46,1.96,1.24,2.21L19,23.17L1.3,4.2z M4.36,5.15
		l15.75,16.88l5.27-5.63L4.36,5.15z M26.94,17.16l-5.66,6.01l5.66,6.01l7.74-4.11c1.43-0.76,2.02-1.14,2.02-1.9s-0.59-1.14-2.02-1.9
		L26.94,17.16z M20.18,24.37L4.36,41.25L25.51,30L20.18,24.37z"/>
</g>
</svg>
