<?xml version="1.0" encoding="utf-8"?>
<!-- Generator: Adobe Illustrator 25.1.0, SVG Export Plug-In . SVG Version: 6.00 Build 0)  -->
<svg version="1.1" id="레이어_1" xmlns="http://www.w3.org/2000/svg" xmlns:xlink="http://www.w3.org/1999/xlink" x="0px"
	 y="0px" viewBox="0 0 32.49 28.34" style="enable-background:new 0 0 32.49 28.34;" xml:space="preserve">
<g>
	<path d="M18.17,10.77c-0.71,0-1.28,0.57-1.28,1.28c0,0.71,0.57,1.28,1.28,1.28c0.71,0,1.28-0.57,1.28-1.28
		C19.45,11.34,18.88,10.77,18.17,10.77z"/>
	<path d="M6.78,10.77c-0.7,0-1.28,0.57-1.28,1.28c0,0.71,0.57,1.28,1.28,1.28c0.71,0,1.28-0.57,1.28-1.28
		C8.06,11.34,7.48,10.77,6.78,10.77z"/>
	<path d="M27.36,0H5.13C2.3,0,0,2.31,0,5.15v12.22c0,2.84,2.3,5.15,5.13,5.15h7.57l2.7,5.26c0,0,0.03,0.05,0.08,0.12
		c0.15,0.26,0.43,0.44,0.76,0.44c0.32,0,0.6-0.18,0.76-0.43c0.07-0.08,0.09-0.13,0.09-0.13l2.7-5.26h7.57
		c2.83,0,5.13-2.31,5.13-5.15V5.15C32.49,2.31,30.19,0,27.36,0z M7.22,15.08c-1.2,0-1.67-0.86-1.67-0.86v0.65H3.54V6.58h1.99v3.16
		c0.8-0.78,1.69-0.78,1.69-0.78c2.7,0,2.8,3.03,2.8,3.03C10.02,14.97,7.22,15.08,7.22,15.08z M13.48,9.51v5.36h-1.92v-4.9
		c0-1.69-0.91-1.65-0.91-1.65V6.4C13.57,6.4,13.48,9.51,13.48,9.51z M21.54,12.05c0,3.02-3.36,3.03-3.36,3.03
		c-3.39,0-3.29-3.03-3.29-3.03c0-3.07,3.29-3.07,3.29-3.07C21.65,8.98,21.54,12.05,21.54,12.05z M28.96,14.79
		c0,3.14-2.91,3.11-2.91,3.11h-0.77v-1.76h0.48c1.41,0,1.27-1.45,1.27-1.45v-0.46c-0.62,0.81-1.75,0.76-1.75,0.76
		c-2.77,0-2.74-2.95-2.74-2.95c0-3.17,2.81-3.05,2.81-3.05c1.1,0,1.67,0.76,1.67,0.76V9.18h1.93V14.79z"/>
	<path d="M25.83,10.77c-0.71,0-1.28,0.57-1.28,1.28c0,0.71,0.57,1.28,1.28,1.28c0.71,0,1.28-0.57,1.28-1.28
		C27.11,11.34,26.54,10.77,25.83,10.77z"/>
</g>
</svg>
