<?xml version="1.0" encoding="utf-8"?>
<!-- Generator: Adobe Illustrator 25.1.0, SVG Export Plug-In . SVG Version: 6.00 Build 0)  -->
<svg version="1.1" id="레이어_1" xmlns="http://www.w3.org/2000/svg" xmlns:xlink="http://www.w3.org/1999/xlink" x="0px"
	 y="0px" viewBox="0 0 28.93 28.93" style="enable-background:new 0 0 28.93 28.93;" xml:space="preserve">
<g id="XMLID_17_">
	<path id="XMLID_22_" d="M20.58,0H8.35C3.74,0,0,3.74,0,8.35v12.23c0,4.61,3.74,8.35,8.35,8.35h12.23c4.61,0,8.35-3.74,8.35-8.35
		V8.35C28.93,3.74,25.19,0,20.58,0z M26.26,20.79c0,3.06-2.48,5.54-5.54,5.54H8.21c-3.06,0-5.54-2.48-5.54-5.54V8.28
		c0-3.06,2.48-5.54,5.54-5.54h12.51c3.06,0,5.54,2.48,5.54,5.54V20.79z"/>
	<path id="XMLID_19_" d="M14.46,7.03c-4.15,0-7.51,3.36-7.51,7.51c0,4.14,3.36,7.51,7.51,7.51c4.14,0,7.51-3.36,7.51-7.51
		C21.97,10.39,18.61,7.03,14.46,7.03z M14.46,19.4c-2.69,0-4.87-2.18-4.87-4.87c0-2.69,2.18-4.87,4.87-4.87s4.87,2.18,4.87,4.87
		C19.33,17.22,17.15,19.4,14.46,19.4z"/>
	<path id="XMLID_18_" d="M22.22,5c-0.97,0-1.75,0.78-1.75,1.75c0,0.96,0.78,1.75,1.75,1.75c0.97,0,1.75-0.78,1.75-1.75
		C23.97,5.78,23.19,5,22.22,5z"/>
</g>
</svg>
