<?xml version="1.0" encoding="utf-8"?>
<!-- Generator: Adobe Illustrator 25.2.0, SVG Export Plug-In . SVG Version: 6.00 Build 0)  -->
<svg version="1.1" id="레이어_1" xmlns="http://www.w3.org/2000/svg" xmlns:xlink="http://www.w3.org/1999/xlink" x="0px"
	 y="0px" viewBox="0 0 172.28 46.34" style="enable-background:new 0 0 172.28 46.34;" xml:space="preserve">
<g>
	<path d="M68.75,33.4h-2.6l-1.9-5.3h-6.9l-1.9,5.3h-2.53l6.7-18.02h2.4L68.75,33.4z M58.1,25.97h5.4L62,21.75
		c-0.13-0.37-0.25-0.69-0.35-0.96c-0.1-0.27-0.19-0.54-0.27-0.8c-0.08-0.26-0.17-0.53-0.26-0.81c-0.09-0.28-0.2-0.63-0.31-1.05
		c-0.13,0.42-0.24,0.77-0.33,1.06c-0.08,0.29-0.17,0.56-0.25,0.81s-0.17,0.51-0.26,0.79s-0.2,0.6-0.34,0.96L58.1,25.97z"/>
	<path d="M73.55,21.42c0.4-0.7,0.96-1.2,1.69-1.5c0.73-0.3,1.5-0.45,2.31-0.45c1.73,0,3.05,0.52,3.96,1.55
		c0.91,1.03,1.36,2.46,1.36,4.28v2.42c0,0.95-0.13,1.79-0.4,2.51s-0.64,1.34-1.11,1.84c-0.47,0.5-1.05,0.88-1.72,1.14
		c-0.67,0.26-1.42,0.39-2.24,0.39c-1.02,0-1.83-0.18-2.44-0.55c-0.61-0.37-1.05-0.75-1.34-1.15v6.85H71.2V19.72h2.35V21.42z
		 M73.6,28.52c0,0.35,0.09,0.71,0.26,1.06c0.17,0.36,0.42,0.68,0.75,0.95c0.33,0.28,0.7,0.5,1.14,0.67
		c0.43,0.18,0.92,0.26,1.45,0.26c1.03,0,1.84-0.36,2.41-1.08c0.58-0.72,0.86-1.72,0.86-3.02V25.7c0-1.3-0.29-2.31-0.88-3.03
		c-0.58-0.72-1.38-1.07-2.4-1.07c-0.5,0-0.97,0.08-1.4,0.25s-0.81,0.4-1.14,0.7c-0.32,0.3-0.58,0.66-0.77,1.09
		c-0.19,0.43-0.29,0.9-0.29,1.44V28.52z"/>
	<path d="M88.45,21.42c0.4-0.7,0.96-1.2,1.69-1.5c0.73-0.3,1.5-0.45,2.31-0.45c1.73,0,3.05,0.52,3.96,1.55
		c0.91,1.03,1.36,2.46,1.36,4.28v2.42c0,0.95-0.13,1.79-0.4,2.51c-0.27,0.72-0.64,1.34-1.11,1.84c-0.47,0.5-1.05,0.88-1.72,1.14
		c-0.67,0.26-1.42,0.39-2.24,0.39c-1.02,0-1.83-0.18-2.44-0.55c-0.61-0.37-1.05-0.75-1.34-1.15v6.85H86.1V19.72h2.35V21.42z
		 M88.5,28.52c0,0.35,0.09,0.71,0.26,1.06c0.17,0.36,0.42,0.68,0.75,0.95c0.33,0.28,0.7,0.5,1.14,0.67
		c0.43,0.18,0.92,0.26,1.45,0.26c1.03,0,1.84-0.36,2.41-1.08c0.58-0.72,0.86-1.72,0.86-3.02V25.7c0-1.3-0.29-2.31-0.88-3.03
		c-0.58-0.72-1.38-1.07-2.4-1.07c-0.5,0-0.97,0.08-1.4,0.25s-0.81,0.4-1.14,0.7c-0.32,0.3-0.58,0.66-0.77,1.09
		c-0.19,0.43-0.29,0.9-0.29,1.44V28.52z"/>
	<path d="M113.1,31.42c1.28,0,2.25-0.26,2.89-0.78c0.64-0.52,0.96-1.13,0.96-1.85v-0.4c0-0.4-0.07-0.75-0.2-1.05
		c-0.13-0.3-0.36-0.57-0.68-0.8s-0.72-0.45-1.22-0.64c-0.5-0.19-1.12-0.36-1.85-0.51c-0.85-0.18-1.64-0.4-2.38-0.64
		c-0.73-0.24-1.37-0.55-1.9-0.93s-0.96-0.84-1.26-1.4c-0.31-0.56-0.46-1.25-0.46-2.06v-0.45c0-0.62,0.13-1.21,0.38-1.79
		c0.25-0.58,0.63-1.09,1.15-1.54c0.52-0.45,1.16-0.81,1.94-1.09c0.78-0.28,1.68-0.41,2.71-0.41c1.1,0,2.1,0.13,3,0.4
		s1.73,0.66,2.5,1.17l-1.17,1.93c-0.67-0.45-1.34-0.77-2.03-0.98s-1.44-0.3-2.28-0.3c-1.13,0-2.04,0.25-2.71,0.75
		c-0.67,0.5-1.01,1.11-1.01,1.82v0.4c0,0.42,0.09,0.77,0.28,1.06c0.18,0.29,0.45,0.55,0.8,0.76c0.35,0.22,0.78,0.4,1.3,0.56
		c0.52,0.16,1.11,0.31,1.78,0.46c1.12,0.25,2.04,0.54,2.79,0.86c0.74,0.32,1.34,0.7,1.79,1.11s0.77,0.88,0.96,1.4
		c0.19,0.52,0.29,1.08,0.29,1.7v0.45c0,0.83-0.16,1.56-0.49,2.17c-0.32,0.62-0.77,1.14-1.34,1.56c-0.57,0.42-1.25,0.74-2.04,0.95
		c-0.79,0.21-1.64,0.31-2.56,0.31c-1.28,0-2.46-0.2-3.54-0.61c-1.07-0.41-1.99-0.91-2.74-1.51l1.25-2.03
		c0.33,0.25,0.71,0.49,1.15,0.73s0.88,0.44,1.33,0.61c0.45,0.17,0.9,0.31,1.36,0.41C112.3,31.37,112.72,31.42,113.1,31.42z"/>
	<path d="M123.5,21.8h-2.25v-2.07h2.25v-3.45h2.42v3.45h3.6v2.07h-3.6v7.78c0,0.42,0.04,0.75,0.13,1.01
		c0.08,0.26,0.21,0.46,0.36,0.59c0.16,0.13,0.35,0.22,0.56,0.28c0.22,0.05,0.45,0.07,0.7,0.07c0.6,0,1.2-0.11,1.8-0.32l0.38,1.95
		c-0.28,0.12-0.66,0.22-1.13,0.31s-0.94,0.14-1.43,0.14c-1.3,0-2.26-0.33-2.88-0.97c-0.62-0.65-0.92-1.67-0.92-3.05V21.8z"/>
	<path d="M137.77,19.47c1.88,0,3.37,0.54,4.46,1.63s1.64,2.62,1.64,4.6v1.67c0,1.98-0.55,3.52-1.64,4.6s-2.58,1.63-4.46,1.63
		c-1.88,0-3.37-0.54-4.46-1.63c-1.09-1.08-1.64-2.62-1.64-4.6V25.7c0-2,0.55-3.54,1.64-4.61C134.4,20.01,135.89,19.47,137.77,19.47z
		 M137.77,31.47c1.08,0,1.96-0.35,2.64-1.06c0.67-0.71,1.01-1.79,1.01-3.24V25.9c0-1.45-0.34-2.53-1.01-3.24
		c-0.68-0.71-1.55-1.06-2.64-1.06c-1.08,0-1.96,0.35-2.64,1.06s-1.01,1.79-1.01,3.24v1.28c0,1.45,0.34,2.53,1.01,3.24
		C135.81,31.12,136.69,31.47,137.77,31.47z"/>
	<path d="M154.53,22.1c-0.23-0.1-0.49-0.18-0.76-0.24c-0.28-0.06-0.58-0.09-0.91-0.09c-0.45,0-0.88,0.09-1.29,0.26
		c-0.41,0.17-0.76,0.42-1.06,0.75c-0.3,0.32-0.54,0.71-0.72,1.16c-0.18,0.45-0.28,0.94-0.28,1.47v7.97h-2.43V19.72h2.35v2.17h0.03
		c0.4-0.77,0.92-1.36,1.56-1.79c0.64-0.42,1.46-0.64,2.46-0.64c0.6,0,1.19,0.09,1.78,0.27L154.53,22.1z"/>
	<path d="M168,32.1c-0.6,0.42-1.32,0.77-2.15,1.06c-0.83,0.29-1.88,0.44-3.13,0.44c-0.85,0-1.64-0.12-2.36-0.36
		c-0.72-0.24-1.36-0.62-1.9-1.13c-0.54-0.51-0.97-1.16-1.27-1.96c-0.31-0.8-0.46-1.75-0.46-2.85v-1.55c0-1.03,0.14-1.94,0.44-2.73
		c0.29-0.78,0.7-1.44,1.22-1.96s1.15-0.92,1.86-1.19c0.71-0.27,1.5-0.4,2.35-0.4c1.75,0,3.14,0.53,4.17,1.6s1.55,2.57,1.55,4.52
		v1.83h-9.2v0.1c0,1.3,0.34,2.29,1.02,2.96s1.58,1.01,2.68,1.01c0.9,0,1.67-0.11,2.31-0.33c0.64-0.22,1.25-0.52,1.84-0.9L168,32.1z
		 M162.6,21.55c-0.5,0-0.96,0.09-1.39,0.26c-0.42,0.17-0.79,0.42-1.1,0.73c-0.31,0.31-0.55,0.68-0.72,1.13
		c-0.18,0.44-0.26,0.92-0.26,1.44v0.35h6.85V25c0-1.05-0.3-1.89-0.9-2.51S163.65,21.55,162.6,21.55z"/>
</g>
<g>
	<g>
		<g>
			<path d="M31.3,24.25c-0.05-5.36,4.39-7.97,4.59-8.09c-2.51-3.67-6.41-4.17-7.78-4.21c-3.27-0.34-6.44,1.96-8.11,1.96
				c-1.7,0-4.27-1.92-7.03-1.86c-3.56,0.05-6.89,2.11-8.72,5.31C0.49,23.88,3.3,33.47,6.91,38.75c1.8,2.58,3.91,5.47,6.68,5.37
				c2.7-0.11,3.71-1.72,6.98-1.72c3.23,0,4.18,1.72,7,1.66c2.9-0.04,4.73-2.59,6.47-5.2c2.09-2.96,2.93-5.88,2.96-6.03
				C36.92,32.8,31.36,30.67,31.3,24.25z"/>
			<path d="M25.98,8.48c1.45-1.82,2.45-4.29,2.17-6.8c-2.1,0.09-4.74,1.46-6.25,3.23c-1.34,1.57-2.54,4.14-2.23,6.55
				C22.04,11.64,24.46,10.27,25.98,8.48z"/>
		</g>
	</g>
</g>
</svg>
