<?xml version="1.0" encoding="utf-8"?>
<!-- Generator: Adobe Illustrator 25.1.0, SVG Export Plug-In . SVG Version: 6.00 Build 0)  -->
<svg version="1.1" id="레이어_1" xmlns="http://www.w3.org/2000/svg" xmlns:xlink="http://www.w3.org/1999/xlink" x="0px"
	 y="0px" viewBox="0 0 33.8 23.63" style="enable-background:new 0 0 33.8 23.63;" xml:space="preserve">
<path d="M33.1,3.67c-0.39-1.45-1.53-2.6-2.99-2.99c-2.63-0.7-13.21-0.7-13.21-0.7s-10.57,0-13.21,0.7C2.24,1.06,1.1,2.21,0.7,3.67
	C0,6.3,0,11.8,0,11.8s0,5.5,0.7,8.14c0.39,1.45,1.53,2.6,2.99,2.99c2.64,0.71,13.21,0.71,13.21,0.71s10.57,0,13.21-0.71
	c1.45-0.39,2.6-1.53,2.99-2.99c0.7-2.63,0.7-8.14,0.7-8.14S33.8,6.3,33.1,3.67z M13.52,16.87V6.73l8.78,5.07L13.52,16.87z"/>
</svg>
