<?xml version="1.0" encoding="utf-8"?>
<!-- Generator: Adobe Illustrator 25.1.0, SVG Export Plug-In . SVG Version: 6.00 Build 0)  -->
<svg version="1.1" id="레이어_1" xmlns="http://www.w3.org/2000/svg" xmlns:xlink="http://www.w3.org/1999/xlink" x="0px"
	 y="0px" viewBox="0 0 473 81" style="enable-background:new 0 0 473 81;" xml:space="preserve">
<style type="text/css">
	.st0{fill:#4AA5CA;}
	.st1{fill:#D64150;}
</style>
<g>
	<g>
		<path d="M15.72,79.87v-41.7H6.95v6.43H0V31.13h39.53V44.6h-7.04v-6.43h-8.77v41.7H15.72z"/>
		<path d="M50.47,79.87V30.61h-5.99v-6.69h13.81v24.93c1.27-1.56,2.81-2.79,4.6-3.69c1.79-0.9,3.85-1.35,6.17-1.35
			c4.23,0,7.62,1.13,10.16,3.39c2.55,2.26,3.82,5.73,3.82,10.42v22.24h-7.82V59.02c-0.06-2.72-0.71-4.7-1.96-5.95
			c-1.25-1.25-3.14-1.87-5.69-1.87c-1.45,0-2.74,0.28-3.87,0.82c-1.13,0.55-2.1,1.26-2.91,2.13c-0.81,0.87-1.43,1.82-1.87,2.87
			c-0.43,1.04-0.65,2.06-0.65,3.04v19.81H50.47z"/>
		<path d="M127.62,75.79c-1.85,1.85-4.05,3.17-6.6,3.95c-2.55,0.78-5.3,1.17-8.25,1.17c-2.84,0-5.46-0.43-7.86-1.3
			c-2.4-0.87-4.47-2.11-6.21-3.74c-1.74-1.62-3.1-3.58-4.08-5.86c-0.99-2.29-1.48-4.88-1.48-7.78c0-3.01,0.52-5.66,1.56-7.95
			c1.04-2.29,2.42-4.21,4.13-5.78c1.71-1.56,3.68-2.74,5.91-3.52c2.23-0.78,4.56-1.17,6.99-1.17c2.49,0,4.83,0.38,7.04,1.13
			c2.2,0.75,4.13,1.9,5.78,3.43c1.65,1.54,2.95,3.46,3.91,5.78c0.96,2.32,1.43,5.01,1.43,8.08c0,0.46-0.01,0.97-0.04,1.52
			s-0.1,1.09-0.22,1.61h-28.32c0.29,1.51,0.81,2.79,1.56,3.87c0.75,1.07,1.66,1.95,2.74,2.65c1.07,0.69,2.26,1.22,3.56,1.56
			c1.3,0.35,2.65,0.52,4.04,0.52c1.79,0,3.62-0.3,5.47-0.91c1.85-0.61,3.47-1.49,4.87-2.65L127.62,75.79z M111.81,50.68
			c-2.66,0-5,0.75-6.99,2.26c-2,1.51-3.2,3.56-3.6,6.17h20.76c-0.29-2.55-1.32-4.59-3.08-6.12
			C117.12,51.45,114.76,50.68,111.81,50.68z"/>
		<path d="M165.93,43.9c0-1.97,0.38-3.79,1.13-5.47c0.75-1.68,1.84-3.13,3.26-4.34c1.42-1.22,3.16-2.17,5.21-2.87
			c2.05-0.7,4.42-1.04,7.08-1.04c3.82,0,6.99,0.43,9.51,1.3c2.52,0.87,4.5,1.85,5.95,2.95v10.68h-7.21v-6.43
			c-0.69-0.46-1.75-0.82-3.17-1.09c-1.42-0.26-2.91-0.39-4.47-0.39c-2.9,0-5.2,0.54-6.91,1.61c-1.71,1.07-2.56,2.74-2.56,5
			c0,2.09,0.74,3.69,2.22,4.82c1.48,1.13,4.01,2.1,7.6,2.91c2.26,0.52,4.34,1.12,6.25,1.78c1.91,0.67,3.56,1.52,4.95,2.56
			c1.39,1.04,2.49,2.36,3.3,3.95c0.81,1.59,1.22,3.61,1.22,6.04c0,1.91-0.29,3.78-0.87,5.6c-0.58,1.82-1.54,3.43-2.87,4.82
			c-1.33,1.39-3.08,2.51-5.26,3.34c-2.17,0.84-4.88,1.26-8.12,1.26c-2.26,0-4.33-0.2-6.21-0.61c-1.88-0.4-3.56-0.93-5.04-1.56
			c-1.48-0.64-2.78-1.36-3.91-2.17c-1.13-0.81-2.07-1.62-2.82-2.43l4.17-6.17c1.97,1.74,4.1,3.14,6.38,4.21
			c2.29,1.07,4.68,1.61,7.17,1.61c3.13,0,5.5-0.66,7.12-2c1.62-1.33,2.43-3.13,2.43-5.39c0-1.04-0.15-1.97-0.43-2.78
			c-0.29-0.81-0.82-1.52-1.61-2.13c-0.78-0.61-1.87-1.16-3.26-1.65c-1.39-0.49-3.16-0.97-5.3-1.43c-4.98-1.1-8.72-2.78-11.21-5.04
			C167.17,51.12,165.93,47.96,165.93,43.9z"/>
		<path d="M211.19,79.87V30.61h-5.99v-6.69h13.81v24.93c1.27-1.56,2.81-2.79,4.6-3.69c1.79-0.9,3.85-1.35,6.17-1.35
			c4.23,0,7.62,1.13,10.16,3.39c2.55,2.26,3.82,5.73,3.82,10.42v22.24h-7.82V59.02c-0.06-2.72-0.71-4.7-1.96-5.95
			c-1.25-1.25-3.14-1.87-5.69-1.87c-1.45,0-2.74,0.28-3.87,0.82c-1.13,0.55-2.1,1.26-2.91,2.13c-0.81,0.87-1.43,1.82-1.87,2.87
			c-0.43,1.04-0.65,2.06-0.65,3.04v19.81H211.19z"/>
		<path d="M253.84,62.32c0-2.49,0.48-4.87,1.43-7.12c0.96-2.26,2.29-4.23,4-5.91c1.71-1.68,3.74-3.01,6.08-4
			c2.35-0.98,4.91-1.48,7.69-1.48c2.78,0,5.34,0.49,7.69,1.48c2.35,0.99,4.39,2.32,6.13,4c1.74,1.68,3.08,3.65,4.04,5.91
			c0.96,2.26,1.43,4.63,1.43,7.12c0,2.55-0.48,4.95-1.43,7.21c-0.96,2.26-2.3,4.23-4.04,5.91c-1.74,1.68-3.78,3.03-6.13,4.04
			c-2.35,1.01-4.91,1.52-7.69,1.52c-2.78,0-5.34-0.51-7.69-1.52c-2.35-1.01-4.37-2.36-6.08-4.04c-1.71-1.68-3.04-3.65-4-5.91
			C254.32,67.27,253.84,64.87,253.84,62.32z M261.66,62.32c0,1.74,0.29,3.32,0.87,4.73c0.58,1.42,1.37,2.62,2.39,3.6
			c1.01,0.99,2.22,1.75,3.61,2.3c1.39,0.55,2.89,0.82,4.52,0.82c1.56,0,3.03-0.27,4.39-0.82c1.36-0.55,2.56-1.32,3.61-2.3
			c1.04-0.98,1.87-2.19,2.48-3.6c0.61-1.42,0.91-3,0.91-4.73c0-1.79-0.3-3.4-0.91-4.82c-0.61-1.42-1.43-2.62-2.48-3.61
			c-1.04-0.98-2.26-1.72-3.65-2.22c-1.39-0.49-2.84-0.74-4.34-0.74c-1.51,0-2.95,0.25-4.34,0.74c-1.39,0.49-2.61,1.23-3.65,2.22
			c-1.04,0.99-1.87,2.19-2.48,3.61C261.97,58.92,261.66,60.53,261.66,62.32z"/>
		<path d="M341.24,72.75l6.95-27.97h10.69v6.69h-4.87l-7.3,28.41h-10.34c-1.27-4.69-2.53-9.37-3.78-14.03
			c-1.25-4.66-2.48-9.34-3.69-14.03l-7.47,28.06h-10.69c-1.16-4.75-2.36-9.48-3.6-14.2c-1.25-4.72-2.45-9.45-3.61-14.2h-4.87v-6.69
			h10.95l6.86,27.97l7.47-27.97h9.99L341.24,72.75z"/>
		<path d="M434.89,75.79c-1.85,1.85-4.05,3.17-6.6,3.95c-2.55,0.78-5.3,1.17-8.25,1.17c-2.84,0-5.46-0.43-7.86-1.3
			c-2.4-0.87-4.47-2.11-6.21-3.74c-1.74-1.62-3.1-3.58-4.08-5.86c-0.99-2.29-1.48-4.88-1.48-7.78c0-3.01,0.52-5.66,1.56-7.95
			c1.04-2.29,2.42-4.21,4.13-5.78c1.71-1.56,3.68-2.74,5.91-3.52c2.23-0.78,4.56-1.17,6.99-1.17c2.49,0,4.83,0.38,7.04,1.13
			c2.2,0.75,4.13,1.9,5.78,3.43c1.65,1.54,2.95,3.46,3.91,5.78c0.96,2.32,1.43,5.01,1.43,8.08c0,0.46-0.01,0.97-0.04,1.52
			c-0.03,0.55-0.1,1.09-0.22,1.61h-28.32c0.29,1.51,0.81,2.79,1.56,3.87c0.75,1.07,1.66,1.95,2.74,2.65
			c1.07,0.69,2.26,1.22,3.56,1.56c1.3,0.35,2.65,0.52,4.04,0.52c1.79,0,3.62-0.3,5.47-0.91c1.85-0.61,3.47-1.49,4.87-2.65
			L434.89,75.79z M419.08,50.68c-2.66,0-5,0.75-6.99,2.26c-2,1.51-3.2,3.56-3.6,6.17h20.76c-0.29-2.55-1.32-4.59-3.08-6.12
			C424.39,51.45,422.04,50.68,419.08,50.68z"/>
		<path d="M450.01,79.87V51.46h-5.99v-6.69h12.77l0.17,5.3c1.16-1.85,2.59-3.36,4.3-4.52c1.71-1.16,3.75-1.74,6.12-1.74
			c1.27,0,2.36,0.09,3.26,0.26c0.9,0.17,1.66,0.41,2.3,0.7l-2,7.56c-0.46-0.29-1.1-0.52-1.91-0.7c-0.81-0.17-1.68-0.26-2.61-0.26
			c-2.84,0-4.98,1.19-6.43,3.56c-1.45,2.38-2.17,5.68-2.17,9.9v15.03H450.01z"/>
	</g>
	<g>
		<path class="st0" d="M381.05,33.83c-6.39,0-11.58-5.31-11.58-11.83c0-8.58,8.45-18.43,9.41-19.53L381.05,0l2.17,2.47
			c0.96,1.1,9.41,10.95,9.41,19.53C392.63,28.52,387.44,33.83,381.05,33.83z M381.05,9.05c-2.55,3.5-5.79,8.88-5.79,12.95
			c0,3.33,2.6,6.04,5.79,6.04s5.79-2.71,5.79-6.04C386.84,17.93,383.6,12.55,381.05,9.05z"/>
	</g>
	<g>
		<path class="st1" d="M381.05,53.37c-6.39,0-11.58-5.31-11.58-11.83c0-8.58,8.45-18.43,9.41-19.53l2.17-2.47l2.17,2.47
			c0.96,1.1,9.41,10.95,9.41,19.53C392.63,48.06,387.44,53.37,381.05,53.37z M381.05,28.58c-2.55,3.5-5.79,8.88-5.79,12.95
			c0,3.33,2.6,6.04,5.79,6.04c3.19,0,5.79-2.71,5.79-6.04C386.84,37.45,383.6,32.08,381.05,28.58z"/>
	</g>
</g>
</svg>
