<?xml version="1.0" encoding="utf-8"?>
<!-- Generator: Adobe Illustrator 25.2.0, SVG Export Plug-In . SVG Version: 6.00 Build 0)  -->
<svg version="1.1" id="레이어_1" xmlns="http://www.w3.org/2000/svg" xmlns:xlink="http://www.w3.org/1999/xlink" x="0px"
	 y="0px" viewBox="0 0 486.72 763.81" style="enable-background:new 0 0 486.72 763.81;" xml:space="preserve">
<style type="text/css">
	.st0{fill:#4AA5CA;}
	.st1{fill:#FFFFFF;stroke:#000000;stroke-width:3;stroke-miterlimit:10;}
	.st2{fill:#D84352;stroke:#000000;stroke-width:3;stroke-miterlimit:10;}
	.st3{fill:#FFFFFF;}
	.st4{fill:none;stroke:#000000;stroke-width:3;stroke-linecap:round;stroke-linejoin:round;}
	.st5{fill:none;stroke:#000000;stroke-width:3;stroke-linecap:round;stroke-linejoin:round;stroke-dasharray:6.129,6.129;}
	.st6{fill:#FFFFFF;stroke:#000000;stroke-width:3;stroke-linecap:round;stroke-linejoin:round;stroke-miterlimit:10;}
	.st7{fill:none;stroke:#000000;stroke-width:3;stroke-linecap:round;stroke-miterlimit:10;}
	.st8{fill:#FFFFFF;stroke:#D84352;stroke-width:3;stroke-linecap:round;stroke-linejoin:round;stroke-miterlimit:10;}
</style>
<g>
	<rect x="241.46" y="18.86" class="st0" width="45" height="8"/>
	<g>
		<path d="M97.51,52.86v1.71c-1.55,0.06-2.02,0.84-2.02,2.39h1.86v4.16h-3.81v-4.37C93.54,54.44,94.9,53.02,97.51,52.86z
			 M103.21,52.86v1.71c-1.55,0.06-2.02,0.84-2.02,2.39h1.86v4.16h-3.81v-4.37C99.24,54.44,100.61,53.02,103.21,52.86z"/>
		<path d="M121.04,54.1v25.73h-10.67V54.1H121.04z M113.63,76.98h4.16v-20h-4.16V76.98z M133.44,81.73h-3.29V67.74h-3.16v13.64
			h-3.22v-27.6h3.22V64.8h3.16V53.61h3.29V81.73z"/>
		<path d="M141.28,60.18c0-2.29,0.96-4.06,2.54-5.27c1.24-0.96,2.95-1.49,4.84-1.49c1.92,0,3.6,0.53,4.87,1.49
			c1.55,1.21,2.51,2.98,2.51,5.27c0,2.29-0.96,4.12-2.51,5.27c-1.27,0.96-2.95,1.49-4.87,1.49c-1.89,0-3.6-0.53-4.84-1.49
			C142.24,64.3,141.28,62.47,141.28,60.18z M146.73,76.83v2.45h17.98v2.73h-21.36v-7.84H161v-2.51h-17.64v-2.7h21.02v7.88H146.73z
			 M144.56,60.18c0,1.3,0.5,2.33,1.3,3.04c0.71,0.59,1.67,0.96,2.79,0.96s2.11-0.37,2.82-0.96c0.78-0.71,1.27-1.74,1.27-3.04
			c0-1.27-0.5-2.29-1.27-2.98c-0.71-0.62-1.71-0.96-2.82-0.96s-2.08,0.34-2.79,0.96C145.06,57.88,144.56,58.91,144.56,60.18z
			 M164.38,67.19H161V53.61h3.38V67.19z"/>
		<path d="M194.23,54.1v25.73h-10.67V54.1H194.23z M186.82,76.98h4.16v-20h-4.16V76.98z M206.63,81.73h-3.29V67.74h-3.16v13.64
			h-3.22v-27.6h3.22V64.8h3.16V53.61h3.29V81.73z"/>
		<path d="M214.47,60.18c0-2.29,0.96-4.06,2.54-5.27c1.24-0.96,2.95-1.49,4.84-1.49c1.92,0,3.6,0.53,4.87,1.49
			c1.55,1.21,2.51,2.98,2.51,5.27c0,2.29-0.96,4.12-2.51,5.27c-1.27,0.96-2.95,1.49-4.87,1.49c-1.89,0-3.6-0.53-4.84-1.49
			C215.43,64.3,214.47,62.47,214.47,60.18z M219.92,76.83v2.45h17.98v2.73h-21.36v-7.84h17.64v-2.51h-17.64v-2.7h21.02v7.88H219.92z
			 M217.75,60.18c0,1.3,0.5,2.33,1.3,3.04c0.71,0.59,1.67,0.96,2.79,0.96s2.11-0.37,2.82-0.96c0.77-0.71,1.27-1.74,1.27-3.04
			c0-1.27-0.5-2.29-1.27-2.98c-0.71-0.62-1.71-0.96-2.82-0.96s-2.08,0.34-2.79,0.96C218.25,57.88,217.75,58.91,217.75,60.18z
			 M237.57,67.19h-3.38V53.61h3.38V67.19z"/>
		<path d="M261.68,73.79c-1.12,2.48-3.47,4.74-6.33,6.05V76.7c2.82-1.71,4.65-4.56,4.65-10.79V53.95h3.32v11.97
			c0,6.26,1.83,9.05,4.68,10.82v3.1C265.15,78.56,262.83,76.24,261.68,73.79z M279.82,81.73h-3.29V67.74h-3.47v13.64h-3.26v-27.6
			h3.26V64.8h3.47V53.61h3.29V81.73z"/>
		<path d="M292.12,64.49v4.59h19.01v2.91h-9.61v5.58h10.73v2.91h-24.96v-2.91h10.88v-5.58h-9.43V61.57h18.67v-4.5h-18.67V54.1h22.04
			v10.39H292.12z"/>
		<path d="M318.41,70.72v-2.92h25.33v2.92h-10.67v5.21h-3.35v-5.21H318.41z M319.74,59.34c0-1.64,0.65-2.91,1.86-3.78
			c2.02-1.52,5.49-1.98,9.52-1.98c4.03,0,7.47,0.46,9.49,1.98c1.21,0.87,1.86,2.14,1.86,3.78c0,1.67-0.65,2.95-1.86,3.81
			c-2.01,1.52-5.46,1.98-9.49,1.98c-4.03,0-7.5-0.46-9.52-1.98C320.39,62.29,319.74,61.02,319.74,59.34z M323.62,73.67v5.27h18.79
			v2.92h-22.14v-8.19H323.62z M323.12,59.34c0,0.78,0.34,1.33,0.99,1.8c1.24,0.87,3.63,1.18,7.01,1.18c3.35,0,5.74-0.31,6.98-1.18
			c0.65-0.47,1.02-1.02,1.02-1.8c0-0.74-0.37-1.3-1.02-1.77c-1.24-0.84-3.63-1.18-6.98-1.18c-3.38,0-5.77,0.34-7.01,1.18
			C323.46,58.04,323.12,58.6,323.12,59.34z"/>
		<path d="M383.98,57.08h-18.67v9.55h18.88v2.95h-9.49v8h10.73v2.91h-24.96v-2.91h10.88v-8h-9.43V54.1h22.04V57.08z"/>
		<path d="M392.53,56.86v-2.91h14.51v2.91h-5.58v2.51c0,4.81,2.6,7.01,6.11,7.81v2.98c-3.38-0.59-6.26-2.36-7.72-4.74
			c-1.46,2.42-4.4,4.56-7.81,5.08v-2.98c3.57-0.77,6.08-3.29,6.08-8.15v-2.51H392.53z M415.75,81.85h-21.52V72.3h3.38v6.63h18.14
			V81.85z M415.26,73.29h-3.38V63.06h-5.8v-2.88h5.8v-6.57h3.38V73.29z"/>
		<path d="M423.16,61.11V59.4c1.55-0.06,2.02-0.84,2.02-2.39h-1.86v-4.15h3.81v4.37C427.13,59.53,425.76,60.95,423.16,61.11z
			 M428.86,61.11V59.4c1.55-0.06,2.02-0.84,2.02-2.39h-1.86v-4.15h3.81v4.37C432.83,59.53,431.47,60.95,428.86,61.11z"/>
		<path d="M130.54,117.83c-1.46,2.02-3.78,3.04-7.1,3.04h-8.71V96.56h8.71c3.32,0,5.64,1.02,7.1,3.04c1.83,2.48,2.14,5.74,2.14,9.12
			C132.68,112.09,132.37,115.35,130.54,117.83z M127.47,101.46c-0.9-1.24-2.33-1.77-4.37-1.77h-4.78v18.05h4.78
			c2.05,0,3.47-0.53,4.37-1.77c1.08-1.49,1.61-3.6,1.61-7.25C129.08,105.05,128.56,102.95,127.47,101.46z"/>
		<path d="M143.53,121.27c-4.03,0-6.57-1.98-6.57-5.52c0-3.5,2.54-5.52,6.57-5.52c2.39,0,4.28,0.81,4.9,2.23v-2.82
			c0-2.36-1.24-3.72-3.75-3.72c-2.23,0-3.38,0.96-3.63,2.73h-3.44c0.25-3.44,2.64-5.55,7.07-5.55c4.84,0,7.19,2.57,7.19,6.54v8.84
			c0,0.87,0.16,1.8,0.4,2.39h-3.5c-0.22-0.46-0.34-1.12-0.34-1.86C147.87,120.37,146.1,121.27,143.53,121.27z M148.46,115.75
			c0-1.8-1.4-2.76-4.06-2.76c-2.64,0-4.03,0.96-4.03,2.76c0,1.83,1.4,2.76,4.03,2.76C147.06,118.51,148.46,117.58,148.46,115.75z"/>
		<path d="M157.23,100.22v-3.66h3.44v3.66H157.23z M157.23,120.87V103.5h3.44v17.36H157.23z"/>
		<path d="M166.25,120.87V96.56h3.41v24.31H166.25z"/>
		<path d="M180.38,120.93l-6.67-17.42h3.57l4.84,13.15l4.71-13.15h3.57l-7.91,21.21c-1.15,3.07-2.7,3.72-5.27,3.72
			c-0.47,0-1.02,0-1.43-0.03v-2.79h1.15c1.12,0,1.89-0.37,2.45-1.95L180.38,120.93z"/>
		<path d="M208.78,120.87h-3.6V96.56h3.6V120.87z"/>
		<path d="M225.67,96.56h3.44v24.31h-3.44v-2.7c-0.65,1.89-2.48,3.1-4.96,3.1c-4.28,0-6.95-2.85-6.95-9.08
			c0-6.23,2.67-9.08,6.95-9.08c2.48,0,4.31,1.21,4.96,3.1V96.56z M221.46,105.95c-3.22,0-4.28,2.42-4.28,6.23
			c0,3.84,1.05,6.23,4.28,6.23c3.16,0,4.22-2.39,4.22-6.23C225.67,108.37,224.62,105.95,221.46,105.95z"/>
		<path d="M237.27,113.24c0.12,3.26,1.39,5.18,4.31,5.18c2.17,0,3.47-1.05,3.72-2.76h3.5c-0.56,3.5-3.07,5.61-7.22,5.61
			c-5.21,0-7.75-3.29-7.75-9.08c0-5.77,2.54-9.08,7.69-9.08c5.12,0,7.66,3.32,7.66,9.08c0,0.37,0,0.71-0.03,1.05H237.27z
			 M237.3,110.63h8.4c-0.25-2.91-1.46-4.68-4.19-4.68C238.73,105.95,237.55,107.72,237.3,110.63z"/>
		<path d="M259.77,121.27c-4.03,0-6.57-1.98-6.57-5.52c0-3.5,2.54-5.52,6.57-5.52c2.39,0,4.28,0.81,4.9,2.23v-2.82
			c0-2.36-1.24-3.72-3.75-3.72c-2.23,0-3.38,0.96-3.63,2.73h-3.44c0.25-3.44,2.64-5.55,7.07-5.55c4.84,0,7.19,2.57,7.19,6.54v8.84
			c0,0.87,0.16,1.8,0.4,2.39h-3.5c-0.22-0.46-0.34-1.12-0.34-1.86C264.12,120.37,262.35,121.27,259.77,121.27z M264.7,115.75
			c0-1.8-1.4-2.76-4.06-2.76c-2.64,0-4.03,0.96-4.03,2.76c0,1.83,1.4,2.76,4.03,2.76C263.31,118.51,264.7,117.58,264.7,115.75z"/>
		<path d="M292.01,121.27c-5.24,0-8.4-2.98-8.4-7.13v-0.5h3.63v0.56c0,2.36,1.8,3.97,4.78,3.97c3.01,0,4.77-1.61,4.77-3.97
			c0-1.98-1.21-3.38-3.84-3.94l-3.13-0.65c-3.85-0.81-6.2-2.91-6.2-6.7c0-3.69,2.76-6.76,7.94-6.76c5.24,0,7.97,3.07,7.97,6.76v0.37
			h-3.63v-0.37c0-2.14-1.52-3.63-4.34-3.63c-2.79,0-4.31,1.49-4.31,3.63c0,2.05,1.21,3.1,3.72,3.63l3.13,0.65
			c4.06,0.87,6.33,3.16,6.33,6.95C300.42,118.29,297.28,121.27,292.01,121.27z"/>
		<path d="M319.76,120.87h-3.44v-10.6c0-3.01-1.21-4.34-3.44-4.34c-2.48,0-4.37,1.95-4.37,5.55v9.39h-3.38V96.56h3.38v9.86
			c0.81-2.02,2.57-3.32,5.21-3.32c3.88,0,6.05,2.48,6.05,6.91V120.87z"/>
		<path d="M339.76,112.19c0,5.8-2.54,9.08-7.66,9.08c-5.15,0-7.69-3.29-7.69-9.08c0-5.8,2.54-9.08,7.69-9.08
			C337.21,103.1,339.76,106.39,339.76,112.19z M336.34,112.19c0-3.84-1.05-6.26-4.25-6.26c-3.19,0-4.25,2.42-4.25,6.26
			c0,3.84,1.05,6.26,4.25,6.26C335.29,118.45,336.34,116.03,336.34,112.19z"/>
		<path d="M358.01,103.5l4.12,13.36l4-13.36h3.53l-5.64,17.36h-3.66l-4.09-13.49l-4.09,13.49h-3.69l-5.61-17.36h3.54l3.97,13.36
			l4.15-13.36H358.01z"/>
		<path d="M374.13,102.11v-1.71c1.55-0.06,2.02-0.84,2.02-2.39h-1.86v-4.15h3.81v4.37C378.1,100.53,376.74,101.95,374.13,102.11z"/>
		<path d="M387.09,113.24c0.12,3.26,1.4,5.18,4.31,5.18c2.17,0,3.47-1.05,3.72-2.76h3.5c-0.56,3.5-3.07,5.61-7.22,5.61
			c-5.21,0-7.75-3.29-7.75-9.08c0-5.77,2.54-9.08,7.69-9.08c5.12,0,7.66,3.32,7.66,9.08c0,0.37,0,0.71-0.03,1.05H387.09z
			 M387.12,110.63h8.4c-0.25-2.91-1.46-4.68-4.19-4.68C388.55,105.95,387.37,107.72,387.12,110.63z"/>
		<path d="M407.12,111.97v8.9h-3.38V103.5h3.38v2.91c0.74-2.2,2.14-3.32,4.81-3.32c0.53,0,1.12,0.03,1.43,0.12l-0.06,2.79
			c-0.28-0.03-0.84-0.06-1.46-0.06C408.91,105.95,407.12,108,407.12,111.97z"/>
	</g>
	<g>
		<path d="M258.41,23.16c-1.33,1.49-3.26,2.23-5.67,2.23c-2.45,0-4.37-0.74-5.71-2.23c-1.77-1.95-2.64-4.99-2.64-10.48
			c0-5.43,0.87-8.46,2.64-10.45c1.33-1.46,3.26-2.23,5.71-2.23c2.42,0,4.34,0.78,5.67,2.23c1.77,1.98,2.64,5.02,2.64,10.45
			C261.05,18.17,260.18,21.21,258.41,23.16z M255.44,4.96c-0.68-0.84-1.55-1.24-2.7-1.24c-1.18,0-2.05,0.4-2.7,1.24
			c-0.93,1.24-1.24,3.38-1.24,7.72c0,4.4,0.31,6.54,1.24,7.75c0.65,0.87,1.52,1.27,2.7,1.27c1.15,0,2.02-0.4,2.7-1.27
			c0.9-1.21,1.21-3.35,1.21-7.75C256.65,8.34,256.34,6.2,255.44,4.96z"/>
		<path d="M273.32,24.96V4.87l-5.49,2.45V3.22l6.14-2.79h3.75v24.53H273.32z"/>
	</g>
	<g>
		<path class="st1" d="M440.17,289.59h-305c-26.23,0-47.5-21.27-47.5-47.5l0,0c0-26.23,21.27-47.5,47.5-47.5h305
			c26.23,0,47.5,21.27,47.5,47.5l0,0C487.67,268.33,466.4,289.59,440.17,289.59z"/>
		<g>
			<path d="M163.9,251.59h-6.33v-23.24h9.1v2.69h-6.13v17.89h3.53c1.46,0,2.86-0.08,3.98-0.48v2.52
				C166.95,251.42,165.46,251.59,163.9,251.59z M173.11,252.99h-2.97V240.7h-4.96v-2.66h4.96v-9.97h2.97V252.99z M178.4,253.3h-2.97
				v-25.4h2.97V253.3z"/>
			<path d="M184.78,233.84c0-2.07,0.87-3.67,2.3-4.76c1.12-0.87,2.66-1.34,4.37-1.34c1.74,0,3.25,0.48,4.4,1.34
				c1.4,1.09,2.27,2.69,2.27,4.76c0,2.07-0.87,3.72-2.27,4.76c-1.15,0.87-2.66,1.34-4.4,1.34c-1.71,0-3.25-0.48-4.37-1.34
				C185.65,237.56,184.78,235.91,184.78,233.84z M189.71,248.88v2.21h16.24v2.46h-19.29v-7.08h15.93v-2.27h-15.93v-2.44h18.98v7.11
				H189.71z M187.75,233.84c0,1.18,0.45,2.1,1.18,2.74c0.64,0.53,1.51,0.87,2.52,0.87c1.01,0,1.9-0.34,2.55-0.87
				c0.7-0.64,1.15-1.57,1.15-2.74c0-1.15-0.45-2.07-1.15-2.69c-0.64-0.56-1.54-0.87-2.55-0.87c-1.01,0-1.88,0.31-2.52,0.87
				C188.2,231.77,187.75,232.69,187.75,233.84z M205.64,240.17h-3.05V227.9h3.05V240.17z"/>
			<path d="M224.29,251.59h-11.4v-13.08h8.85v-7.48h-8.85v-2.69h11.84v12.82h-8.82v7.76h8.96c2.32,0,4.17-0.5,5.24-1.46V227.9h3.05
				v25.4h-3.05V250C229.11,251,226.92,251.59,224.29,251.59z"/>
			<path d="M248.85,239.92c0-4.59,0.45-8.04,2.04-10.02c1.06-1.29,2.6-1.99,4.51-1.99c1.88,0,3.44,0.7,4.48,1.99
				c1.62,1.99,2.07,5.43,2.07,10.02s-0.45,8.04-2.07,10.02c-1.04,1.29-2.6,1.93-4.48,1.93c-1.9,0-3.44-0.64-4.51-1.93
				C249.3,247.95,248.85,244.51,248.85,239.92z M258.93,239.92c0-4.03-0.31-6.97-1.32-8.32c-0.53-0.7-1.32-1.06-2.21-1.06
				c-0.92,0-1.71,0.36-2.21,1.06c-1.06,1.34-1.32,4.28-1.32,8.32c0,4.03,0.25,6.97,1.32,8.34c0.5,0.64,1.29,1.01,2.21,1.01
				c0.9,0,1.68-0.36,2.21-1.01C258.62,246.89,258.93,243.95,258.93,239.92z M268.98,227.9v10.36h3.98v2.66h-3.98v12.38h-3.05v-25.4
				H268.98z"/>
			<path d="M276.6,239.92c0-4.59,0.45-8.04,2.07-10.02c1.04-1.29,2.6-1.99,4.48-1.99c1.9,0,3.44,0.7,4.51,1.99
				c1.62,1.99,2.07,5.43,2.07,10.02s-0.45,8.04-2.07,10.02c-1.06,1.29-2.6,1.93-4.51,1.93c-1.88,0-3.44-0.64-4.48-1.93
				C277.04,247.95,276.6,244.51,276.6,239.92z M286.7,239.92c0-4.03-0.28-6.97-1.34-8.32c-0.5-0.7-1.29-1.06-2.21-1.06
				c-0.9,0-1.68,0.36-2.21,1.06c-1.01,1.34-1.32,4.28-1.32,8.32c0,4.03,0.31,6.97,1.32,8.34c0.53,0.64,1.32,1.01,2.21,1.01
				c0.92,0,1.71-0.36,2.21-1.01C286.42,246.89,286.7,243.95,286.7,239.92z M297.18,227.9v25.4h-3.05v-25.4H297.18z"/>
			<path d="M315.88,251.59h-11.4v-23.24h12.24v2.69h-9.21v17.89h8.96c2.32,0,4.17-0.5,5.24-1.46V227.9h3.05v25.4h-3.05V250
				C320.7,251,318.51,251.59,315.88,251.59z"/>
			<path d="M331.76,239.92c0-4.59,0.45-8.04,2.07-10.02c1.04-1.29,2.6-1.99,4.48-1.99c1.9,0,3.44,0.7,4.51,1.99
				c1.4,1.71,1.93,4.48,2.04,8.12h4.42V227.9h3.05v25.4h-3.05v-12.66h-4.4c-0.06,4.23-0.53,7.42-2.07,9.3
				c-1.06,1.29-2.6,1.93-4.51,1.93c-1.88,0-3.44-0.64-4.48-1.93C332.2,247.95,331.76,244.51,331.76,239.92z M341.86,239.92
				c0-4.03-0.28-6.97-1.34-8.32c-0.5-0.7-1.29-1.06-2.21-1.06c-0.9,0-1.68,0.36-2.21,1.06c-1.01,1.34-1.32,4.28-1.32,8.32
				c0,4.03,0.31,6.97,1.32,8.34c0.53,0.64,1.32,1.01,2.21,1.01c0.92,0,1.71-0.36,2.21-1.01
				C341.58,246.89,341.86,243.95,341.86,239.92z"/>
			<path d="M368.29,230.84v-2.63h13.1v2.63h-5.04v0.48c0,4.31,2.35,6.33,5.52,7.06v2.69c-3.05-0.53-5.66-2.13-6.97-4.28
				c-1.26,2.21-3.98,4.03-7.06,4.59v-2.72c3.22-0.67,5.49-2.97,5.49-7.34v-0.48H368.29z M385.77,245.63v-2.97h3.05v10.89h-18.98
				v-10.89h3.05v2.97H385.77z M385.77,248.23h-12.88v2.74h12.88V248.23z M388.82,241.37h-3.05v-5.68h-5.24v-2.6h5.24v-5.18h3.05
				V241.37z"/>
			<path d="M395.03,243.05v-2.6h9.88v-3.7h3.02v3.7h9.97v2.6H395.03z M406.43,233.53c-1.9,2.27-5.94,4.06-10.67,4.54v-2.69
				c4.76-0.64,9.16-2.69,9.16-6.27v-1.04h3.02v1.04c0,3.58,4.34,5.6,9.21,6.27v2.69C412.37,237.59,408.33,235.77,406.43,233.53z
				 M413.21,253.72v-5.43h-16.66v-2.6h19.71v8.04H413.21z"/>
		</g>
		<path class="st1" d="M440.17,447.78h-305c-26.23,0-47.5-21.27-47.5-47.5l0,0c0-26.23,21.27-47.5,47.5-47.5h305
			c26.23,0,47.5,21.27,47.5,47.5l0,0C487.67,426.51,466.4,447.78,440.17,447.78z"/>
		<g>
			<path d="M123,409.77h-6.33v-23.24h9.1v2.69h-6.13v17.89h3.53c1.46,0,2.86-0.08,3.98-0.48v2.52
				C126.06,409.61,124.57,409.77,123,409.77z M132.21,411.17h-2.97v-12.29h-4.96v-2.66h4.96v-9.97h2.97V411.17z M137.51,411.48
				h-2.97v-25.4h2.97V411.48z"/>
			<path d="M143.19,392.02c0-2.07,0.87-3.67,2.3-4.76c1.12-0.87,2.66-1.34,4.37-1.34c1.74,0,3.25,0.48,4.4,1.34
				c1.4,1.09,2.27,2.69,2.27,4.76c0,2.07-0.87,3.72-2.27,4.76c-1.15,0.87-2.66,1.34-4.4,1.34c-1.71,0-3.25-0.48-4.37-1.34
				C144.06,395.75,143.19,394.09,143.19,392.02z M148.12,407.06v2.21h16.24v2.46h-19.29v-7.08H161v-2.27h-15.93v-2.44h18.98v7.11
				H148.12z M146.16,392.02c0,1.18,0.45,2.1,1.18,2.74c0.64,0.53,1.51,0.87,2.52,0.87c1.01,0,1.9-0.34,2.55-0.87
				c0.7-0.64,1.15-1.57,1.15-2.74c0-1.15-0.45-2.07-1.15-2.69c-0.64-0.56-1.54-0.87-2.55-0.87c-1.01,0-1.88,0.31-2.52,0.87
				C146.61,389.95,146.16,390.88,146.16,392.02z M164.05,398.35H161v-12.26h3.05V398.35z"/>
			<path d="M182,409.77h-11.4V396.7h8.85v-7.48h-8.85v-2.69h11.84v12.82h-8.82v7.76h8.96c2.32,0,4.17-0.5,5.24-1.46v-19.57h3.05
				v25.4h-3.05v-3.3C186.82,409.19,184.63,409.77,182,409.77z"/>
			<path d="M205.15,398.1c0-4.59,0.45-8.04,2.04-10.02c1.06-1.29,2.6-1.99,4.51-1.99c1.88,0,3.44,0.7,4.48,1.99
				c1.62,1.99,2.07,5.43,2.07,10.02s-0.45,8.04-2.07,10.02c-1.04,1.29-2.6,1.93-4.48,1.93c-1.9,0-3.44-0.64-4.51-1.93
				C205.6,406.13,205.15,402.69,205.15,398.1z M215.23,398.1c0-4.03-0.31-6.97-1.32-8.32c-0.53-0.7-1.32-1.06-2.21-1.06
				c-0.92,0-1.71,0.36-2.21,1.06c-1.06,1.34-1.32,4.28-1.32,8.32c0,4.03,0.25,6.97,1.32,8.34c0.5,0.64,1.29,1.01,2.21,1.01
				c0.9,0,1.68-0.37,2.21-1.01C214.93,405.07,215.23,402.13,215.23,398.1z M225.29,386.09v10.36h3.98v2.66h-3.98v12.38h-3.05v-25.4
				H225.29z"/>
			<path d="M232.2,398.1c0-4.59,0.45-8.04,2.07-10.02c1.04-1.29,2.6-1.99,4.48-1.99c1.9,0,3.44,0.7,4.51,1.99
				c1.62,1.99,2.07,5.43,2.07,10.02s-0.45,8.04-2.07,10.02c-1.06,1.29-2.6,1.93-4.51,1.93c-1.88,0-3.44-0.64-4.48-1.93
				C232.65,406.13,232.2,402.69,232.2,398.1z M242.31,398.1c0-4.03-0.28-6.97-1.34-8.32c-0.5-0.7-1.29-1.06-2.21-1.06
				c-0.9,0-1.68,0.36-2.21,1.06c-1.01,1.34-1.32,4.28-1.32,8.32c0,4.03,0.31,6.97,1.32,8.34c0.53,0.64,1.32,1.01,2.21,1.01
				c0.92,0,1.71-0.37,2.21-1.01C242.03,405.07,242.31,402.13,242.31,398.1z M252.78,386.09v25.4h-3.05v-25.4H252.78z"/>
			<path d="M270.79,409.77h-11.4v-23.24h12.24v2.69h-9.21v17.89h8.96c2.32,0,4.17-0.5,5.24-1.46v-19.57h3.05v25.4h-3.05v-3.3
				C275.6,409.19,273.42,409.77,270.79,409.77z"/>
			<path d="M285.96,398.1c0-4.59,0.45-8.04,2.07-10.02c1.04-1.29,2.6-1.99,4.48-1.99c1.9,0,3.44,0.7,4.51,1.99
				c1.4,1.71,1.93,4.48,2.04,8.12h4.42v-10.11h3.05v25.4h-3.05v-12.66h-4.4c-0.06,4.23-0.53,7.42-2.07,9.3
				c-1.06,1.29-2.6,1.93-4.51,1.93c-1.88,0-3.44-0.64-4.48-1.93C286.41,406.13,285.96,402.69,285.96,398.1z M296.07,398.1
				c0-4.03-0.28-6.97-1.34-8.32c-0.5-0.7-1.29-1.06-2.21-1.06c-0.9,0-1.68,0.36-2.21,1.06c-1.01,1.34-1.32,4.28-1.32,8.32
				c0,4.03,0.31,6.97,1.32,8.34c0.53,0.64,1.32,1.01,2.21,1.01c0.92,0,1.71-0.37,2.21-1.01
				C295.79,405.07,296.07,402.13,296.07,398.1z"/>
			<path d="M337.51,398.29h4.59v2.66h-8.82v6.78h9.69v2.63h-22.54v-2.63h9.83v-6.78h-8.96v-2.66h3.75v-9.07h-3.3v-2.69h19.91v2.69
				h-3.33v4.03C338.32,395.1,338.07,397.09,337.51,398.29z M328.13,389.22v9.07h6.44c0.53-1.2,0.7-3.08,0.7-4.73v-4.34H328.13z"/>
			<path d="M347.31,410.36v-2.63h22.54v2.63H347.31z M358.57,394.82c-1.71,2.97-5.29,5.77-10.84,6.83v-2.72
				c5.8-1.32,9.3-4.93,9.3-10.47v-2.07h3.02v2.07c0,5.54,3.58,9.16,9.35,10.47v2.72C363.88,400.59,360.27,397.79,358.57,394.82z"/>
			<path d="M384.63,409.77h-9.58v-23.24h12.18v2.69h-9.16v7.48h8.09v2.66h-8.09v7.76h6.69c1.9,0,3.64-0.14,4.93-0.59v2.52
				C388.44,409.55,386.59,409.77,384.63,409.77z M395.33,386.09v25.4h-3.05v-12.52h-4.79v-2.66h4.79v-10.22H395.33z"/>
			<path d="M409.97,394.82c0-1.18,0.59-2.04,1.51-2.66c1.2-0.76,3.02-1.12,5.15-1.12c2.1,0,3.95,0.34,5.15,1.12
				c0.9,0.62,1.46,1.48,1.46,2.66c0,1.29-0.64,2.18-1.76,2.8c-0.87,0.48-1.99,0.81-3.3,0.92v1.88h3.7c2.24,0,3.92-0.45,4.82-1.06
				v-13.27h3.05v7.7h3.72v2.66h-3.72v7.31h-3.05v-2.1c-1.04,0.81-2.8,1.2-5.63,1.2h-12.04v-2.44h6.1v-1.85
				c-1.46-0.14-2.74-0.5-3.64-1.12C410.56,396.81,409.97,395.94,409.97,394.82z M415.12,385.36h3.08v2.27h5.71v2.3h-14.53v-2.3h5.74
				V385.36z M410.67,405.18h19.07v6.72h-3.05v-4.26h-16.02V405.18z M412.86,394.82c0,0.34,0.17,0.64,0.48,0.9
				c0.62,0.45,1.76,0.67,3.3,0.67c1.43,0,2.52-0.2,3.14-0.59c0.39-0.25,0.62-0.56,0.62-0.98c0-0.39-0.22-0.73-0.62-0.98
				c-0.62-0.42-1.71-0.62-3.14-0.62c-1.46,0-2.6,0.2-3.25,0.64C413.05,394.12,412.86,394.46,412.86,394.82z"/>
			<path d="M436.43,393.25c0-2.58,0.78-4.56,2.13-5.8c1.15-1.01,2.69-1.54,4.54-1.54c1.88,0,3.42,0.53,4.54,1.54
				c1.37,1.23,2.13,3.22,2.13,5.8c0,2.6-0.76,4.59-2.13,5.82c-1.12,1.01-2.66,1.54-4.54,1.54c-1.85,0-3.39-0.53-4.54-1.54
				C437.22,397.85,436.43,395.86,436.43,393.25z M457.74,411.59h-19.43v-8.62h3.05v5.99h16.38V411.59z M439.4,393.25
				c0,1.71,0.42,2.97,1.2,3.78c0.62,0.62,1.46,0.95,2.49,0.95c1.04,0,1.88-0.34,2.52-0.95c0.76-0.81,1.18-2.07,1.18-3.78
				c0-1.68-0.42-2.97-1.18-3.75c-0.64-0.62-1.48-0.95-2.52-0.95c-1.04,0-1.88,0.34-2.49,0.95
				C439.82,390.29,439.4,391.57,439.4,393.25z M457.29,403.87h-3.05v-17.78h3.05V403.87z"/>
		</g>
		<path class="st1" d="M440.17,605.96h-305c-26.23,0-47.5-21.27-47.5-47.5l0,0c0-26.23,21.27-47.5,47.5-47.5h305
			c26.23,0,47.5,21.27,47.5,47.5l0,0C487.67,584.69,466.4,605.96,440.17,605.96z"/>
		<g>
			<path d="M131.89,567.96h-6.33v-23.24h9.1v2.69h-6.13v17.89h3.53c1.46,0,2.86-0.08,3.98-0.48v2.52
				C134.95,567.79,133.46,567.96,131.89,567.96z M141.1,569.36h-2.97v-12.29h-4.96v-2.66h4.96v-9.97h2.97V569.36z M146.4,569.66
				h-2.97v-25.39h2.97V569.66z"/>
			<path d="M152.78,550.21c0-2.07,0.87-3.67,2.3-4.76c1.12-0.87,2.66-1.34,4.37-1.34c1.74,0,3.25,0.48,4.4,1.34
				c1.4,1.09,2.27,2.69,2.27,4.76c0,2.07-0.87,3.72-2.27,4.76c-1.15,0.87-2.66,1.34-4.4,1.34c-1.71,0-3.25-0.48-4.37-1.34
				C153.65,553.93,152.78,552.28,152.78,550.21z M157.71,565.24v2.21h16.24v2.46h-19.29v-7.08h15.93v-2.27h-15.93v-2.44h18.98v7.11
				H157.71z M155.75,550.21c0,1.18,0.45,2.1,1.18,2.74c0.64,0.53,1.51,0.87,2.52,0.87c1.01,0,1.9-0.34,2.55-0.87
				c0.7-0.64,1.15-1.57,1.15-2.74c0-1.15-0.45-2.07-1.15-2.69c-0.64-0.56-1.54-0.87-2.55-0.87c-1.01,0-1.88,0.31-2.52,0.87
				C156.2,548.13,155.75,549.06,155.75,550.21z M173.64,556.53h-3.05v-12.26h3.05V556.53z"/>
			<path d="M192.29,567.96h-11.4v-13.08h8.85v-7.48h-8.85v-2.69h11.84v12.82h-8.82v7.76h8.96c2.32,0,4.17-0.5,5.24-1.46v-19.57h3.05
				v25.39h-3.05v-3.3C197.11,567.37,194.92,567.96,192.29,567.96z"/>
			<path d="M216.84,556.28c0-4.59,0.45-8.04,2.04-10.02c1.06-1.29,2.6-1.99,4.51-1.99c1.88,0,3.44,0.7,4.48,1.99
				c1.62,1.99,2.07,5.43,2.07,10.02s-0.45,8.04-2.07,10.02c-1.04,1.29-2.6,1.93-4.48,1.93c-1.9,0-3.44-0.64-4.51-1.93
				C217.29,564.32,216.84,560.87,216.84,556.28z M226.92,556.28c0-4.03-0.31-6.97-1.32-8.32c-0.53-0.7-1.32-1.06-2.21-1.06
				c-0.92,0-1.71,0.36-2.21,1.06c-1.06,1.34-1.32,4.28-1.32,8.32c0,4.03,0.25,6.97,1.32,8.34c0.5,0.64,1.29,1.01,2.21,1.01
				c0.9,0,1.68-0.36,2.21-1.01C226.62,563.25,226.92,560.31,226.92,556.28z M236.98,544.27v10.36h3.98v2.66h-3.98v12.38h-3.05
				v-25.39H236.98z"/>
			<path d="M244.59,556.28c0-4.59,0.45-8.04,2.07-10.02c1.04-1.29,2.6-1.99,4.48-1.99c1.9,0,3.44,0.7,4.51,1.99
				c1.62,1.99,2.07,5.43,2.07,10.02s-0.45,8.04-2.07,10.02c-1.06,1.29-2.6,1.93-4.51,1.93c-1.88,0-3.44-0.64-4.48-1.93
				C245.04,564.32,244.59,560.87,244.59,556.28z M254.7,556.28c0-4.03-0.28-6.97-1.34-8.32c-0.5-0.7-1.29-1.06-2.21-1.06
				c-0.9,0-1.68,0.36-2.21,1.06c-1.01,1.34-1.32,4.28-1.32,8.32c0,4.03,0.31,6.97,1.32,8.34c0.53,0.64,1.32,1.01,2.21,1.01
				c0.92,0,1.71-0.36,2.21-1.01C254.42,563.25,254.7,560.31,254.7,556.28z M265.17,544.27v25.39h-3.05v-25.39H265.17z"/>
			<path d="M283.88,567.96h-11.4v-23.24h12.24v2.69h-9.21v17.89h8.96c2.32,0,4.17-0.5,5.24-1.46v-19.57h3.05v25.39h-3.05v-3.3
				C288.69,567.37,286.51,567.96,283.88,567.96z"/>
			<path d="M299.75,556.28c0-4.59,0.45-8.04,2.07-10.02c1.04-1.29,2.6-1.99,4.48-1.99c1.9,0,3.44,0.7,4.51,1.99
				c1.4,1.71,1.93,4.48,2.04,8.12h4.42v-10.11h3.05v25.39h-3.05v-12.66h-4.4c-0.06,4.23-0.53,7.42-2.07,9.3
				c-1.06,1.29-2.6,1.93-4.51,1.93c-1.88,0-3.44-0.64-4.48-1.93C300.2,564.32,299.75,560.87,299.75,556.28z M309.86,556.28
				c0-4.03-0.28-6.97-1.34-8.32c-0.5-0.7-1.29-1.06-2.21-1.06c-0.9,0-1.68,0.36-2.21,1.06c-1.01,1.34-1.32,4.28-1.32,8.32
				c0,4.03,0.31,6.97,1.32,8.34c0.53,0.64,1.32,1.01,2.21,1.01c0.92,0,1.71-0.36,2.21-1.01
				C309.58,563.25,309.86,560.31,309.86,556.28z"/>
			<path d="M335.45,558.52v-2.58h22.88v2.58H335.45z M336.66,549.06c0-1.34,0.56-2.35,1.6-3.11c1.79-1.29,4.9-1.71,8.68-1.71
				c3.75,0,6.89,0.42,8.65,1.71c1.04,0.76,1.6,1.76,1.6,3.11c0,1.37-0.56,2.38-1.6,3.11c-1.76,1.29-4.9,1.74-8.65,1.74
				c-3.78,0-6.89-0.45-8.68-1.74C337.21,551.44,336.66,550.43,336.66,549.06z M336.66,565.58c0-1.57,0.73-2.63,2.04-3.42
				c1.76-1.01,4.62-1.43,8.23-1.43c3.64,0,6.44,0.42,8.2,1.43c1.32,0.79,2.04,1.85,2.04,3.42c0,1.57-0.73,2.63-2.04,3.42
				c-1.76,1.01-4.56,1.4-8.2,1.4c-3.61,0-6.47-0.39-8.23-1.4C337.38,568.21,336.66,567.14,336.66,565.58z M339.71,549.06
				c0,0.5,0.25,0.92,0.7,1.23c1.09,0.76,3.44,1.04,6.52,1.04c3.08,0,5.4-0.28,6.5-1.04c0.48-0.31,0.73-0.73,0.73-1.23
				s-0.25-0.9-0.73-1.2c-1.09-0.76-3.42-1.04-6.5-1.04c-3.08,0-5.43,0.28-6.52,1.04C339.96,548.16,339.71,548.55,339.71,549.06z
				 M339.71,565.58c0,0.56,0.31,1.04,0.87,1.37c1.15,0.64,3.28,0.9,6.36,0.9c3.08,0,5.21-0.25,6.33-0.9c0.59-0.34,0.9-0.81,0.9-1.37
				c0-0.56-0.31-1.01-0.9-1.37c-1.12-0.64-3.25-0.9-6.33-0.9c-3.08,0-5.21,0.25-6.36,0.9C340.01,564.57,339.71,565.02,339.71,565.58
				z"/>
			<path d="M384.42,544.72v14.22h-8.37v6.97h9.69v2.63H363.2v-2.63h9.83v-6.97h-8.51v-14.22H384.42z M367.57,556.25h13.8v-8.85
				h-13.8V556.25z"/>
			<path d="M400.19,547.4v-2.69h13.78v2.69h-5.38v6.83c0,6.78,2.66,9.52,5.6,10.92v2.8c-3.16-1.09-5.91-3.56-7.14-6.24
				c-1.23,2.69-4,5.18-7.14,6.24v-2.8c2.88-1.37,5.6-4.14,5.6-10.92v-6.83H400.19z M420.77,544.27v25.39h-3.05v-25.39H420.77z"/>
			<path d="M435.35,557.63v4.37h-3.05v-4.37h-5.32v-2.52h11.54c2.04,0,3.84-0.11,5.24-0.5v2.44c-1.29,0.42-3.14,0.59-5.15,0.59
				H435.35z M427.93,548.86c0-1.4,0.62-2.52,1.57-3.28c1.32-1.04,3.3-1.48,5.43-1.48c2.13,0,4.09,0.45,5.38,1.48
				c0.98,0.76,1.57,1.88,1.57,3.28c0,1.43-0.59,2.55-1.57,3.3c-1.29,1.01-3.25,1.48-5.38,1.48c-2.13,0-4.12-0.48-5.43-1.48
				C428.55,551.41,427.93,550.29,427.93,548.86z M448.85,569.92h-19.43v-7.2h3.05v4.56h16.38V569.92z M430.85,548.86
				c0,0.7,0.31,1.2,0.78,1.57c0.73,0.56,1.88,0.84,3.3,0.84c1.37,0,2.58-0.28,3.28-0.84c0.48-0.36,0.76-0.87,0.76-1.57
				c0-0.67-0.28-1.18-0.76-1.57c-0.7-0.53-1.9-0.81-3.28-0.81c-1.43,0-2.58,0.28-3.3,0.81
				C431.15,547.68,430.85,548.19,430.85,548.86z M448.4,563.59h-3.05v-2.02h-5.54v-2.41h5.54v-14.89h3.05V563.59z"/>
		</g>
		<path class="st2" d="M440.17,764.14h-305c-26.23,0-47.5-21.27-47.5-47.5l0,0c0-26.23,21.27-47.5,47.5-47.5h305
			c26.23,0,47.5,21.27,47.5,47.5l0,0C487.67,742.88,466.4,764.14,440.17,764.14z"/>
		<g>
			<path class="st3" d="M171.05,714.46c0-4.59,0.45-8.04,2.04-10.02c1.06-1.29,2.6-1.99,4.51-1.99c1.88,0,3.44,0.7,4.48,1.99
				c1.62,1.99,2.07,5.43,2.07,10.02c0,4.59-0.45,8.04-2.07,10.02c-1.04,1.29-2.6,1.93-4.48,1.93c-1.9,0-3.44-0.64-4.51-1.93
				C171.5,722.5,171.05,719.06,171.05,714.46z M181.13,714.46c0-4.03-0.31-6.97-1.32-8.32c-0.53-0.7-1.32-1.06-2.21-1.06
				c-0.92,0-1.71,0.36-2.21,1.06c-1.06,1.34-1.32,4.28-1.32,8.32c0,4.03,0.25,6.97,1.32,8.34c0.5,0.64,1.29,1.01,2.21,1.01
				c0.9,0,1.68-0.37,2.21-1.01C180.82,721.44,181.13,718.5,181.13,714.46z M191.18,702.45v10.36h3.98v2.66h-3.98v12.38h-3.05v-25.4
				H191.18z"/>
			<path class="st3" d="M198.8,714.46c0-4.59,0.45-8.04,2.07-10.02c1.04-1.29,2.6-1.99,4.48-1.99c1.9,0,3.44,0.7,4.51,1.99
				c1.62,1.99,2.07,5.43,2.07,10.02c0,4.59-0.45,8.04-2.07,10.02c-1.06,1.29-2.6,1.93-4.51,1.93c-1.88,0-3.44-0.64-4.48-1.93
				C199.25,722.5,198.8,719.06,198.8,714.46z M208.91,714.46c0-4.03-0.28-6.97-1.34-8.32c-0.5-0.7-1.29-1.06-2.21-1.06
				c-0.9,0-1.68,0.36-2.21,1.06c-1.01,1.34-1.32,4.28-1.32,8.32c0,4.03,0.31,6.97,1.32,8.34c0.53,0.64,1.32,1.01,2.21,1.01
				c0.92,0,1.71-0.37,2.21-1.01C208.63,721.44,208.91,718.5,208.91,714.46z M219.38,702.45v25.4h-3.05v-25.4H219.38z"/>
			<path class="st3" d="M238.08,726.14h-11.4V702.9h12.24v2.69h-9.21v17.89h8.96c2.32,0,4.17-0.5,5.24-1.46v-19.57h3.05v25.4h-3.05
				v-3.3C242.9,725.55,240.71,726.14,238.08,726.14z"/>
			<path class="st3" d="M253.96,714.46c0-4.59,0.45-8.04,2.07-10.02c1.04-1.29,2.6-1.99,4.48-1.99c1.9,0,3.44,0.7,4.51,1.99
				c1.4,1.71,1.93,4.48,2.04,8.12h4.42v-10.11h3.05v25.4h-3.05v-12.66h-4.4c-0.06,4.23-0.53,7.42-2.07,9.3
				c-1.06,1.29-2.6,1.93-4.51,1.93c-1.88,0-3.44-0.64-4.48-1.93C254.41,722.5,253.96,719.06,253.96,714.46z M264.07,714.46
				c0-4.03-0.28-6.97-1.34-8.32c-0.5-0.7-1.29-1.06-2.21-1.06c-0.9,0-1.68,0.36-2.21,1.06c-1.01,1.34-1.32,4.28-1.32,8.32
				c0,4.03,0.31,6.97,1.32,8.34c0.53,0.64,1.32,1.01,2.21,1.01c0.92,0,1.71-0.37,2.21-1.01
				C263.79,721.44,264.07,718.5,264.07,714.46z"/>
			<path class="st3" d="M298.25,702.62v4.34c0,4.4,2.44,6.64,5.68,7.64v2.69c-3.19-0.7-5.85-2.46-7.17-4.59
				c-1.2,2.18-3.89,4.12-7.2,4.9v-2.72c3.33-1.04,5.66-3.64,5.66-7.92v-4.34H298.25z M311.47,727.96h-19.43v-8.62h3.05v5.99h16.38
				V727.96z M311.02,720.23h-3.05v-10.42h-5.54v-2.6h5.54v-4.76h3.05V720.23z"/>
			<path class="st3" d="M318.08,705.39v-2.63h13.1v2.63h-5.04v0.95c0,4.31,2.35,6.36,5.52,7.06v2.69c-3.05-0.53-5.66-2.13-6.97-4.28
				c-1.32,2.18-3.98,4.12-7.06,4.62v-2.72c3.22-0.7,5.49-2.97,5.49-7.36v-0.95H318.08z M329.22,728.44c-2.91,0-5.8-0.39-7.73-1.6
				c-1.34-0.84-2.21-2.1-2.21-3.81c0-1.71,0.87-2.97,2.21-3.81c1.93-1.18,4.82-1.6,7.73-1.6s5.82,0.42,7.73,1.6
				c1.34,0.84,2.24,2.1,2.24,3.81c0,1.71-0.9,2.97-2.24,3.81C335.05,728.04,332.13,728.44,329.22,728.44z M329.22,720.23
				c-2.3,0-4.54,0.28-5.82,1.06c-0.67,0.45-1.09,1.01-1.09,1.74c0,0.73,0.42,1.29,1.09,1.71c1.29,0.78,3.53,1.09,5.82,1.09
				c2.32,0,4.56-0.31,5.82-1.09c0.67-0.42,1.09-0.98,1.09-1.71c0-0.73-0.42-1.29-1.09-1.74
				C333.79,720.51,331.55,720.23,329.22,720.23z M338.6,716.93h-3.05v-6.5h-5.24v-2.6h5.24v-5.38h3.05V716.93z"/>
			<path class="st3" d="M353.83,721.44v-2.69h22.54v2.69h-9.8v6.83h-3.02v-6.83H353.83z M365.09,709.31
				c-1.71,2.86-5.57,5.04-10.84,5.85v-2.69c5.6-1.04,9.3-3.87,9.3-8.79v-1.06h3.02v1.06c0,4.93,3.75,7.73,9.35,8.79v2.69
				C370.69,714.35,366.8,712.17,365.09,709.31z"/>
			<path class="st3" d="M389.56,702.62v3.14c0,4.4,2.41,6.66,5.66,7.64v2.69c-3.19-0.67-5.85-2.46-7.17-4.59
				c-1.2,2.21-3.89,4.12-7.2,4.9v-2.69c3.33-1.06,5.68-3.67,5.68-7.95v-3.14H389.56z M382.87,723.03c0-1.54,0.73-2.71,1.88-3.58
				c1.82-1.29,4.68-1.82,7.98-1.82c3.28,0,6.16,0.53,7.95,1.82c1.15,0.87,1.88,2.04,1.88,3.58c0,1.57-0.73,2.74-1.88,3.61
				c-1.79,1.29-4.68,1.79-7.95,1.79c-3.3,0-6.16-0.5-7.98-1.79C383.6,725.78,382.87,724.6,382.87,723.03z M385.92,723.03
				c0,0.7,0.36,1.29,1.04,1.74c1.12,0.76,3.16,1.06,5.77,1.06c2.58,0,4.62-0.31,5.8-1.06c0.64-0.45,0.98-1.04,0.98-1.74
				c0-0.7-0.34-1.29-0.98-1.74c-1.18-0.73-3.22-1.06-5.8-1.06c-2.6,0-4.65,0.34-5.77,1.06
				C386.28,721.74,385.92,722.33,385.92,723.03z M401.94,702.45v5.71h3.7v2.66h-3.7v6.1h-3.05v-14.48H401.94z"/>
		</g>
		<g>
			<g>
				<g>
					<line class="st4" x1="304.17" y1="312.94" x2="302.42" y2="314.68"/>
					<line class="st5" x1="298.09" y1="319.02" x2="291.58" y2="325.52"/>
					<polyline class="st4" points="289.42,327.69 287.67,329.44 285.92,327.69 					"/>
					<line class="st5" x1="281.59" y1="323.35" x2="275.08" y2="316.85"/>
					<line class="st4" x1="272.92" y1="314.68" x2="271.17" y2="312.94"/>
				</g>
			</g>
		</g>
		<g>
			<g>
				<g>
					<line class="st4" x1="304.17" y1="629.3" x2="302.42" y2="631.05"/>
					<line class="st5" x1="298.09" y1="635.38" x2="291.58" y2="641.88"/>
					<polyline class="st4" points="289.42,644.05 287.67,645.8 285.92,644.05 					"/>
					<line class="st5" x1="281.59" y1="639.72" x2="275.08" y2="633.22"/>
					<line class="st4" x1="272.92" y1="631.05" x2="271.17" y2="629.3"/>
				</g>
			</g>
		</g>
		<g>
			<g>
				<g>
					<line class="st4" x1="304.17" y1="471.12" x2="302.42" y2="472.87"/>
					<line class="st5" x1="298.09" y1="477.2" x2="291.58" y2="483.7"/>
					<polyline class="st4" points="289.42,485.87 287.67,487.62 285.92,485.87 					"/>
					<line class="st5" x1="281.59" y1="481.54" x2="275.08" y2="475.03"/>
					<line class="st4" x1="272.92" y1="472.87" x2="271.17" y2="471.12"/>
				</g>
			</g>
		</g>
		<g>
			<path class="st6" d="M20.65,282.38l0.13-7.95l-4.13-27.85l-0.06-15.01c-0.03-3.19,2.53-5.8,5.72-5.84
				c3.19-0.03,5.81,2.53,5.84,5.72l0.07,2.01l0.05,1.93l-0.09-5.71c-0.03-3.19,2.53-5.8,5.72-5.84c3.19-0.03,5.81,2.53,5.84,5.73
				l0.08,3.33l0.04,1.93l-0.08-5.31c-0.03-3.19,2.53-5.81,5.72-5.84c3.19-0.03,5.8,2.53,5.84,5.72l0.02,1.3
				c0.24-2.94,2.69-5.27,5.7-5.3c3.2-0.03,5.81,2.53,5.84,5.72l-0.04,26.94l-8.23,16.14l0.03,8.28"/>
			<path class="st6" d="M20.41,271.95l-1.24-8.33c0,0-26.47-22.86-2.58-26.08v-34c0-3.22,2.61-5.84,5.84-5.84l0,0
				c3.22,0,5.84,2.62,5.84,5.84v32.43"/>
			<line class="st7" x1="51.35" y1="230.71" x2="51.35" y2="235.13"/>
			<path class="st6" d="M16.6,237.54h11.92c3.51,0,6.35,2.84,6.35,6.35l0,0c0,3.51-2.84,6.35-6.35,6.35h-2.78"/>
		</g>
		<g>
			<g>
				<path class="st6" d="M20.65,599.16l0.13-7.95l-4.13-27.85l-0.06-15.01c-0.03-3.19,2.53-5.81,5.72-5.84
					c3.19-0.03,5.81,2.53,5.84,5.72l0.07,2.01l0.05,1.93l-0.09-5.71c-0.03-3.19,2.53-5.8,5.72-5.84c3.19-0.03,5.81,2.53,5.84,5.73
					l0.08,3.33l0.04,1.93l-0.08-5.31c-0.03-3.19,2.53-5.8,5.72-5.84c3.19-0.03,5.8,2.53,5.84,5.72l0.02,1.3
					c0.24-2.94,2.69-5.27,5.7-5.3c3.2-0.03,5.81,2.53,5.84,5.72l-0.04,26.94l-8.23,16.14l0.03,8.28"/>
				<path class="st6" d="M20.41,588.73l-1.24-8.33c0,0-26.47-22.85-2.58-26.08v-30.17c0-3.22,2.61-5.84,5.84-5.84l0,0
					c3.22,0,5.84,2.61,5.84,5.84v28.61"/>
				<line class="st6" x1="51.35" y1="547.49" x2="51.35" y2="551.92"/>
			</g>
			<path class="st6" d="M16.6,554.33h11.92c3.51,0,6.35,2.84,6.35,6.35l0,0c0,3.51-2.84,6.35-6.35,6.35h-2.78"/>
			<path class="st6" d="M39.82,549.69v-30.26c0-3.19-2.58-5.77-5.77-5.77l0,0c-3.19,0-5.77,2.59-5.77,5.77v28.96"/>
			<path class="st6" d="M51.37,549.69v-28.35c0-3.19-2.58-5.77-5.77-5.77l0,0c-3.19,0-5.77,2.59-5.77,5.77v25.13"/>
		</g>
		<g>
			<g>
				<path class="st6" d="M20.65,441.25l0.13-7.95l-4.13-27.85l-0.06-15.01c-0.03-3.19,2.53-5.81,5.72-5.84
					c3.19-0.03,5.81,2.53,5.84,5.72l0.07,2.01l0.05,1.93l-0.09-5.71c-0.03-3.19,2.53-5.8,5.72-5.84c3.19-0.03,5.81,2.53,5.84,5.73
					l0.08,3.33l0.04,1.93l-0.08-5.31c-0.03-3.19,2.53-5.81,5.72-5.84c3.19-0.03,5.8,2.53,5.84,5.72l0.02,1.3
					c0.24-2.94,2.69-5.27,5.7-5.3c3.2-0.03,5.81,2.53,5.84,5.72l-0.04,26.94l-8.23,16.14l0.03,8.27"/>
				<path class="st6" d="M20.41,430.82l-1.24-8.33c0,0-26.47-22.86-2.58-26.08l-6.04-34c0-3.22,2.62-5.84,5.84-5.84l0,0
					c3.23,0,5.84,2.61,5.84,5.84l6.04,32.43"/>
				<line class="st6" x1="51.35" y1="389.58" x2="51.35" y2="394"/>
				<path class="st6" d="M28.27,388.95l2.98-28.62c0.33-3.15,3.15-5.43,6.29-5.11l0,0c3.15,0.33,5.44,3.15,5.11,6.29l-2.83,30.25"/>
			</g>
			<path class="st6" d="M16.6,396.41h11.92c3.51,0,6.35,2.84,6.35,6.35l0,0c0,3.51-2.84,6.35-6.35,6.35h-2.78"/>
		</g>
		<g>
			<g>
				<path class="st6" d="M0.25,735.64l5.63-5.1l6.01-36.2c0,0,3.85-8.29,10.21-2.45c0,0,2.78,1.52,0.87,12.09l-0.36,5.48l10.43-9.85
					c2.21-2.11,5.7-2.03,7.81,0.18c2.11,2.21,2.03,5.7-0.18,7.81l-1.35,1.36l-1.32,1.3l3.93-3.79c2.2-2.11,5.7-2.03,7.81,0.17
					c2.11,2.21,2.03,5.71-0.18,7.81l-2.27,2.24l-1.32,1.29l3.65-3.53c2.21-2.11,5.7-2.03,7.81,0.18c2.11,2.21,2.03,5.7-0.18,7.81
					l-0.89,0.86c2.21-1.75,5.43-1.57,7.42,0.51c2.11,2.21,2.03,5.71-0.18,7.81l-18.82,17.58L28.15,754l-5.75,5.43"/>
				<path class="st6" d="M37.6,710.63l22.62-21.2c2.25-2.11,2.37-5.64,0.26-7.89l0,0c-2.11-2.25-5.64-2.36-7.89-0.26l-23.72,22.22"
					/>
				<line class="st6" x1="56.36" y1="723.28" x2="53.27" y2="726.17"/>
			</g>
			<line class="st8" x1="70.7" y1="670.76" x2="65.28" y2="676.03"/>
			<line class="st8" x1="58.02" y1="663.85" x2="56.29" y2="671.5"/>
			<line class="st8" x1="77.25" y1="683.62" x2="69.56" y2="685.14"/>
		</g>
	</g>
</g>
</svg>
