<?xml version="1.0" encoding="utf-8"?>
<!-- Generator: Adobe Illustrator 21.0.2, SVG Export Plug-In . SVG Version: 6.00 Build 0)  -->
<svg version="1.1" id="Layer_1" xmlns="http://www.w3.org/2000/svg" xmlns:xlink="http://www.w3.org/1999/xlink" x="0px" y="0px"
	 viewBox="0 0 1372.1 227.3" style="enable-background:new 0 0 1372.1 227.3;" xml:space="preserve">
<style type="text/css">
	.st0{fill:#898989;}
</style>
<path class="st0" d="M292.3,31.8v-6.4h-31.8h-21.4c0,0-62,63.9-99,102.8c-4.1-10.8-8.8-21-12.8-29.5C115.2,73.3,93,25.4,93,25.4
	H39.8v6.4h28.1l-36.1,179H0v6.4h65.4v-6.4H38.9L74.1,36.3c5.6,11.7,26.4,55.5,39.7,82.2c4.2,8.5,8.6,16.5,12.4,24.5
	c-3.6,3.9-6.7,7.1-8.9,9.6c-21.9,24.2-26.3,43.9-16,62.2c10.3,18.3,41.1,7.6,48.4-21.1c4.4-17.4-0.3-39.1-7.4-59.2
	C166.2,110,239.1,37,239.1,37l-39,173.8H170v6.4h84.3v-6.4h-31.2l40.2-179H292.3z M137.1,192.3c-2.4,28.5-33.6,37.8-35.2,7.7
	c-1.1-20.1,10.8-34.7,26.8-51.5C134.6,162.1,138.5,175.9,137.1,192.3z"/>
<path class="st0" d="M488.6,112.1c0-8-6.6-14.5-14.7-14.5c0,0-22.2-2-39.9,31.2c-7.6,14.2-13.5,25.5-17.8,33.8l13.5-63.7l-48.4,4.9
	l0,0v6.7l26.1-2.8l-26.1,117.5h21.6l5-23.4l0,0c0,0,14-42.1,27-64c9.4-15.8,17.8-24.9,24.6-28.5c-0.2,0.9-0.3,1.8-0.3,2.7
	c0,8,6.6,14.5,14.7,14.5C482.1,126.6,488.6,120.1,488.6,112.1z"/>
<g>
	<ellipse class="st0" cx="339.9" cy="52.1" rx="14.1" ry="13.8"/>
	<path class="st0" d="M324.3,220.2c-15.2,2.8-2.8-40,0.6-51.7c3.5-11.8,3.5-11.8,3.5-11.8l14.5-57.7l-48.4,4.9l0,0v6.7l27.7-3
		c-3.5,11.8-16.5,55.5-22.1,74.1c-6.5,21.6-5.9,40.8,13.4,45.9c19.3,5.2,35.1-20.2,36.3-34l-4.9-0.2
		C345,193.4,339.6,217.4,324.3,220.2z"/>
</g>
<path class="st0" d="M610.5,221.6c-16,1.3-2.2-46.2-0.7-52.1c5.2-20.6,15.7-69,15.7-69s-45.2-7.5-71.2,4.1
	c-26,11.6-52,33.4-55.5,75.3c-3.5,41.8,20.6,47.2,37.1,46.9c16.5-0.3,33.3-8.7,48.2-42.9c0,0-1.5,20.1,1.9,32.2
	c2.3,8.1,18.3,18.9,33.7,10c15.4-8.9,16.4-32.9,16.4-32.9h-6.4C629.8,193.3,626.5,220.3,610.5,221.6z M571.2,195.4
	c-18.4,31.3-47.4,32.5-50.3,5.3c-3-27.2,6-56.7,28.4-79.1c22.5-22.4,54.7-18.1,54.7-18.1C601.2,128.3,591.2,161.3,571.2,195.4z"/>
<path class="st0" d="M725.6,27l-48.4,4.9l0,0v6.6l26.3-2.8c-3.6,15-27.6,114.2-33,139.1c-5.9,27-9.1,45.3,9.9,52.5
	c19.1,7.2,35.5-17,38.4-35.8h-5.5c0,0-6.5,22.4-18.9,26.6c-12.4,4.2-8.4-25.8-2.1-52.9C698.7,138,725.6,27,725.6,27z"/>
<path class="st0" d="M865.5,31.6c13.3-20.3,25.6-29,25.6-29L888.7,0c-7.1,4.9-21.4,15.8-35.4,31.4c-12.8,0.3-25.4,2.2-36.6,5.5
	c-34.9,10.4-56.8,38.1-62.5,62.9c-5.5,23.9,5,59.1,45.9,74.3c-4.5,20.4-8,37.4-9.4,44.1h-28v6.4H847c23,0,63.9-2.3,92-42.2
	c28.2-40,28.7-77.5,4.1-114C927.2,44.8,896.5,33.4,865.5,31.6z M759.8,120c-6.3-39.7,36-81.2,88.4-82.8
	c-11.5,13.8-22,30.7-27.4,49.9c-6.1,22-13.6,54.5-19.7,82C793.1,166.5,765.4,154.9,759.8,120z M923.9,163.8
	C899.8,204,867,218.2,847,218.2h-32.7c1.1-6.3,3.8-21.5,7.7-41.4c4.4,0.7,20.5,2.5,34.9-3.4c16.9-6.9,20.9-12.5,19.8-14.9
	c-1.2-2.7-6.5,1.5-9.3,3.2c-2.8,1.7-17.8,13.2-44.3,9.7c4.6-23.5,10.7-52.5,17.6-80.7c5.4-22.3,13.3-39.8,21.2-53.1
	c27,2.2,47.5,12.4,56.4,25.9C927.9,78.4,947.9,123.7,923.9,163.8z"/>
<path class="st0" d="M1040.9,176.7c12.5,0,29-4,44.7-22.9c15.7-18.9,11.9-40.5-3-50.6c-14.9-10.1-41.1-7.5-62.5,13.6
	c-21.4,21-39.3,59.1-22.5,91.4c16.8,32.2,67.1,26.1,88.5-10.4l-3-2.4c0,0-11.6,17.6-29,23.4c-17.3,5.9-45.2,7.2-40.3-42.1
	C1013.9,176.7,1028.5,176.7,1040.9,176.7z M1035.3,123.7c16-19.2,33.8-23.2,44.4-15.2c10.6,8,10.8,33-6.8,47.1
	c-17.6,14.1-30.6,15.2-58.2,14.9C1014.7,170.6,1019.3,142.9,1035.3,123.7z"/>
<path class="st0" d="M1219.3,112.6c-9.3-22.9-56.6-17.1-77.2,8.8c-20.6,25.8-32.8,54.3-19.5,86.3c13.3,32,67.9,28.5,88-9.3l-2.7-2.1
	c0,0-18.9,27.4-45.5,26.1c-26.5-1.3-28.4-48.5-18.1-74.3c10.3-25.8,30-42.9,50.6-44c15.6-0.8,21.1,9.9,21,18.4
	c-2.5-2.7-6-4.5-10-4.5c-7.4,0-13.4,5.9-13.4,13.2c0,7.3,6,13.2,13.4,13.2c2.5,0,4.8-0.7,6.8-1.9l0,0
	C1212.7,142.4,1228.5,135.5,1219.3,112.6z"/>
<path class="st0" d="M1320.2,98.3c-25.2,0-56.1,13-69.6,54.5c-13.5,41.6,10.8,76.6,49.8,76.6s64.4-28.1,70.9-73.1
	C1377.9,111.2,1335.7,98.3,1320.2,98.3z M1347.8,150.4c-3,30.9-18.7,74.3-47.9,74.3s-39.5-33.8-26-73.3c13.5-39.4,29-47.7,45.7-47.7
	C1340,103.8,1350.8,119.5,1347.8,150.4z"/>
</svg>
