<svg xmlns="http://www.w3.org/2000/svg" viewBox="0 0 274.97 192.48"><defs><style>.cls-1{fill:#fff;}</style></defs><g id="레이어_2" data-name="레이어 2"><g id="Capa_1" data-name="Capa 1"><g id="Menu"><path class="cls-1" d="M8.59,168.42H266.38c4.74,0,8.59,5.39,8.59,12s-3.85,12-8.59,12H8.59c-4.74,0-8.59-5.39-8.59-12S3.85,168.42,8.59,168.42Z"/><path class="cls-1" d="M266.38,108.27H8.59c-4.74,0-8.59-5.39-8.59-12s3.85-12,8.59-12H266.38c4.74,0,8.59,5.39,8.59,12S271.12,108.27,266.38,108.27Z"/><path class="cls-1" d="M266.38,24.06H94.52c-4.74,0-8.59-5.39-8.59-12S89.78,0,94.52,0H266.38C271.12,0,275,5.39,275,12S271.12,24.06,266.38,24.06Z"/></g></g></g></svg>