<svg xmlns="http://www.w3.org/2000/svg" viewBox="0 0 339.97 192.48"><defs><style>.cls-1{fill:#fff;}</style></defs><g id="레이어_2" data-name="레이어 2"><g id="Capa_1" data-name="Capa 1"><g id="Menu"><path class="cls-1" d="M10.62,168.42H329.35c5.86,0,10.62,5.39,10.62,12s-4.76,12-10.62,12H10.62c-5.86,0-10.62-5.39-10.62-12S4.76,168.42,10.62,168.42Z"/><path class="cls-1" d="M329.35,108.27H10.62c-5.86,0-10.62-5.39-10.62-12s4.76-12,10.62-12H329.35c5.86,0,10.62,5.39,10.62,12S335.21,108.27,329.35,108.27Z"/><path class="cls-1" d="M329.35,24.06H116.86c-5.86,0-10.62-5.39-10.62-12S111,0,116.86,0H329.35C335.21,0,340,5.39,340,12S335.21,24.06,329.35,24.06Z"/></g></g></g></svg>