<svg xmlns="http://www.w3.org/2000/svg" xmlns:xlink="http://www.w3.org/1999/xlink" width="65" height="41" viewBox="0 0 65 41">
    <defs>
        <path id="vb8csbm6ea" d="M0.08 0.074L9.471 0.074 9.471 9.465 0.08 9.465z"/>
    </defs>
    <g fill="none" fill-rule="evenodd">
        <g>
            <g>
                <g>
                    <path fill="#282971" d="M0 5.175L0 14.32 6.683 14.32 6.683 40.066 15.828 40.066 15.828 14.32 22.441 14.32 25.043 5.175z" transform="translate(-156 -33) translate(0 20) translate(156 13)"/>
                    <g>
                        <path fill="#282971" d="M19.876 30.441c-4.416 0-7.997-3.58-7.997-7.998 0-4.417 3.58-7.997 7.997-7.997s7.998 3.58 7.998 7.997-3.58 7.998-7.998 7.998m0-25.373c-9.596 0-17.375 7.78-17.375 17.376 0 2.907.718 5.646 1.98 8.054H.091l3.8 9.321H19.49v-.01c.129.003.257.01.387.01 9.596 0 17.375-7.779 17.375-17.375 0-9.597-7.78-17.376-17.375-17.376" transform="translate(-156 -33) translate(0 20) translate(156 13) translate(20.52 .106)"/>
                        <g transform="translate(-156 -33) translate(0 20) translate(156 13) translate(20.52 .106) translate(34.2)">
                            <mask id="56xjq0vwnb" fill="#fff">
                                <use xlink:href="#vb8csbm6ea"/>
                            </mask>
                            <path fill="#EB483D" d="M9.471 4.77c0 2.592-2.102 4.695-4.695 4.695C2.182 9.465.08 7.362.08 4.769.08 2.176 2.182.074 4.776.074c2.593 0 4.695 2.102 4.695 4.695" mask="url(#56xjq0vwnb)"/>
                        </g>
                    </g>
                </g>
            </g>
        </g>
    </g>
</svg>
